0
SECTION
2
HEADER
9
$INSUNITS
70
4
9
$ACADVER
1
AC1014
9
$HANDSEED
5
FFFF
0
ENDSEC
0
SECTION
2
TABLES
0
TABLE
2
VPORT
5
8
100
AcDbSymbolTable
0
ENDTAB
0
TABLE
2
LTYPE
5
5
100
AcDbSymbolTable
0
LTYPE
5
14
100
AcDbSymbolTableRecord
100
AcDbLinetypeTableRecord
2
BYBLOCK
70
0
0
LTYPE
5
15
100
AcDbSymbolTableRecord
100
AcDbLinetypeTableRecord
2
BYLAYER
70
0
0
ENDTAB
0
TABLE
2
LAYER
5
2
100
AcDbSymbolTable
70
2
0
LAYER
5
50
100
AcDbSymbolTableRecord
100
AcDbLayerTableRecord
2
0
70
0
6
CONTINUOUS
0
ENDTAB
0
TABLE
2
STYLE
5
3
100
AcDbSymbolTable
70
1
0
STYLE
5
11
100
AcDbSymbolTableRecord
100
AcDbTextStyleTableRecord
2
STANDARD
70
0
0
ENDTAB
0
TABLE
2
VIEW
5
6
100
AcDbSymbolTable
70
0
0
ENDTAB
0
TABLE
2
UCS
5
7
100
AcDbSymbolTable
70
0
0
ENDTAB
0
TABLE
2
APPID
5
9
100
AcDbSymbolTable
70
2
0
APPID
5
12
100
AcDbSymbolTableRecord
100
AcDbRegAppTableRecord
2
ACAD
70
0
0
ENDTAB
0
TABLE
2
DIMSTYLE
5
A
100
AcDbSymbolTable
70
1
0
ENDTAB
0
TABLE
2
BLOCK_RECORD
5
1
100
AcDbSymbolTable
70
1
0
BLOCK_RECORD
5
1F
100
AcDbSymbolTableRecord
100
AcDbBlockTableRecord
2
*MODEL_SPACE
0
BLOCK_RECORD
5
1B
100
AcDbSymbolTableRecord
100
AcDbBlockTableRecord
2
*PAPER_SPACE
0
ENDTAB
0
ENDSEC
0
SECTION
2
BLOCKS
0
BLOCK
5
20
100
AcDbEntity
100
AcDbBlockBegin
2
*MODEL_SPACE
0
ENDBLK
5
21
100
AcDbEntity
100
AcDbBlockEnd
0
BLOCK
5
1C
100
AcDbEntity
100
AcDbBlockBegin
2
*PAPER_SPACE
0
ENDBLK
5
1D
100
AcDbEntity
100
AcDbBlockEnd
0
ENDSEC
0
SECTION
2
ENTITIES
0
LWPOLYLINE
5
100
100
AcDbEntity
8
0
100
AcDbPolyline
90
55
70
1
43
0.0
10
-0.3803500000000013
20
82.324700000000007
42
-0.41421356237309503
10
0.61964999999999604
20
83.324700000000007
10
17.669700000000002
20
83.324700000000007
42
0.41421356237309503
10
18.669699999999999
20
84.324700000000007
10
18.669699999999999
20
94.63030000000002
42
-0.41421356237309503
10
19.669699999999995
20
95.630300000000005
10
24.964399091029179
20
95.630300000000005
10
56.269700000000014
20
95.630300000000005
42
0.41421356237309503
10
56.769700000000007
20
96.130300000000005
10
56.769700000000007
20
104.65499999999999
42
-0.41421356237309503
10
57.269700000000029
20
105.15500000000002
10
75.319699999999983
20
105.15500000000002
42
0.41421356237309503
10
75.819699999999997
20
105.65500000000003
10
75.819699999999997
20
109.41800000000001
42
-0.41421356237309503
10
76.319700000000012
20
109.91800000000001
10
95.318999999999988
20
109.91800000000001
42
-0.41421356237309503
10
95.819000000000017
20
109.41799999999999
10
95.819000000000017
20
105.65499999999997
42
0.41421356237309503
10
96.31899999999996
20
105.15500000000002
10
114.56900000000002
20
105.15500000000002
10
115.36900000000006
20
105.15500000000002
10
132.45740020562687
20
105.15500000000002
10
153.97000000000003
20
105.15500000000002
10
154.53070654675477
20
105.15500000000002
42
-0.41421356237309503
10
155.53070654675474
20
104.15500000000003
10
155.53070654675474
20
71.125561476612503
42
-0.41421356237309764
10
154.53070654675474
20
70.125561476612489
10
142.57556461949628
20
70.125561476612503
42
0.41421356237309764
10
141.57556461949628
20
69.125561476612503
10
141.57556461949628
20
63.366453002371124
42
0.41421356237308982
10
142.57556461949628
20
62.366453002371109
10
158.14452035705537
20
62.366453002371117
42
-0.13164392028729538
10
158.64449115031621
20
62.232495268017622
10
163.44494302357944
20
59.461168941011891
42
-0.26795822896011057
10
163.94497223031863
20
58.59512667536535
10
163.94497223031863
20
45.154418915382607
42
-0.13164301206863993
10
163.81101628134979
20
44.654451214752044
10
158.72949962555407
20
35.852248063582707
42
0.33942696438923997
10
158.88839404433571
20
34.645216435441917
10
172.78945752581558
20
20.74246797657031
42
-0.41421948240867001
10
172.78935752870262
20
19.328251670892307
10
153.31355117653897
20
-0.14440707620429449
42
-0.42566701414326541
10
151.87234434619631
20
-0.11622268966465121
42
0.18340946653372339
10
102.49353697700441
20
27.883125050217934
42
0.038278276425772438
10
100.96911987893839
20
28.000000417232481
10
67.294700000000006
20
28.00000041723251
42
-0.41421356237309503
10
66.294700000000006
20
29.000000417232506
10
66.294700000000006
20
36.530999999999999
42
0.41421356237309503
10
65.29470000000002
20
37.530999999999999
10
19.669699999999999
20
37.530999999999999
42
-0.41421356237309503
10
18.669699999999999
20
38.530999999999999
10
18.669699999999999
20
48.824700000000014
42
0.41421356237309503
10
17.669699999999999
20
49.824700000000007
10
0.6196500000000007
20
49.824700000000007
42
-0.41421356237309503
10
-0.38034999999999941
20
50.824700000000007
0
ENDSEC
0
SECTION
2
OBJECTS
0
DICTIONARY
5
C
100
AcDbDictionary
3
ACAD_GROUP
350
D
3
ACAD_MLINESTYLE
350
17
0
DICTIONARY
5
D
100
AcDbDictionary
0
DICTIONARY
5
1A
330
C
100
AcDbDictionary
0
DICTIONARY
5
17
100
AcDbDictionary
0
ENDSEC
0
EOF
