0
SECTION
2
HEADER
9
$INSUNITS
70
4
9
$ACADVER
1
AC1014
9
$HANDSEED
5
FFFF
0
ENDSEC
0
SECTION
2
TABLES
0
TABLE
2
VPORT
5
8
100
AcDbSymbolTable
0
ENDTAB
0
TABLE
2
LTYPE
5
5
100
AcDbSymbolTable
0
LTYPE
5
14
100
AcDbSymbolTableRecord
100
AcDbLinetypeTableRecord
2
BYBLOCK
70
0
0
LTYPE
5
15
100
AcDbSymbolTableRecord
100
AcDbLinetypeTableRecord
2
BYLAYER
70
0
0
ENDTAB
0
TABLE
2
LAYER
5
2
100
AcDbSymbolTable
70
2
0
LAYER
5
50
100
AcDbSymbolTableRecord
100
AcDbLayerTableRecord
2
0
70
0
6
CONTINUOUS
0
ENDTAB
0
TABLE
2
STYLE
5
3
100
AcDbSymbolTable
70
1
0
STYLE
5
11
100
AcDbSymbolTableRecord
100
AcDbTextStyleTableRecord
2
STANDARD
70
0
0
ENDTAB
0
TABLE
2
VIEW
5
6
100
AcDbSymbolTable
70
0
0
ENDTAB
0
TABLE
2
UCS
5
7
100
AcDbSymbolTable
70
0
0
ENDTAB
0
TABLE
2
APPID
5
9
100
AcDbSymbolTable
70
2
0
APPID
5
12
100
AcDbSymbolTableRecord
100
AcDbRegAppTableRecord
2
ACAD
70
0
0
ENDTAB
0
TABLE
2
DIMSTYLE
5
A
100
AcDbSymbolTable
70
1
0
ENDTAB
0
TABLE
2
BLOCK_RECORD
5
1
100
AcDbSymbolTable
70
1
0
BLOCK_RECORD
5
1F
100
AcDbSymbolTableRecord
100
AcDbBlockTableRecord
2
*MODEL_SPACE
0
BLOCK_RECORD
5
1B
100
AcDbSymbolTableRecord
100
AcDbBlockTableRecord
2
*PAPER_SPACE
0
ENDTAB
0
ENDSEC
0
SECTION
2
BLOCKS
0
BLOCK
5
20
100
AcDbEntity
100
AcDbBlockBegin
2
*MODEL_SPACE
0
ENDBLK
5
21
100
AcDbEntity
100
AcDbBlockEnd
0
BLOCK
5
1C
100
AcDbEntity
100
AcDbBlockBegin
2
*PAPER_SPACE
0
ENDBLK
5
1D
100
AcDbEntity
100
AcDbBlockEnd
0
ENDSEC
0
SECTION
2
ENTITIES
0
LWPOLYLINE
5
100
100
AcDbEntity
8
0
100
AcDbPolyline
90
4
70
1
43
0.0
10
97.869699999999995
20
69.106000000000009
10
111.86900000000001
20
69.106000000000009
10
111.86900000000001
20
83.106700000000004
10
97.869699999999995
20
83.106700000000004
0
LWPOLYLINE
5
101
100
AcDbEntity
8
0
100
AcDbPolyline
90
4
70
1
43
0.0
10
78.319699999999997
20
54.318500000000007
10
93.319000000000017
20
54.318500000000007
10
93.319000000000017
20
69.317800000000005
10
78.319699999999997
20
69.317800000000005
0
LWPOLYLINE
5
102
100
AcDbEntity
8
0
100
AcDbPolyline
90
4
70
1
43
0.0
10
97.369699999999995
20
68.606000000000023
10
112.36900000000003
20
68.606000000000023
10
112.36900000000003
20
83.606700000000004
10
97.369699999999995
20
83.606700000000004
0
LWPOLYLINE
5
103
100
AcDbEntity
8
0
100
AcDbPolyline
90
4
70
1
43
0.0
10
112.36900000000003
20
64.555300000000003
10
97.369699999999995
20
64.555300000000003
10
97.369699999999995
20
49.556000000000012
10
112.36900000000003
20
49.556000000000012
0
LWPOLYLINE
5
104
100
AcDbEntity
8
0
100
AcDbPolyline
90
4
70
1
43
0.0
10
93.319000000000017
20
88.367800000000017
10
78.319699999999997
20
88.367800000000017
10
78.319699999999997
20
73.368499999999997
10
93.319000000000017
20
73.368499999999997
0
LWPOLYLINE
5
105
100
AcDbEntity
8
0
100
AcDbPolyline
90
4
70
1
43
0.0
10
111.86900000000001
20
64.055300000000003
10
97.869699999999995
20
64.055300000000003
10
97.869699999999995
20
50.056000000000012
10
111.86900000000001
20
50.056000000000012
0
LWPOLYLINE
5
106
100
AcDbEntity
8
0
100
AcDbPolyline
90
4
70
1
43
0.0
10
111.86900000000001
20
102.155
10
97.869699999999995
20
102.155
10
97.869699999999995
20
88.15600000000002
10
111.86900000000001
20
88.15600000000002
0
LWPOLYLINE
5
107
100
AcDbEntity
8
0
100
AcDbPolyline
90
49
70
1
43
0.0
10
95.819000000000017
20
105.65499999999997
10
95.819000000000017
20
109.41799999999999
42
0.41421356237309503
10
95.318999999999988
20
109.91800000000001
10
76.319700000000012
20
109.91800000000001
42
0.41421356237309503
10
75.819699999999997
20
109.41800000000001
10
75.819699999999997
20
105.65500000000003
42
-0.41421356237309503
10
75.319699999999983
20
105.15500000000002
10
57.269700000000029
20
105.15500000000002
42
0.41421356237309503
10
56.769700000000007
20
104.65499999999999
10
56.769700000000007
20
96.130300000000005
42
-0.41421356237309503
10
56.269700000000014
20
95.630300000000005
10
24.964399091029179
20
95.630300000000005
10
19.669699999999995
20
95.630300000000005
42
0.41421356237309503
10
18.669699999999999
20
94.63030000000002
10
18.669699999999999
20
84.324700000000007
42
-0.41421356237309503
10
17.669700000000002
20
83.324700000000007
10
0.61964999999999504
20
83.324700000000007
42
0.41421356237309503
10
-0.3803500000000013
20
82.324700000000007
10
-0.38034999999999941
20
50.824700000000007
42
0.41421356237309503
10
0.61965000000000048
20
49.824700000000007
10
17.669699999999999
20
49.824700000000007
42
-0.41421356237309503
10
18.669699999999999
20
48.824700000000014
10
18.669699999999999
20
38.530999999999999
42
0.41421356237309503
10
19.669699999999999
20
37.530999999999999
10
65.29470000000002
20
37.530999999999992
42
-0.41421356237309503
10
66.294700000000006
20
36.530999999999999
10
66.294700000000006
20
29.000000417232506
42
0.41421356237309503
10
67.294700000000006
20
28.000000417232506
10
100.96911987893839
20
28.000000417232478
42
-0.038278276425772473
10
102.4935369770044
20
27.883125050217913
42
-0.18340946653372334
10
151.87234434619631
20
-0.11622268966465413
42
0.42566701414326541
10
153.31355117653897
20
-0.14440707620428483
10
172.78935752870262
20
19.328251670892307
42
0.41421948240867001
10
172.78945752581558
20
20.742467976570317
10
158.88839404433571
20
34.645216435441917
42
-0.33942696438923997
10
158.72949962555407
20
35.852248063582707
10
163.81101628134979
20
44.654451214752044
42
0.1316430120686399
10
163.94497223031863
20
45.154418915382607
10
163.94497223031863
20
58.59512667536535
42
0.26795822896011051
10
163.44494302357944
20
59.461168941011906
10
156.03073575349393
20
63.74143012140317
42
-0.26795822896011523
10
155.53070654675474
20
64.607472387049697
10
155.53070654675474
20
104.15500000000003
42
0.41421356237309503
10
154.53070654675477
20
105.15500000000002
10
153.97000000000003
20
105.15500000000002
10
132.45740020562687
20
105.15500000000002
10
115.36900000000006
20
105.15500000000002
10
114.56900000000002
20
105.15500000000002
10
96.31899999999996
20
105.15500000000002
42
-0.41421356237309503
0
LWPOLYLINE
5
108
100
AcDbEntity
8
0
100
AcDbPolyline
90
4
70
1
43
0.0
10
93.319000000000017
20
92.418499999999995
10
93.319000000000017
20
107.41800000000001
10
78.319699999999997
20
107.41800000000001
10
78.319699999999997
20
92.418499999999995
0
LWPOLYLINE
5
109
100
AcDbEntity
8
0
100
AcDbPolyline
90
4
70
1
43
0.0
10
97.369699999999995
20
87.656000000000006
10
112.36900000000003
20
87.656000000000006
10
112.36900000000003
20
102.65500000000002
10
97.369699999999995
20
102.65500000000002
0
LWPOLYLINE
5
110
100
AcDbEntity
8
0
100
AcDbPolyline
90
4
70
1
43
0.0
10
143.33417027429857
20
63.238184422140876
10
155.43417027429874
20
63.238184422140847
10
155.43417027429871
20
69.238184422140861
10
143.33417027429871
20
69.238184422141003
0
CIRCLE
5
111
100
AcDbEntity
8
0
100
AcDbCircle
10
149.87412806139733
20
50.642548857560868
30
0
40
11.899439604356761
210
0
220
0
230
1
0
LWPOLYLINE
5
112
100
AcDbEntity
8
0
100
AcDbPolyline
90
4
70
1
43
0.0
10
136.33785272994828
20
70.132471168300384
10
155.33785272994822
20
70.13247116830037
10
155.33785272994825
20
105.03247116830032
10
136.33785272994831
20
105.03247116830032
0
LWPOLYLINE
5
113
100
AcDbEntity
8
0
100
AcDbPolyline
90
4
70
1
43
0.0
10
40.719700000000003
20
40.530999999999999
10
54.718999999999994
20
40.530999999999999
10
54.718999999999994
20
54.530299999999997
10
40.719700000000003
20
54.530299999999997
0
LWPOLYLINE
5
114
100
AcDbEntity
8
0
100
AcDbPolyline
90
4
70
1
43
0.0
10
54.718999999999994
20
92.630300000000005
10
40.719700000000003
20
92.630300000000005
10
40.719700000000003
20
78.631
10
54.718999999999994
20
78.631
0
LWPOLYLINE
5
115
100
AcDbEntity
8
0
100
AcDbPolyline
90
4
70
1
43
0.0
10
147.12869393391134
20
60.887616826087452
10
160.11914753662529
20
53.388159062650956
10
152.61963291986314
20
40.397499843495417
10
139.62910614716154
20
47.896937998847953
0
LWPOLYLINE
5
116
100
AcDbEntity
8
0
100
AcDbPolyline
90
4
70
1
43
0.0
10
55.218999999999994
20
93.130300000000005
10
40.219700000000003
20
93.130300000000005
10
40.219700000000003
20
78.131
10
55.218999999999994
20
78.131
0
LWPOLYLINE
5
117
100
AcDbEntity
8
0
100
AcDbPolyline
90
4
70
1
43
0.0
10
140.31211356931195
20
48.079975281357363
10
147.31172967010417
20
60.204610296633795
10
159.43614227199976
20
53.205122596264786
10
152.43659446317952
20
41.08050588182634
0
LWPOLYLINE
5
118
100
AcDbEntity
8
0
100
AcDbPolyline
90
4
70
1
43
0.0
10
2.61965
20
73.574700000000007
10
2.61965
20
59.574700000000007
10
16.619199999999999
20
59.574700000000007
10
16.619199999999999
20
73.574700000000007
0
LWPOLYLINE
5
119
100
AcDbEntity
8
0
100
AcDbPolyline
90
4
70
1
43
0.0
10
2.11965
20
74.074700000000007
10
2.1196499999999996
20
59.074700000000007
10
17.119199999999999
20
59.074700000000007
10
17.119199999999999
20
74.074700000000007
0
LWPOLYLINE
5
120
100
AcDbEntity
8
0
100
AcDbPolyline
90
4
70
1
43
0.0
10
130.91899999999998
20
47.674700000000001
10
130.91899999999998
20
61.674000000000007
10
116.92
20
61.674000000000007
10
116.92
20
47.674700000000001
0
LWPOLYLINE
5
121
100
AcDbEntity
8
0
100
AcDbPolyline
90
4
70
1
43
0.0
10
131.41899999999998
20
47.174700000000001
10
131.41899999999998
20
62.174000000000007
10
116.41999999999999
20
62.174000000000007
10
116.41999999999999
20
47.174700000000001
0
LWPOLYLINE
5
122
100
AcDbEntity
8
0
100
AcDbPolyline
90
4
70
1
43
0.0
10
92.819000000000003
20
68.817800000000005
10
78.819699999999997
20
68.817800000000005
10
78.819699999999997
20
54.818500000000007
10
92.819000000000003
20
54.818500000000007
0
LWPOLYLINE
5
123
100
AcDbEntity
8
0
100
AcDbPolyline
90
4
70
1
43
0.0
10
73.768999999999991
20
69.106000000000009
10
73.768999999999991
20
83.106700000000004
10
59.769700000000007
20
83.106700000000004
10
59.769700000000007
20
69.106000000000009
0
LWPOLYLINE
5
124
100
AcDbEntity
8
0
100
AcDbPolyline
90
4
70
1
43
0.0
10
130.91899999999998
20
80.724000000000004
10
116.92
20
80.724000000000004
10
116.92
20
66.724700000000013
10
130.91899999999998
20
66.724700000000013
0
LWPOLYLINE
5
125
100
AcDbEntity
8
0
100
AcDbPolyline
90
4
70
1
43
0.0
10
40.219700000000003
20
40.030999999999999
10
55.218999999999994
20
40.030999999999999
10
55.218999999999994
20
55.030299999999997
10
40.219700000000003
20
55.030299999999997
0
LWPOLYLINE
5
126
100
AcDbEntity
8
0
100
AcDbPolyline
90
4
70
1
43
0.0
10
40.219700000000003
20
59.08100000000001
10
55.218999999999994
20
59.08100000000001
10
55.218999999999994
20
74.080299999999994
10
40.219700000000003
20
74.080299999999994
0
LWPOLYLINE
5
127
100
AcDbEntity
8
0
100
AcDbPolyline
90
4
70
1
43
0.0
10
54.718999999999994
20
59.58100000000001
10
54.718999999999994
20
73.580299999999994
10
40.719700000000003
20
73.580299999999994
10
40.719700000000003
20
59.58100000000001
0
LWPOLYLINE
5
128
100
AcDbEntity
8
0
100
AcDbPolyline
90
4
70
1
43
0.0
10
36.169000000000004
20
59.08100000000001
10
36.169000000000004
20
74.080299999999994
10
21.169700000000002
20
74.080299999999994
10
21.169700000000002
20
59.08100000000001
0
LWPOLYLINE
5
129
100
AcDbEntity
8
0
100
AcDbPolyline
90
4
70
1
43
0.0
10
145.59678199469545
20
29.232582723918146
10
138.59678199469354
20
17.1071827239148
10
126.47278194766095
20
24.107682751071064
10
133.47278194766096
20
36.232982751071063
0
LWPOLYLINE
5
130
100
AcDbEntity
8
0
100
AcDbPolyline
90
4
70
1
43
0.0
10
21.669699999999999
20
73.580299999999994
10
21.669699999999999
20
59.58100000000001
10
35.669000000000004
20
59.58100000000001
10
35.669000000000004
20
73.580299999999994
0
LWPOLYLINE
5
131
100
AcDbEntity
8
0
100
AcDbPolyline
90
4
70
1
43
0.0
10
130.91899999999998
20
99.774000000000015
10
116.92
20
99.774000000000015
10
116.92
20
85.774699999999996
10
130.91899999999998
20
85.774699999999996
0
LWPOLYLINE
5
132
100
AcDbEntity
8
0
100
AcDbPolyline
90
4
70
1
43
0.0
10
87.844700000000003
20
30.500000417232531
10
102.84400000000002
20
30.500000417232531
10
102.84400000000002
20
45.505300000000005
10
87.844700000000003
20
45.505300000000005
0
CIRCLE
5
133
100
AcDbEntity
8
0
100
AcDbCircle
10
149.87412792065615
20
50.642548938811494
30
0
40
9.899439489445351
210
0
220
0
230
1
0
LWPOLYLINE
5
134
100
AcDbEntity
8
0
100
AcDbPolyline
90
4
70
1
43
0.0
10
78.819699999999997
20
92.918499999999995
10
92.819000000000003
20
92.918499999999995
10
92.819000000000003
20
106.91800000000001
10
78.819699999999997
20
106.91800000000001
0
LWPOLYLINE
5
135
100
AcDbEntity
8
0
100
AcDbPolyline
90
4
70
1
43
0.0
10
116.41999999999999
20
100.27400000000002
10
116.41999999999999
20
85.274699999999996
10
131.41899999999998
20
85.274699999999996
10
131.41899999999998
20
100.27400000000002
0
CIRCLE
5
136
100
AcDbEntity
8
0
100
AcDbCircle
10
114.16623882243658
20
85.334410437352716
30
0
40
2.0000000149011576
210
0
220
0
230
1
0
CIRCLE
5
137
100
AcDbEntity
8
0
100
AcDbCircle
10
136.59990036508194
20
65.48736214843953
30
0
40
0.99999999999999645
210
0
220
0
230
1
0
LWPOLYLINE
5
138
100
AcDbEntity
8
0
100
AcDbPolyline
90
4
70
1
43
0.0
10
88.344700000000017
20
31.000000417232528
10
102.34400000000001
20
31.000000417232528
10
102.34400000000001
20
45.005300000000005
10
88.344700000000017
20
45.005300000000005
0
LWPOLYLINE
5
139
100
AcDbEntity
8
0
100
AcDbPolyline
90
4
70
1
43
0.0
10
116.41999999999999
20
81.224000000000004
10
116.41999999999999
20
66.224700000000013
10
131.41899999999998
20
66.224700000000013
10
131.41899999999998
20
81.224000000000004
0
LWPOLYLINE
5
140
100
AcDbEntity
8
0
100
AcDbPolyline
90
4
70
1
43
0.0
10
92.819000000000003
20
73.868499999999997
10
92.819000000000003
20
87.867800000000003
10
78.819699999999997
20
87.867800000000003
10
78.819699999999997
20
73.868499999999997
0
CIRCLE
5
141
100
AcDbEntity
8
0
100
AcDbCircle
10
114.16623882243658
20
85.334410437352716
30
0
40
0.99999999999999645
210
0
220
0
230
1
0
LWPOLYLINE
5
142
100
AcDbEntity
8
0
100
AcDbPolyline
90
4
70
1
43
0.0
10
133.28976400368023
20
36.916020099940368
10
146.27976914003125
20
29.4155885627817
10
138.77979989153741
20
16.424141830540613
10
125.78979475539491
20
23.924680510478375
0
LWPOLYLINE
5
143
100
AcDbEntity
8
0
100
AcDbPolyline
90
4
70
1
43
0.0
10
74.268999999999991
20
87.656000000000006
10
74.268999999999991
20
102.65500000000002
10
59.269700000000007
20
102.65500000000002
10
59.269700000000007
20
87.656000000000006
0
LWPOLYLINE
5
144
100
AcDbEntity
8
0
100
AcDbPolyline
90
4
70
1
43
0.0
10
59.769700000000007
20
88.15600000000002
10
73.768999999999991
20
88.15600000000002
10
73.768999999999991
20
102.155
10
59.769700000000007
20
102.155
0
LWPOLYLINE
5
145
100
AcDbEntity
8
0
100
AcDbPolyline
90
4
70
1
43
0.0
10
59.269700000000007
20
64.555300000000003
10
59.269700000000007
20
49.556000000000012
10
74.268999999999991
20
49.556000000000012
10
74.268999999999991
20
64.555300000000003
0
LWPOLYLINE
5
146
100
AcDbEntity
8
0
100
AcDbPolyline
90
4
70
1
43
0.0
10
21.169700000000002
20
78.131
10
36.169000000000004
20
78.131
10
36.169000000000004
20
93.130300000000005
10
21.169700000000002
20
93.130300000000005
0
LWPOLYLINE
5
147
100
AcDbEntity
8
0
100
AcDbPolyline
90
4
70
1
43
0.0
10
74.268999999999991
20
68.606000000000023
10
74.268999999999991
20
83.606700000000004
10
59.269700000000007
20
83.606700000000004
10
59.269700000000007
20
68.606000000000023
0
LWPOLYLINE
5
148
100
AcDbEntity
8
0
100
AcDbPolyline
90
4
70
1
43
0.0
10
111.20842406695296
20
44.151491158614427
10
125.69835515917008
20
40.268545338494334
10
121.81657593251016
20
25.779855267758279
10
107.3266448413668
20
29.661408237071658
0
CIRCLE
5
149
100
AcDbEntity
8
0
100
AcDbCircle
10
136.59990036508194
20
65.48736214843953
30
0
40
2.0000000149011576
210
0
220
0
230
1
0
LWPOLYLINE
5
150
100
AcDbEntity
8
0
100
AcDbPolyline
90
4
70
1
43
0.0
10
69.294700000000006
20
31.005900000000004
10
83.293999999999997
20
31.005900000000004
10
83.293999999999997
20
45.005300000000005
10
69.294700000000006
20
45.005300000000005
0
CIRCLE
5
151
100
AcDbEntity
8
0
100
AcDbCircle
10
152.56743425326272
20
30.986139015391842
30
0
40
0.99999999999999645
210
0
220
0
230
1
0
LWPOLYLINE
5
152
100
AcDbEntity
8
0
100
AcDbPolyline
90
4
70
1
43
0.0
10
35.669000000000004
20
78.631
10
35.669000000000004
20
92.630300000000005
10
21.669699999999999
20
92.630300000000005
10
21.669699999999999
20
78.631
0
LWPOLYLINE
5
153
100
AcDbEntity
8
0
100
AcDbPolyline
90
4
70
1
43
0.0
10
36.169000000000004
20
55.030299999999997
10
21.169700000000002
20
55.030299999999997
10
21.169700000000002
20
40.030999999999999
10
36.169000000000004
20
40.030999999999999
0
LWPOLYLINE
5
154
100
AcDbEntity
8
0
100
AcDbPolyline
90
4
70
1
43
0.0
10
121.46299999999999
20
26.392199999999999
10
107.93900000000001
20
30.015000000000001
10
111.56200000000001
20
43.539099999999998
10
125.08600000000001
20
39.915000000000006
0
LWPOLYLINE
5
155
100
AcDbEntity
8
0
100
AcDbPolyline
90
4
70
1
43
0.0
10
146.1600306413242
20
16.742916393931019
10
156.0613895251966
20
26.64267505818588
10
165.9602845126222
20
16.742580204701181
10
156.0603256987593
20
6.8442213841819477
0
CIRCLE
5
156
100
AcDbEntity
8
0
100
AcDbCircle
10
107.31880234425185
20
45.616230196101235
30
0
40
0.99999999999999645
210
0
220
0
230
1
0
CIRCLE
5
157
100
AcDbEntity
8
0
100
AcDbCircle
10
72.396599257686134
20
85.638094591927683
30
0
40
0.99999999999999645
210
0
220
0
230
1
0
CIRCLE
5
158
100
AcDbEntity
8
0
100
AcDbCircle
10
149.87412792065615
20
50.642548938811494
30
0
40
0.24999999999999195
210
0
220
0
230
1
0
LWPOLYLINE
5
159
100
AcDbEntity
8
0
100
AcDbPolyline
90
4
70
1
43
0.0
10
83.794000000000011
20
30.505900000000004
10
83.794000000000011
20
45.505300000000005
10
68.794700000000006
20
45.505300000000005
10
68.794700000000006
20
30.505900000000004
0
CIRCLE
5
160
100
AcDbEntity
8
0
100
AcDbCircle
10
38.139107594086219
20
76.002130339110593
30
0
40
1.000000000000002
210
0
220
0
230
1
0
CIRCLE
5
161
100
AcDbEntity
8
0
100
AcDbCircle
10
107.31880234425185
20
45.616230196101235
30
0
40
2.0000000149011576
210
0
220
0
230
1
0
CIRCLE
5
162
100
AcDbEntity
8
0
100
AcDbCircle
10
38.139107594086219
20
76.002130339110593
30
0
40
2.0000000149011621
210
0
220
0
230
1
0
LWPOLYLINE
5
163
100
AcDbEntity
8
0
100
AcDbPolyline
90
4
70
1
43
0.0
10
35.669000000000004
20
40.530999999999999
10
35.669000000000004
20
54.530299999999997
10
21.669699999999999
20
54.530299999999997
10
21.669699999999999
20
40.530999999999999
0
LWPOLYLINE
5
164
100
AcDbEntity
8
0
100
AcDbPolyline
90
4
70
1
43
0.0
10
73.768999999999991
20
64.055300000000003
10
59.769700000000007
20
64.055300000000003
10
59.769700000000007
20
50.056000000000012
10
73.768999999999991
20
50.056000000000012
0
CIRCLE
5
165
100
AcDbEntity
8
0
100
AcDbCircle
10
62.315932856936101
20
43.65222992837176
30
0
40
0.99999999999999645
210
0
220
0
230
1
0
LWPOLYLINE
5
166
100
AcDbEntity
8
0
100
AcDbPolyline
90
4
70
1
43
0.0
10
145.45286670865028
20
16.742916393931019
10
156.06143950617161
20
27.349774674636613
10
166.66739842598074
20
16.742530193469744
10
156.0603256987593
20
6.1371717406284461
0
CIRCLE
5
167
100
AcDbEntity
8
0
100
AcDbCircle
10
9.5353694894374055
20
54.57266637313883
30
0
40
2.0000000149011643
210
0
220
0
230
1
0
CIRCLE
5
168
100
AcDbEntity
8
0
100
AcDbCircle
10
72.396599257686134
20
85.638094591927683
30
0
40
2.0000000149011576
210
0
220
0
230
1
0
CIRCLE
5
169
100
AcDbEntity
8
0
100
AcDbCircle
10
9.5353694894374055
20
54.57266637313883
30
0
40
1.000000000000002
210
0
220
0
230
1
0
CIRCLE
5
170
100
AcDbEntity
8
0
100
AcDbCircle
10
62.315932856936101
20
43.65222992837176
30
0
40
2.0000000149011576
210
0
220
0
230
1
0
CIRCLE
5
171
100
AcDbEntity
8
0
100
AcDbCircle
10
152.56743425326272
20
30.986139015391842
30
0
40
2.0000000149011576
210
0
220
0
230
1
0
ENDSEC
0
SECTION
2
OBJECTS
0
DICTIONARY
5
C
100
AcDbDictionary
3
ACAD_GROUP
350
D
3
ACAD_MLINESTYLE
350
17
0
DICTIONARY
5
D
100
AcDbDictionary
0
DICTIONARY
5
1A
330
C
100
AcDbDictionary
0
DICTIONARY
5
17
100
AcDbDictionary
0
ENDSEC
0
EOF
