M48
; DRILL file {KiCad (5.1.10)-1} date 10/25/21 12:35:56
; FORMAT={-:-/ absolute / metric / decimal}
; #@! TF.CreationDate,2021-10-25T12:35:56+03:00
; #@! TF.GenerationSoftware,Kicad,Pcbnew,(5.1.10)-1
; #@! TF.FileFunction,Plated,1,2,PTH
FMAT,2
METRIC
T1C1.200
T2C2.200
%
G90
G05
T2
X55.296Y-106.985
X83.922Y-85.547
X108.077Y-117.907
X118.161Y-75.921
X153.086Y-115.951
X159.944Y-76.225
X182.372Y-96.063
X198.323Y-130.581
T1
X48.997Y-88.571G85X48.997Y-101.371
G05
X48.997Y-88.571G85X61.797Y-88.571
G05
X48.997Y-101.371G85X61.797Y-101.371
G05
X61.797Y-88.561G85X61.797Y-101.361
G05
X68.047Y-69.495G85X68.047Y-82.295
G05
X68.047Y-88.571G85X68.047Y-101.371
G05
X68.047Y-107.646G85X68.047Y-120.446
G05
X68.047Y-69.495G85X80.847Y-69.495
G05
X68.047Y-82.295G85X80.847Y-82.295
G05
X68.047Y-88.571G85X80.847Y-88.571
G05
X68.047Y-101.371G85X80.847Y-101.371
G05
X68.047Y-107.646G85X80.847Y-107.646
G05
X68.047Y-120.446G85X80.847Y-120.446
G05
X80.847Y-69.485G85X80.847Y-82.285
G05
X80.847Y-88.561G85X80.847Y-101.361
G05
X80.847Y-107.636G85X80.847Y-120.436
G05
X87.097Y-69.521G85X87.097Y-82.321
G05
X87.097Y-88.596G85X87.097Y-101.396
G05
X87.097Y-107.671G85X87.097Y-120.471
G05
X87.097Y-69.521G85X99.897Y-69.521
G05
X87.097Y-82.321G85X99.897Y-82.321
G05
X87.097Y-88.596G85X99.897Y-88.596
G05
X87.097Y-101.396G85X99.897Y-101.396
G05
X87.097Y-107.671G85X99.897Y-107.671
G05
X87.097Y-120.471G85X99.897Y-120.471
G05
X99.897Y-69.511G85X99.897Y-82.311
G05
X99.897Y-88.586G85X99.897Y-101.386
G05
X99.897Y-107.661G85X99.897Y-120.461
G05
X106.147Y-59.996G85X106.147Y-72.796
G05
X106.147Y-79.071G85X106.147Y-91.871
G05
X106.147Y-98.146G85X106.147Y-110.946
G05
X106.147Y-59.996G85X118.947Y-59.996
G05
X106.147Y-72.796G85X118.947Y-72.796
G05
X106.147Y-79.071G85X118.947Y-79.071
G05
X106.147Y-91.871G85X118.947Y-91.871
G05
X106.147Y-98.146G85X118.947Y-98.146
G05
X106.147Y-110.946G85X118.947Y-110.946
G05
X115.672Y-117.146G85X115.672Y-129.946
G05
X118.947Y-59.986G85X118.947Y-72.786
G05
X118.947Y-79.061G85X118.947Y-91.861
G05
X118.947Y-98.136G85X118.947Y-110.936
G05
X115.672Y-117.146G85X128.472Y-117.146
G05
X115.672Y-129.946G85X128.472Y-129.946
G05
X125.223Y-55.195G85X125.223Y-67.995
G05
X125.223Y-74.27G85X125.223Y-87.07
G05
X125.223Y-93.346G85X125.223Y-106.146
G05
X128.472Y-117.136G85X128.472Y-129.936
G05
X125.223Y-55.195G85X138.023Y-55.195
G05
X125.223Y-67.995G85X138.023Y-67.995
G05
X125.223Y-74.27G85X138.023Y-74.27
G05
X125.223Y-87.07G85X138.023Y-87.07
G05
X125.223Y-93.346G85X138.023Y-93.346
G05
X125.223Y-106.146G85X138.023Y-106.146
G05
X134.722Y-117.171G85X134.722Y-129.971
G05
X138.023Y-55.185G85X138.023Y-67.985
G05
X138.023Y-74.26G85X138.023Y-87.06
G05
X138.023Y-93.336G85X138.023Y-106.136
G05
X134.722Y-117.171G85X147.522Y-117.171
G05
X134.722Y-129.971G85X147.522Y-129.971
G05
X144.247Y-59.97G85X144.247Y-72.77
G05
X144.247Y-79.046G85X144.247Y-91.846
G05
X144.247Y-98.121G85X144.247Y-110.921
G05
X147.522Y-117.161G85X147.522Y-129.961
G05
X144.247Y-59.97G85X157.047Y-59.97
G05
X144.247Y-72.77G85X157.047Y-72.77
G05
X144.247Y-79.046G85X157.047Y-79.046
G05
X144.247Y-91.846G85X157.047Y-91.846
G05
X144.247Y-98.121G85X157.047Y-98.121
G05
X144.247Y-110.921G85X157.047Y-110.921
G05
X157.755Y-118.755G85X154.442Y-131.119
G05
X157.047Y-59.96G85X157.047Y-72.76
G05
X157.047Y-79.036G85X157.047Y-91.836
G05
X157.047Y-98.111G85X157.047Y-110.911
G05
X154.442Y-131.119G85X166.806Y-134.432
G05
X163.272Y-62.358G85X163.272Y-75.158
G05
X163.272Y-81.433G85X163.272Y-94.233
G05
X163.272Y-100.509G85X163.272Y-113.309
G05
X157.755Y-118.755G85X170.119Y-122.068
G05
X170.122Y-122.058G85X166.809Y-134.422
G05
X163.272Y-62.358G85X176.072Y-62.358
G05
X163.272Y-75.158G85X176.072Y-75.158
G05
X163.272Y-81.433G85X176.072Y-81.433
G05
X163.272Y-94.233G85X176.072Y-94.233
G05
X163.272Y-100.509G85X176.072Y-100.509
G05
X163.272Y-113.309G85X176.072Y-113.309
G05
X176.072Y-62.348G85X176.072Y-75.148
G05
X176.072Y-81.423G85X176.072Y-94.223
G05
X176.072Y-100.499G85X176.072Y-113.299
G05
X179.471Y-126.131G85X173.071Y-137.217
G05
X173.071Y-137.217G85X184.156Y-143.617
G05
X179.471Y-126.131G85X190.556Y-132.531
G05
X190.561Y-132.523G85X184.161Y-143.608
G05
X193.288Y-102.179G85X186.888Y-113.264
G05
X186.888Y-113.264G85X197.973Y-119.664
G05
X201.828Y-135.78G85X192.777Y-144.831
G05
X192.777Y-144.831G85X201.828Y-153.882
G05
X193.288Y-102.179G85X204.373Y-108.579
G05
X204.378Y-108.571G85X197.978Y-119.656
G05
X201.828Y-135.78G85X210.879Y-144.831
G05
X210.886Y-144.824G85X201.835Y-153.875
G05
T0
M30
