%FSLAX45Y45*%
G04 Gerber Fmt 4.5, Leading zero omitted, Abs format (unit mm)*
G04 Created by KiCad (PCBNEW (5.1.10)-1) date 2021-10-25 12:35:57*
%MOMM*%
%LPD*%
G01*
G04 APERTURE LIST*
%TA.AperFunction,Profile*%
%ADD10C,0.200000*%
%TD*%
%ADD11C,0.200000*%
%ADD12C,0.300000*%
G04 APERTURE END LIST*
D10*
X6344430Y-11174400D02*
G75*
G02*
X6444430Y-11274400I0J-100000D01*
G01*
X20130531Y-9421370D02*
X20130531Y-9696123D01*
X20466300Y-12692348D02*
X21856406Y-14082623D01*
X20466299Y-12692348D02*
G75*
G02*
X20450410Y-12571645I70715J70706D01*
G01*
X14209360Y-5641370D02*
X16034360Y-5641370D01*
X20971957Y-10297357D02*
X20971957Y-11641428D01*
X6444430Y-12303770D02*
X6444430Y-11274400D01*
X14209360Y-5641370D02*
G75*
G02*
X14159360Y-5591370I0J50000D01*
G01*
X12209430Y-5165070D02*
X14109360Y-5165070D01*
X6344430Y-11174400D02*
X4639425Y-11174400D01*
X16114360Y-5641370D02*
X17823200Y-5641370D01*
X4639425Y-7824400D02*
X6344430Y-7824400D01*
X11206930Y-13256870D02*
X11206930Y-12503770D01*
X6544430Y-12403770D02*
G75*
G02*
X6444430Y-12303770I0J100000D01*
G01*
X6544430Y-6593840D02*
X7073900Y-6593840D01*
X10254430Y-6543840D02*
G75*
G02*
X10204430Y-6593840I-50000J0D01*
G01*
X18027435Y-5741370D02*
X18027435Y-9221370D01*
X6444430Y-6693840D02*
G75*
G02*
X6544430Y-6593840I100000J0D01*
G01*
X4539425Y-11074400D02*
X4539425Y-7924400D01*
X4639425Y-11174400D02*
G75*
G02*
X4539425Y-11074400I0J100000D01*
G01*
X11106930Y-12403770D02*
X6544430Y-12403770D01*
X14826814Y-13368557D02*
G75*
G02*
X19764695Y-16168492I-1219184J-7904233D01*
G01*
X6444430Y-7724400D02*
X6444430Y-6693840D01*
X20921954Y-10210753D02*
G75*
G02*
X20971957Y-10297357I-49997J-86604D01*
G01*
X10254430Y-6543840D02*
X10254430Y-5691370D01*
X17823200Y-5641370D02*
X17927435Y-5641370D01*
X18127435Y-9321370D02*
G75*
G02*
X18027435Y-9221370I0J100000D01*
G01*
X11106930Y-12403770D02*
G75*
G02*
X11206930Y-12503770I0J-100000D01*
G01*
X18127435Y-9321370D02*
X20030531Y-9321370D01*
X14674372Y-13356870D02*
X11306930Y-13356870D01*
X21856406Y-14082623D02*
G75*
G02*
X21856396Y-14224045I-70714J-70706D01*
G01*
X17927435Y-5641370D02*
G75*
G02*
X18027435Y-5741370I0J-100000D01*
G01*
X20030531Y-9321370D02*
G75*
G02*
X20130531Y-9421370I0J-100000D01*
G01*
X14109360Y-5165070D02*
G75*
G02*
X14159360Y-5215070I0J-50000D01*
G01*
X11306930Y-13356870D02*
G75*
G02*
X11206930Y-13256870I0J100000D01*
G01*
X19908815Y-16171311D02*
G75*
G02*
X19764695Y-16168492I-70705J70716D01*
G01*
X12159430Y-5591370D02*
G75*
G02*
X12109430Y-5641370I-50000J0D01*
G01*
X20971957Y-11641428D02*
G75*
G02*
X20958562Y-11691425I-100000J0D01*
G01*
X10254430Y-5691370D02*
G75*
G02*
X10304430Y-5641370I50000J0D01*
G01*
X12159430Y-5591370D02*
X12159430Y-5215070D01*
X20958562Y-11691425D02*
X20450410Y-12571645D01*
X20180534Y-9782727D02*
G75*
G02*
X20130531Y-9696123I49997J86604D01*
G01*
X4539425Y-7924400D02*
G75*
G02*
X4639425Y-7824400I100000J0D01*
G01*
X20180534Y-9782727D02*
X20921954Y-10210753D01*
X21856396Y-14224045D02*
X19908815Y-16171311D01*
X14674372Y-13356870D02*
G75*
G02*
X14826814Y-13368557I0J-1000000D01*
G01*
X10304430Y-5641370D02*
X12109430Y-5641370D01*
X16034360Y-5641370D02*
X16114360Y-5641370D01*
X6444430Y-7724400D02*
G75*
G02*
X6344430Y-7824400I-100000J0D01*
G01*
X14159360Y-5215070D02*
X14159360Y-5591370D01*
X12159430Y-5215070D02*
G75*
G02*
X12209430Y-5165070I50000J0D01*
G01*
X7073900Y-6593840D02*
X10204430Y-6593840D01*
D11*
D12*
X4815853Y-16676309D02*
X4815853Y-16376309D01*
X4887282Y-16376309D01*
X4930139Y-16390594D01*
X4958711Y-16419166D01*
X4972996Y-16447737D01*
X4987282Y-16504880D01*
X4987282Y-16547737D01*
X4972996Y-16604880D01*
X4958711Y-16633451D01*
X4930139Y-16662023D01*
X4887282Y-16676309D01*
X4815853Y-16676309D01*
X5115853Y-16676309D02*
X5115853Y-16476309D01*
X5115853Y-16533451D02*
X5130139Y-16504880D01*
X5144425Y-16490594D01*
X5172996Y-16476309D01*
X5201568Y-16476309D01*
X5301568Y-16676309D02*
X5301568Y-16476309D01*
X5301568Y-16376309D02*
X5287282Y-16390594D01*
X5301568Y-16404880D01*
X5315853Y-16390594D01*
X5301568Y-16376309D01*
X5301568Y-16404880D01*
X5487282Y-16676309D02*
X5458711Y-16662023D01*
X5444425Y-16633451D01*
X5444425Y-16376309D01*
X5644425Y-16676309D02*
X5615853Y-16662023D01*
X5601568Y-16633451D01*
X5601568Y-16376309D01*
X5987282Y-16676309D02*
X5987282Y-16376309D01*
X6087282Y-16590594D01*
X6187282Y-16376309D01*
X6187282Y-16676309D01*
X6458711Y-16676309D02*
X6458711Y-16519166D01*
X6444425Y-16490594D01*
X6415853Y-16476309D01*
X6358711Y-16476309D01*
X6330139Y-16490594D01*
X6458711Y-16662023D02*
X6430139Y-16676309D01*
X6358711Y-16676309D01*
X6330139Y-16662023D01*
X6315853Y-16633451D01*
X6315853Y-16604880D01*
X6330139Y-16576309D01*
X6358711Y-16562023D01*
X6430139Y-16562023D01*
X6458711Y-16547737D01*
X6601568Y-16476309D02*
X6601568Y-16776309D01*
X6601568Y-16490594D02*
X6630139Y-16476309D01*
X6687282Y-16476309D01*
X6715853Y-16490594D01*
X6730139Y-16504880D01*
X6744425Y-16533451D01*
X6744425Y-16619166D01*
X6730139Y-16647737D01*
X6715853Y-16662023D01*
X6687282Y-16676309D01*
X6630139Y-16676309D01*
X6601568Y-16662023D01*
X6872996Y-16647737D02*
X6887282Y-16662023D01*
X6872996Y-16676309D01*
X6858711Y-16662023D01*
X6872996Y-16647737D01*
X6872996Y-16676309D01*
X6872996Y-16490594D02*
X6887282Y-16504880D01*
X6872996Y-16519166D01*
X6858711Y-16504880D01*
X6872996Y-16490594D01*
X6872996Y-16519166D01*
M02*
