G04 #@! TF.GenerationSoftware,KiCad,Pcbnew,(5.1.10)-1*
G04 #@! TF.CreationDate,2021-10-25T12:35:37+03:00*
G04 #@! TF.ProjectId,top_plate,746f705f-706c-4617-9465-2e6b69636164,rev?*
G04 #@! TF.SameCoordinates,Original*
G04 #@! TF.FileFunction,Soldermask,Top*
G04 #@! TF.FilePolarity,Negative*
%FSLAX46Y46*%
G04 Gerber Fmt 4.6, Leading zero omitted, Abs format (unit mm)*
G04 Created by KiCad (PCBNEW (5.1.10)-1) date 2021-10-25 12:35:37*
%MOMM*%
%LPD*%
G01*
G04 APERTURE LIST*
%ADD10O,14.800000X2.000000*%
%ADD11O,2.000000X14.800000*%
%ADD12C,3.800000*%
G04 APERTURE END LIST*
G36*
G01*
X192422212Y-101679237D02*
X192422212Y-101679237D01*
G75*
G02*
X193788237Y-101313212I866025J-500000D01*
G01*
X204873363Y-107713212D01*
G75*
G02*
X205239388Y-109079237I-500000J-866025D01*
G01*
X205239388Y-109079237D01*
G75*
G02*
X203873363Y-109445262I-866025J500000D01*
G01*
X192788237Y-103045262D01*
G75*
G02*
X192422212Y-101679237I500000J866025D01*
G01*
G37*
G36*
G01*
X193788237Y-101313212D02*
X193788237Y-101313212D01*
G75*
G02*
X194154262Y-102679237I-500000J-866025D01*
G01*
X187754262Y-113764363D01*
G75*
G02*
X186388237Y-114130388I-866025J500000D01*
G01*
X186388237Y-114130388D01*
G75*
G02*
X186022212Y-112764363I500000J866025D01*
G01*
X192422212Y-101679237D01*
G75*
G02*
X193788237Y-101313212I866025J-500000D01*
G01*
G37*
G36*
G01*
X186022212Y-112764363D02*
X186022212Y-112764363D01*
G75*
G02*
X187388237Y-112398338I866025J-500000D01*
G01*
X198473363Y-118798338D01*
G75*
G02*
X198839388Y-120164363I-500000J-866025D01*
G01*
X198839388Y-120164363D01*
G75*
G02*
X197473363Y-120530388I-866025J500000D01*
G01*
X186388237Y-114130388D01*
G75*
G02*
X186022212Y-112764363I500000J866025D01*
G01*
G37*
G36*
G01*
X204878363Y-107704552D02*
X204878363Y-107704552D01*
G75*
G02*
X205244388Y-109070577I-500000J-866025D01*
G01*
X198844388Y-120155703D01*
G75*
G02*
X197478363Y-120521728I-866025J500000D01*
G01*
X197478363Y-120521728D01*
G75*
G02*
X197112338Y-119155703I500000J866025D01*
G01*
X203512338Y-108070577D01*
G75*
G02*
X204878363Y-107704552I866025J-500000D01*
G01*
G37*
G36*
G01*
X201121293Y-135072727D02*
X201121293Y-135072727D01*
G75*
G02*
X202535507Y-135072727I707107J-707107D01*
G01*
X211586473Y-144123693D01*
G75*
G02*
X211586473Y-145537907I-707107J-707107D01*
G01*
X211586473Y-145537907D01*
G75*
G02*
X210172259Y-145537907I-707107J707107D01*
G01*
X201121293Y-136486941D01*
G75*
G02*
X201121293Y-135072727I707107J707107D01*
G01*
G37*
G36*
G01*
X202535507Y-135072727D02*
X202535507Y-135072727D01*
G75*
G02*
X202535507Y-136486941I-707107J-707107D01*
G01*
X193484541Y-145537907D01*
G75*
G02*
X192070327Y-145537907I-707107J707107D01*
G01*
X192070327Y-145537907D01*
G75*
G02*
X192070327Y-144123693I707107J707107D01*
G01*
X201121293Y-135072727D01*
G75*
G02*
X202535507Y-135072727I707107J-707107D01*
G01*
G37*
G36*
G01*
X192070327Y-144123693D02*
X192070327Y-144123693D01*
G75*
G02*
X193484541Y-144123693I707107J-707107D01*
G01*
X202535507Y-153174659D01*
G75*
G02*
X202535507Y-154588873I-707107J-707107D01*
G01*
X202535507Y-154588873D01*
G75*
G02*
X201121293Y-154588873I-707107J707107D01*
G01*
X192070327Y-145537907D01*
G75*
G02*
X192070327Y-144123693I707107J707107D01*
G01*
G37*
G36*
G01*
X211593544Y-144116622D02*
X211593544Y-144116622D01*
G75*
G02*
X211593544Y-145530836I-707107J-707107D01*
G01*
X202542578Y-154581802D01*
G75*
G02*
X201128364Y-154581802I-707107J707107D01*
G01*
X201128364Y-154581802D01*
G75*
G02*
X201128364Y-153167588I707107J707107D01*
G01*
X210179330Y-144116622D01*
G75*
G02*
X211593544Y-144116622I707107J-707107D01*
G01*
G37*
G36*
G01*
X178604612Y-125631437D02*
X178604612Y-125631437D01*
G75*
G02*
X179970637Y-125265412I866025J-500000D01*
G01*
X191055763Y-131665412D01*
G75*
G02*
X191421788Y-133031437I-500000J-866025D01*
G01*
X191421788Y-133031437D01*
G75*
G02*
X190055763Y-133397462I-866025J500000D01*
G01*
X178970637Y-126997462D01*
G75*
G02*
X178604612Y-125631437I500000J866025D01*
G01*
G37*
G36*
G01*
X179970637Y-125265412D02*
X179970637Y-125265412D01*
G75*
G02*
X180336662Y-126631437I-500000J-866025D01*
G01*
X173936662Y-137716563D01*
G75*
G02*
X172570637Y-138082588I-866025J500000D01*
G01*
X172570637Y-138082588D01*
G75*
G02*
X172204612Y-136716563I500000J866025D01*
G01*
X178604612Y-125631437D01*
G75*
G02*
X179970637Y-125265412I866025J-500000D01*
G01*
G37*
G36*
G01*
X172204612Y-136716563D02*
X172204612Y-136716563D01*
G75*
G02*
X173570637Y-136350538I866025J-500000D01*
G01*
X184655763Y-142750538D01*
G75*
G02*
X185021788Y-144116563I-500000J-866025D01*
G01*
X185021788Y-144116563D01*
G75*
G02*
X183655763Y-144482588I-866025J500000D01*
G01*
X172570637Y-138082588D01*
G75*
G02*
X172204612Y-136716563I500000J866025D01*
G01*
G37*
G36*
G01*
X191060763Y-131656752D02*
X191060763Y-131656752D01*
G75*
G02*
X191426788Y-133022777I-500000J-866025D01*
G01*
X185026788Y-144107903D01*
G75*
G02*
X183660763Y-144473928I-866025J500000D01*
G01*
X183660763Y-144473928D01*
G75*
G02*
X183294738Y-143107903I500000J866025D01*
G01*
X189694738Y-132022777D01*
G75*
G02*
X191060763Y-131656752I866025J-500000D01*
G01*
G37*
G36*
G01*
X156789191Y-118496414D02*
X156789191Y-118496414D01*
G75*
G02*
X158013936Y-117789307I965926J-258819D01*
G01*
X170377786Y-121102191D01*
G75*
G02*
X171084893Y-122326936I-258819J-965926D01*
G01*
X171084893Y-122326936D01*
G75*
G02*
X169860148Y-123034043I-965926J258819D01*
G01*
X157496298Y-119721159D01*
G75*
G02*
X156789191Y-118496414I258819J965926D01*
G01*
G37*
G36*
G01*
X158013936Y-117789307D02*
X158013936Y-117789307D01*
G75*
G02*
X158721043Y-119014052I-258819J-965926D01*
G01*
X155408159Y-131377902D01*
G75*
G02*
X154183414Y-132085009I-965926J258819D01*
G01*
X154183414Y-132085009D01*
G75*
G02*
X153476307Y-130860264I258819J965926D01*
G01*
X156789191Y-118496414D01*
G75*
G02*
X158013936Y-117789307I965926J-258819D01*
G01*
G37*
G36*
G01*
X153476307Y-130860264D02*
X153476307Y-130860264D01*
G75*
G02*
X154701052Y-130153157I965926J-258819D01*
G01*
X167064902Y-133466041D01*
G75*
G02*
X167772009Y-134690786I-258819J-965926D01*
G01*
X167772009Y-134690786D01*
G75*
G02*
X166547264Y-135397893I-965926J258819D01*
G01*
X154183414Y-132085009D01*
G75*
G02*
X153476307Y-130860264I258819J965926D01*
G01*
G37*
G36*
G01*
X170380374Y-121092532D02*
X170380374Y-121092532D01*
G75*
G02*
X171087481Y-122317277I-258819J-965926D01*
G01*
X167774597Y-134681127D01*
G75*
G02*
X166549852Y-135388234I-965926J258819D01*
G01*
X166549852Y-135388234D01*
G75*
G02*
X165842745Y-134163489I258819J965926D01*
G01*
X169155629Y-121799639D01*
G75*
G02*
X170380374Y-121092532I965926J-258819D01*
G01*
G37*
D10*
X122072400Y-117145600D03*
D11*
X115672400Y-123545600D03*
D10*
X122072400Y-129945600D03*
D11*
X128472400Y-123535600D03*
X147522400Y-123561000D03*
D10*
X141122400Y-129971000D03*
D11*
X134722400Y-123571000D03*
D10*
X141122400Y-117171000D03*
X169672000Y-62357800D03*
D11*
X163272000Y-68757800D03*
D10*
X169672000Y-75157800D03*
D11*
X176072000Y-68747800D03*
X176072000Y-87823200D03*
D10*
X169672000Y-94233200D03*
D11*
X163272000Y-87833200D03*
D10*
X169672000Y-81433200D03*
D11*
X176072000Y-106898600D03*
D10*
X169672000Y-113308600D03*
D11*
X163272000Y-106908600D03*
D10*
X169672000Y-100508600D03*
X150647400Y-59970200D03*
D11*
X144247400Y-66370200D03*
D10*
X150647400Y-72770200D03*
D11*
X157047400Y-66360200D03*
X157047400Y-85435600D03*
D10*
X150647400Y-91845600D03*
D11*
X144247400Y-85445600D03*
D10*
X150647400Y-79045600D03*
D11*
X157047400Y-104511000D03*
D10*
X150647400Y-110921000D03*
D11*
X144247400Y-104521000D03*
D10*
X150647400Y-98121000D03*
X131622800Y-93345800D03*
D11*
X125222800Y-99745800D03*
D10*
X131622800Y-106145800D03*
D11*
X138022800Y-99735800D03*
D10*
X131622800Y-74270400D03*
D11*
X125222800Y-80670400D03*
D10*
X131622800Y-87070400D03*
D11*
X138022800Y-80660400D03*
X138022800Y-61585000D03*
D10*
X131622800Y-67995000D03*
D11*
X125222800Y-61595000D03*
D10*
X131622800Y-55195000D03*
X112547400Y-98146400D03*
D11*
X106147400Y-104546400D03*
D10*
X112547400Y-110946400D03*
D11*
X118947400Y-104536400D03*
D10*
X112547400Y-79071000D03*
D11*
X106147400Y-85471000D03*
D10*
X112547400Y-91871000D03*
D11*
X118947400Y-85461000D03*
X118947400Y-66385600D03*
D10*
X112547400Y-72795600D03*
D11*
X106147400Y-66395600D03*
D10*
X112547400Y-59995600D03*
X93497400Y-107671400D03*
D11*
X87097400Y-114071400D03*
D10*
X93497400Y-120471400D03*
D11*
X99897400Y-114061400D03*
D10*
X93497400Y-88596000D03*
D11*
X87097400Y-94996000D03*
D10*
X93497400Y-101396000D03*
D11*
X99897400Y-94986000D03*
X99897400Y-75910600D03*
D10*
X93497400Y-82320600D03*
D11*
X87097400Y-75920600D03*
D10*
X93497400Y-69520600D03*
D11*
X80847400Y-114036000D03*
D10*
X74447400Y-120446000D03*
D11*
X68047400Y-114046000D03*
D10*
X74447400Y-107646000D03*
D11*
X80847400Y-94960600D03*
D10*
X74447400Y-101370600D03*
D11*
X68047400Y-94970600D03*
D10*
X74447400Y-88570600D03*
X74447400Y-69495200D03*
D11*
X68047400Y-75895200D03*
D10*
X74447400Y-82295200D03*
D11*
X80847400Y-75885200D03*
X61797400Y-94960600D03*
D10*
X55397400Y-101370600D03*
D11*
X48997400Y-94970600D03*
D10*
X55397400Y-88570600D03*
D12*
X108077000Y-117906800D03*
X153085800Y-115951000D03*
X198323200Y-130581400D03*
X182372000Y-96062800D03*
X159943800Y-76225400D03*
X118160800Y-75920600D03*
X83921600Y-85547200D03*
X55295800Y-106984800D03*
M02*
