%FSLAX45Y45*%
G04 Gerber Fmt 4.5, Leading zero omitted, Abs format (unit mm)*
G04 Created by KiCad (PCBNEW (5.1.10)-1) date 2021-10-25 12:35:57*
%MOMM*%
%LPD*%
G01*
G04 APERTURE LIST*
%TA.AperFunction,Profile*%
%ADD10C,0.200000*%
%TD*%
%ADD11C,0.200000*%
%ADD12C,0.300000*%
G04 APERTURE END LIST*
D10*
X6344430Y-11174400D02*
G75*
G02*
X6444430Y-11274400I0J-100000D01*
G01*
X20130531Y-9421370D02*
X20130531Y-9696123D01*
X20466300Y-12692348D02*
X21856406Y-14082623D01*
X20466299Y-12692348D02*
G75*
G02*
X20450410Y-12571645I70715J70706D01*
G01*
X14209360Y-5641370D02*
X16034360Y-5641370D01*
X20971957Y-10297357D02*
X20971957Y-11641428D01*
X6444430Y-12303770D02*
X6444430Y-11274400D01*
X14209360Y-5641370D02*
G75*
G02*
X14159360Y-5591370I0J50000D01*
G01*
X12209430Y-5165070D02*
X14109360Y-5165070D01*
X6344430Y-11174400D02*
X4639425Y-11174400D01*
X16114360Y-5641370D02*
X17823200Y-5641370D01*
X4639425Y-7824400D02*
X6344430Y-7824400D01*
X11206930Y-13256870D02*
X11206930Y-12503770D01*
X6544430Y-12403770D02*
G75*
G02*
X6444430Y-12303770I0J100000D01*
G01*
X6544430Y-6593840D02*
X7073900Y-6593840D01*
X10254430Y-6543840D02*
G75*
G02*
X10204430Y-6593840I-50000J0D01*
G01*
X18027435Y-5741370D02*
X18027435Y-9221370D01*
X6444430Y-6693840D02*
G75*
G02*
X6544430Y-6593840I100000J0D01*
G01*
X4539425Y-11074400D02*
X4539425Y-7924400D01*
X4639425Y-11174400D02*
G75*
G02*
X4539425Y-11074400I0J100000D01*
G01*
X11106930Y-12403770D02*
X6544430Y-12403770D01*
X14826814Y-13368557D02*
G75*
G02*
X19764695Y-16168492I-1219184J-7904233D01*
G01*
X6444430Y-7724400D02*
X6444430Y-6693840D01*
X20921954Y-10210753D02*
G75*
G02*
X20971957Y-10297357I-49997J-86604D01*
G01*
X10254430Y-6543840D02*
X10254430Y-5691370D01*
X17823200Y-5641370D02*
X17927435Y-5641370D01*
X18127435Y-9321370D02*
G75*
G02*
X18027435Y-9221370I0J100000D01*
G01*
X11106930Y-12403770D02*
G75*
G02*
X11206930Y-12503770I0J-100000D01*
G01*
X18127435Y-9321370D02*
X20030531Y-9321370D01*
X14674372Y-13356870D02*
X11306930Y-13356870D01*
X21856406Y-14082623D02*
G75*
G02*
X21856396Y-14224045I-70714J-70706D01*
G01*
X17927435Y-5641370D02*
G75*
G02*
X18027435Y-5741370I0J-100000D01*
G01*
X20030531Y-9321370D02*
G75*
G02*
X20130531Y-9421370I0J-100000D01*
G01*
X14109360Y-5165070D02*
G75*
G02*
X14159360Y-5215070I0J-50000D01*
G01*
X11306930Y-13356870D02*
G75*
G02*
X11206930Y-13256870I0J100000D01*
G01*
X19908815Y-16171311D02*
G75*
G02*
X19764695Y-16168492I-70705J70716D01*
G01*
X12159430Y-5591370D02*
G75*
G02*
X12109430Y-5641370I-50000J0D01*
G01*
X20971957Y-11641428D02*
G75*
G02*
X20958562Y-11691425I-100000J0D01*
G01*
X10254430Y-5691370D02*
G75*
G02*
X10304430Y-5641370I50000J0D01*
G01*
X12159430Y-5591370D02*
X12159430Y-5215070D01*
X20958562Y-11691425D02*
X20450410Y-12571645D01*
X20180534Y-9782727D02*
G75*
G02*
X20130531Y-9696123I49997J86604D01*
G01*
X4539425Y-7924400D02*
G75*
G02*
X4639425Y-7824400I100000J0D01*
G01*
X20180534Y-9782727D02*
X20921954Y-10210753D01*
X21856396Y-14224045D02*
X19908815Y-16171311D01*
X14674372Y-13356870D02*
G75*
G02*
X14826814Y-13368557I0J-1000000D01*
G01*
X10304430Y-5641370D02*
X12109430Y-5641370D01*
X16034360Y-5641370D02*
X16114360Y-5641370D01*
X6444430Y-7724400D02*
G75*
G02*
X6344430Y-7824400I-100000J0D01*
G01*
X14159360Y-5215070D02*
X14159360Y-5591370D01*
X12159430Y-5215070D02*
G75*
G02*
X12209430Y-5165070I50000J0D01*
G01*
X7073900Y-6593840D02*
X10204430Y-6593840D01*
D11*
X4839740Y-9437060D02*
X4959740Y-9557060D01*
X4959740Y-9437060D02*
X4839740Y-9557060D01*
X4849740Y-8857060D02*
X4849740Y-10137060D01*
X4949740Y-8857060D02*
X4949740Y-10137060D01*
X4849740Y-10137060D02*
G75*
G03*
X4949740Y-10137060I50000J0D01*
G01*
X4949740Y-8857060D02*
G75*
G03*
X4849740Y-8857060I-50000J0D01*
G01*
X5479740Y-8797060D02*
X5599740Y-8917060D01*
X5599740Y-8797060D02*
X5479740Y-8917060D01*
X4899740Y-8907060D02*
X6179740Y-8907060D01*
X4899740Y-8807060D02*
X6179740Y-8807060D01*
X6179740Y-8907060D02*
G75*
G03*
X6179740Y-8807060I0J50000D01*
G01*
X4899740Y-8807060D02*
G75*
G03*
X4899740Y-8907060I0J-50000D01*
G01*
X5479740Y-10077060D02*
X5599740Y-10197060D01*
X5599740Y-10077060D02*
X5479740Y-10197060D01*
X4899740Y-10187060D02*
X6179740Y-10187060D01*
X4899740Y-10087060D02*
X6179740Y-10087060D01*
X6179740Y-10187060D02*
G75*
G03*
X6179740Y-10087060I0J50000D01*
G01*
X4899740Y-10087060D02*
G75*
G03*
X4899740Y-10187060I0J-50000D01*
G01*
X6119740Y-9436060D02*
X6239740Y-9556060D01*
X6239740Y-9436060D02*
X6119740Y-9556060D01*
X6129740Y-8856060D02*
X6129740Y-10136060D01*
X6229740Y-8856060D02*
X6229740Y-10136060D01*
X6129740Y-10136060D02*
G75*
G03*
X6229740Y-10136060I50000J0D01*
G01*
X6229740Y-8856060D02*
G75*
G03*
X6129740Y-8856060I-50000J0D01*
G01*
X6744740Y-7529520D02*
X6864740Y-7649520D01*
X6864740Y-7529520D02*
X6744740Y-7649520D01*
X6754740Y-6949520D02*
X6754740Y-8229520D01*
X6854740Y-6949520D02*
X6854740Y-8229520D01*
X6754740Y-8229520D02*
G75*
G03*
X6854740Y-8229520I50000J0D01*
G01*
X6854740Y-6949520D02*
G75*
G03*
X6754740Y-6949520I-50000J0D01*
G01*
X6744740Y-9437060D02*
X6864740Y-9557060D01*
X6864740Y-9437060D02*
X6744740Y-9557060D01*
X6754740Y-8857060D02*
X6754740Y-10137060D01*
X6854740Y-8857060D02*
X6854740Y-10137060D01*
X6754740Y-10137060D02*
G75*
G03*
X6854740Y-10137060I50000J0D01*
G01*
X6854740Y-8857060D02*
G75*
G03*
X6754740Y-8857060I-50000J0D01*
G01*
X6744740Y-11344600D02*
X6864740Y-11464600D01*
X6864740Y-11344600D02*
X6744740Y-11464600D01*
X6754740Y-10764600D02*
X6754740Y-12044600D01*
X6854740Y-10764600D02*
X6854740Y-12044600D01*
X6754740Y-12044600D02*
G75*
G03*
X6854740Y-12044600I50000J0D01*
G01*
X6854740Y-10764600D02*
G75*
G03*
X6754740Y-10764600I-50000J0D01*
G01*
X7384740Y-6889520D02*
X7504740Y-7009520D01*
X7504740Y-6889520D02*
X7384740Y-7009520D01*
X6804740Y-6999520D02*
X8084740Y-6999520D01*
X6804740Y-6899520D02*
X8084740Y-6899520D01*
X8084740Y-6999520D02*
G75*
G03*
X8084740Y-6899520I0J50000D01*
G01*
X6804740Y-6899520D02*
G75*
G03*
X6804740Y-6999520I0J-50000D01*
G01*
X7384740Y-8169520D02*
X7504740Y-8289520D01*
X7504740Y-8169520D02*
X7384740Y-8289520D01*
X6804740Y-8279520D02*
X8084740Y-8279520D01*
X6804740Y-8179520D02*
X8084740Y-8179520D01*
X8084740Y-8279520D02*
G75*
G03*
X8084740Y-8179520I0J50000D01*
G01*
X6804740Y-8179520D02*
G75*
G03*
X6804740Y-8279520I0J-50000D01*
G01*
X7384740Y-8797060D02*
X7504740Y-8917060D01*
X7504740Y-8797060D02*
X7384740Y-8917060D01*
X6804740Y-8907060D02*
X8084740Y-8907060D01*
X6804740Y-8807060D02*
X8084740Y-8807060D01*
X8084740Y-8907060D02*
G75*
G03*
X8084740Y-8807060I0J50000D01*
G01*
X6804740Y-8807060D02*
G75*
G03*
X6804740Y-8907060I0J-50000D01*
G01*
X7384740Y-10077060D02*
X7504740Y-10197060D01*
X7504740Y-10077060D02*
X7384740Y-10197060D01*
X6804740Y-10187060D02*
X8084740Y-10187060D01*
X6804740Y-10087060D02*
X8084740Y-10087060D01*
X8084740Y-10187060D02*
G75*
G03*
X8084740Y-10087060I0J50000D01*
G01*
X6804740Y-10087060D02*
G75*
G03*
X6804740Y-10187060I0J-50000D01*
G01*
X7384740Y-10704600D02*
X7504740Y-10824600D01*
X7504740Y-10704600D02*
X7384740Y-10824600D01*
X6804740Y-10814600D02*
X8084740Y-10814600D01*
X6804740Y-10714600D02*
X8084740Y-10714600D01*
X8084740Y-10814600D02*
G75*
G03*
X8084740Y-10714600I0J50000D01*
G01*
X6804740Y-10714600D02*
G75*
G03*
X6804740Y-10814600I0J-50000D01*
G01*
X7384740Y-11984600D02*
X7504740Y-12104600D01*
X7504740Y-11984600D02*
X7384740Y-12104600D01*
X6804740Y-12094600D02*
X8084740Y-12094600D01*
X6804740Y-11994600D02*
X8084740Y-11994600D01*
X8084740Y-12094600D02*
G75*
G03*
X8084740Y-11994600I0J50000D01*
G01*
X6804740Y-11994600D02*
G75*
G03*
X6804740Y-12094600I0J-50000D01*
G01*
X8024740Y-7528520D02*
X8144740Y-7648520D01*
X8144740Y-7528520D02*
X8024740Y-7648520D01*
X8034740Y-6948520D02*
X8034740Y-8228520D01*
X8134740Y-6948520D02*
X8134740Y-8228520D01*
X8034740Y-8228520D02*
G75*
G03*
X8134740Y-8228520I50000J0D01*
G01*
X8134740Y-6948520D02*
G75*
G03*
X8034740Y-6948520I-50000J0D01*
G01*
X8024740Y-9436060D02*
X8144740Y-9556060D01*
X8144740Y-9436060D02*
X8024740Y-9556060D01*
X8034740Y-8856060D02*
X8034740Y-10136060D01*
X8134740Y-8856060D02*
X8134740Y-10136060D01*
X8034740Y-10136060D02*
G75*
G03*
X8134740Y-10136060I50000J0D01*
G01*
X8134740Y-8856060D02*
G75*
G03*
X8034740Y-8856060I-50000J0D01*
G01*
X8024740Y-11343600D02*
X8144740Y-11463600D01*
X8144740Y-11343600D02*
X8024740Y-11463600D01*
X8034740Y-10763600D02*
X8034740Y-12043600D01*
X8134740Y-10763600D02*
X8134740Y-12043600D01*
X8034740Y-12043600D02*
G75*
G03*
X8134740Y-12043600I50000J0D01*
G01*
X8134740Y-10763600D02*
G75*
G03*
X8034740Y-10763600I-50000J0D01*
G01*
X8649740Y-7532060D02*
X8769740Y-7652060D01*
X8769740Y-7532060D02*
X8649740Y-7652060D01*
X8659740Y-6952060D02*
X8659740Y-8232060D01*
X8759740Y-6952060D02*
X8759740Y-8232060D01*
X8659740Y-8232060D02*
G75*
G03*
X8759740Y-8232060I50000J0D01*
G01*
X8759740Y-6952060D02*
G75*
G03*
X8659740Y-6952060I-50000J0D01*
G01*
X8649740Y-9439600D02*
X8769740Y-9559600D01*
X8769740Y-9439600D02*
X8649740Y-9559600D01*
X8659740Y-8859600D02*
X8659740Y-10139600D01*
X8759740Y-8859600D02*
X8759740Y-10139600D01*
X8659740Y-10139600D02*
G75*
G03*
X8759740Y-10139600I50000J0D01*
G01*
X8759740Y-8859600D02*
G75*
G03*
X8659740Y-8859600I-50000J0D01*
G01*
X8649740Y-11347140D02*
X8769740Y-11467140D01*
X8769740Y-11347140D02*
X8649740Y-11467140D01*
X8659740Y-10767140D02*
X8659740Y-12047140D01*
X8759740Y-10767140D02*
X8759740Y-12047140D01*
X8659740Y-12047140D02*
G75*
G03*
X8759740Y-12047140I50000J0D01*
G01*
X8759740Y-10767140D02*
G75*
G03*
X8659740Y-10767140I-50000J0D01*
G01*
X9289740Y-6892060D02*
X9409740Y-7012060D01*
X9409740Y-6892060D02*
X9289740Y-7012060D01*
X8709740Y-7002060D02*
X9989740Y-7002060D01*
X8709740Y-6902060D02*
X9989740Y-6902060D01*
X9989740Y-7002060D02*
G75*
G03*
X9989740Y-6902060I0J50000D01*
G01*
X8709740Y-6902060D02*
G75*
G03*
X8709740Y-7002060I0J-50000D01*
G01*
X9289740Y-8172060D02*
X9409740Y-8292060D01*
X9409740Y-8172060D02*
X9289740Y-8292060D01*
X8709740Y-8282060D02*
X9989740Y-8282060D01*
X8709740Y-8182060D02*
X9989740Y-8182060D01*
X9989740Y-8282060D02*
G75*
G03*
X9989740Y-8182060I0J50000D01*
G01*
X8709740Y-8182060D02*
G75*
G03*
X8709740Y-8282060I0J-50000D01*
G01*
X9289740Y-8799600D02*
X9409740Y-8919600D01*
X9409740Y-8799600D02*
X9289740Y-8919600D01*
X8709740Y-8909600D02*
X9989740Y-8909600D01*
X8709740Y-8809600D02*
X9989740Y-8809600D01*
X9989740Y-8909600D02*
G75*
G03*
X9989740Y-8809600I0J50000D01*
G01*
X8709740Y-8809600D02*
G75*
G03*
X8709740Y-8909600I0J-50000D01*
G01*
X9289740Y-10079600D02*
X9409740Y-10199600D01*
X9409740Y-10079600D02*
X9289740Y-10199600D01*
X8709740Y-10189600D02*
X9989740Y-10189600D01*
X8709740Y-10089600D02*
X9989740Y-10089600D01*
X9989740Y-10189600D02*
G75*
G03*
X9989740Y-10089600I0J50000D01*
G01*
X8709740Y-10089600D02*
G75*
G03*
X8709740Y-10189600I0J-50000D01*
G01*
X9289740Y-10707140D02*
X9409740Y-10827140D01*
X9409740Y-10707140D02*
X9289740Y-10827140D01*
X8709740Y-10817140D02*
X9989740Y-10817140D01*
X8709740Y-10717140D02*
X9989740Y-10717140D01*
X9989740Y-10817140D02*
G75*
G03*
X9989740Y-10717140I0J50000D01*
G01*
X8709740Y-10717140D02*
G75*
G03*
X8709740Y-10817140I0J-50000D01*
G01*
X9289740Y-11987140D02*
X9409740Y-12107140D01*
X9409740Y-11987140D02*
X9289740Y-12107140D01*
X8709740Y-12097140D02*
X9989740Y-12097140D01*
X8709740Y-11997140D02*
X9989740Y-11997140D01*
X9989740Y-12097140D02*
G75*
G03*
X9989740Y-11997140I0J50000D01*
G01*
X8709740Y-11997140D02*
G75*
G03*
X8709740Y-12097140I0J-50000D01*
G01*
X9929740Y-7531060D02*
X10049740Y-7651060D01*
X10049740Y-7531060D02*
X9929740Y-7651060D01*
X9939740Y-6951060D02*
X9939740Y-8231060D01*
X10039740Y-6951060D02*
X10039740Y-8231060D01*
X9939740Y-8231060D02*
G75*
G03*
X10039740Y-8231060I50000J0D01*
G01*
X10039740Y-6951060D02*
G75*
G03*
X9939740Y-6951060I-50000J0D01*
G01*
X9929740Y-9438600D02*
X10049740Y-9558600D01*
X10049740Y-9438600D02*
X9929740Y-9558600D01*
X9939740Y-8858600D02*
X9939740Y-10138600D01*
X10039740Y-8858600D02*
X10039740Y-10138600D01*
X9939740Y-10138600D02*
G75*
G03*
X10039740Y-10138600I50000J0D01*
G01*
X10039740Y-8858600D02*
G75*
G03*
X9939740Y-8858600I-50000J0D01*
G01*
X9929740Y-11346140D02*
X10049740Y-11466140D01*
X10049740Y-11346140D02*
X9929740Y-11466140D01*
X9939740Y-10766140D02*
X9939740Y-12046140D01*
X10039740Y-10766140D02*
X10039740Y-12046140D01*
X9939740Y-12046140D02*
G75*
G03*
X10039740Y-12046140I50000J0D01*
G01*
X10039740Y-10766140D02*
G75*
G03*
X9939740Y-10766140I-50000J0D01*
G01*
X10554740Y-6579560D02*
X10674740Y-6699560D01*
X10674740Y-6579560D02*
X10554740Y-6699560D01*
X10564740Y-5999560D02*
X10564740Y-7279560D01*
X10664740Y-5999560D02*
X10664740Y-7279560D01*
X10564740Y-7279560D02*
G75*
G03*
X10664740Y-7279560I50000J0D01*
G01*
X10664740Y-5999560D02*
G75*
G03*
X10564740Y-5999560I-50000J0D01*
G01*
X10554740Y-8487100D02*
X10674740Y-8607100D01*
X10674740Y-8487100D02*
X10554740Y-8607100D01*
X10564740Y-7907100D02*
X10564740Y-9187100D01*
X10664740Y-7907100D02*
X10664740Y-9187100D01*
X10564740Y-9187100D02*
G75*
G03*
X10664740Y-9187100I50000J0D01*
G01*
X10664740Y-7907100D02*
G75*
G03*
X10564740Y-7907100I-50000J0D01*
G01*
X10554740Y-10394640D02*
X10674740Y-10514640D01*
X10674740Y-10394640D02*
X10554740Y-10514640D01*
X10564740Y-9814640D02*
X10564740Y-11094640D01*
X10664740Y-9814640D02*
X10664740Y-11094640D01*
X10564740Y-11094640D02*
G75*
G03*
X10664740Y-11094640I50000J0D01*
G01*
X10664740Y-9814640D02*
G75*
G03*
X10564740Y-9814640I-50000J0D01*
G01*
X11194740Y-5939560D02*
X11314740Y-6059560D01*
X11314740Y-5939560D02*
X11194740Y-6059560D01*
X10614740Y-6049560D02*
X11894740Y-6049560D01*
X10614740Y-5949560D02*
X11894740Y-5949560D01*
X11894740Y-6049560D02*
G75*
G03*
X11894740Y-5949560I0J50000D01*
G01*
X10614740Y-5949560D02*
G75*
G03*
X10614740Y-6049560I0J-50000D01*
G01*
X11194740Y-7219560D02*
X11314740Y-7339560D01*
X11314740Y-7219560D02*
X11194740Y-7339560D01*
X10614740Y-7329560D02*
X11894740Y-7329560D01*
X10614740Y-7229560D02*
X11894740Y-7229560D01*
X11894740Y-7329560D02*
G75*
G03*
X11894740Y-7229560I0J50000D01*
G01*
X10614740Y-7229560D02*
G75*
G03*
X10614740Y-7329560I0J-50000D01*
G01*
X11194740Y-7847100D02*
X11314740Y-7967100D01*
X11314740Y-7847100D02*
X11194740Y-7967100D01*
X10614740Y-7957100D02*
X11894740Y-7957100D01*
X10614740Y-7857100D02*
X11894740Y-7857100D01*
X11894740Y-7957100D02*
G75*
G03*
X11894740Y-7857100I0J50000D01*
G01*
X10614740Y-7857100D02*
G75*
G03*
X10614740Y-7957100I0J-50000D01*
G01*
X11194740Y-9127100D02*
X11314740Y-9247100D01*
X11314740Y-9127100D02*
X11194740Y-9247100D01*
X10614740Y-9237100D02*
X11894740Y-9237100D01*
X10614740Y-9137100D02*
X11894740Y-9137100D01*
X11894740Y-9237100D02*
G75*
G03*
X11894740Y-9137100I0J50000D01*
G01*
X10614740Y-9137100D02*
G75*
G03*
X10614740Y-9237100I0J-50000D01*
G01*
X11194740Y-9754640D02*
X11314740Y-9874640D01*
X11314740Y-9754640D02*
X11194740Y-9874640D01*
X10614740Y-9864640D02*
X11894740Y-9864640D01*
X10614740Y-9764640D02*
X11894740Y-9764640D01*
X11894740Y-9864640D02*
G75*
G03*
X11894740Y-9764640I0J50000D01*
G01*
X10614740Y-9764640D02*
G75*
G03*
X10614740Y-9864640I0J-50000D01*
G01*
X11194740Y-11034640D02*
X11314740Y-11154640D01*
X11314740Y-11034640D02*
X11194740Y-11154640D01*
X10614740Y-11144640D02*
X11894740Y-11144640D01*
X10614740Y-11044640D02*
X11894740Y-11044640D01*
X11894740Y-11144640D02*
G75*
G03*
X11894740Y-11044640I0J50000D01*
G01*
X10614740Y-11044640D02*
G75*
G03*
X10614740Y-11144640I0J-50000D01*
G01*
X11507240Y-12294560D02*
X11627240Y-12414560D01*
X11627240Y-12294560D02*
X11507240Y-12414560D01*
X11517240Y-11714560D02*
X11517240Y-12994560D01*
X11617240Y-11714560D02*
X11617240Y-12994560D01*
X11517240Y-12994560D02*
G75*
G03*
X11617240Y-12994560I50000J0D01*
G01*
X11617240Y-11714560D02*
G75*
G03*
X11517240Y-11714560I-50000J0D01*
G01*
X11834740Y-6578560D02*
X11954740Y-6698560D01*
X11954740Y-6578560D02*
X11834740Y-6698560D01*
X11844740Y-5998560D02*
X11844740Y-7278560D01*
X11944740Y-5998560D02*
X11944740Y-7278560D01*
X11844740Y-7278560D02*
G75*
G03*
X11944740Y-7278560I50000J0D01*
G01*
X11944740Y-5998560D02*
G75*
G03*
X11844740Y-5998560I-50000J0D01*
G01*
X11834740Y-8486100D02*
X11954740Y-8606100D01*
X11954740Y-8486100D02*
X11834740Y-8606100D01*
X11844740Y-7906100D02*
X11844740Y-9186100D01*
X11944740Y-7906100D02*
X11944740Y-9186100D01*
X11844740Y-9186100D02*
G75*
G03*
X11944740Y-9186100I50000J0D01*
G01*
X11944740Y-7906100D02*
G75*
G03*
X11844740Y-7906100I-50000J0D01*
G01*
X11834740Y-10393640D02*
X11954740Y-10513640D01*
X11954740Y-10393640D02*
X11834740Y-10513640D01*
X11844740Y-9813640D02*
X11844740Y-11093640D01*
X11944740Y-9813640D02*
X11944740Y-11093640D01*
X11844740Y-11093640D02*
G75*
G03*
X11944740Y-11093640I50000J0D01*
G01*
X11944740Y-9813640D02*
G75*
G03*
X11844740Y-9813640I-50000J0D01*
G01*
X12147240Y-11654560D02*
X12267240Y-11774560D01*
X12267240Y-11654560D02*
X12147240Y-11774560D01*
X11567240Y-11764560D02*
X12847240Y-11764560D01*
X11567240Y-11664560D02*
X12847240Y-11664560D01*
X12847240Y-11764560D02*
G75*
G03*
X12847240Y-11664560I0J50000D01*
G01*
X11567240Y-11664560D02*
G75*
G03*
X11567240Y-11764560I0J-50000D01*
G01*
X12147240Y-12934560D02*
X12267240Y-13054560D01*
X12267240Y-12934560D02*
X12147240Y-13054560D01*
X11567240Y-13044560D02*
X12847240Y-13044560D01*
X11567240Y-12944560D02*
X12847240Y-12944560D01*
X12847240Y-13044560D02*
G75*
G03*
X12847240Y-12944560I0J50000D01*
G01*
X11567240Y-12944560D02*
G75*
G03*
X11567240Y-13044560I0J-50000D01*
G01*
X12462280Y-6099500D02*
X12582280Y-6219500D01*
X12582280Y-6099500D02*
X12462280Y-6219500D01*
X12472280Y-5519500D02*
X12472280Y-6799500D01*
X12572280Y-5519500D02*
X12572280Y-6799500D01*
X12472280Y-6799500D02*
G75*
G03*
X12572280Y-6799500I50000J0D01*
G01*
X12572280Y-5519500D02*
G75*
G03*
X12472280Y-5519500I-50000J0D01*
G01*
X12462280Y-8007040D02*
X12582280Y-8127040D01*
X12582280Y-8007040D02*
X12462280Y-8127040D01*
X12472280Y-7427040D02*
X12472280Y-8707040D01*
X12572280Y-7427040D02*
X12572280Y-8707040D01*
X12472280Y-8707040D02*
G75*
G03*
X12572280Y-8707040I50000J0D01*
G01*
X12572280Y-7427040D02*
G75*
G03*
X12472280Y-7427040I-50000J0D01*
G01*
X12462280Y-9914580D02*
X12582280Y-10034580D01*
X12582280Y-9914580D02*
X12462280Y-10034580D01*
X12472280Y-9334580D02*
X12472280Y-10614580D01*
X12572280Y-9334580D02*
X12572280Y-10614580D01*
X12472280Y-10614580D02*
G75*
G03*
X12572280Y-10614580I50000J0D01*
G01*
X12572280Y-9334580D02*
G75*
G03*
X12472280Y-9334580I-50000J0D01*
G01*
X12787240Y-12293560D02*
X12907240Y-12413560D01*
X12907240Y-12293560D02*
X12787240Y-12413560D01*
X12797240Y-11713560D02*
X12797240Y-12993560D01*
X12897240Y-11713560D02*
X12897240Y-12993560D01*
X12797240Y-12993560D02*
G75*
G03*
X12897240Y-12993560I50000J0D01*
G01*
X12897240Y-11713560D02*
G75*
G03*
X12797240Y-11713560I-50000J0D01*
G01*
X13102280Y-5459500D02*
X13222280Y-5579500D01*
X13222280Y-5459500D02*
X13102280Y-5579500D01*
X12522280Y-5569500D02*
X13802280Y-5569500D01*
X12522280Y-5469500D02*
X13802280Y-5469500D01*
X13802280Y-5569500D02*
G75*
G03*
X13802280Y-5469500I0J50000D01*
G01*
X12522280Y-5469500D02*
G75*
G03*
X12522280Y-5569500I0J-50000D01*
G01*
X13102280Y-6739500D02*
X13222280Y-6859500D01*
X13222280Y-6739500D02*
X13102280Y-6859500D01*
X12522280Y-6849500D02*
X13802280Y-6849500D01*
X12522280Y-6749500D02*
X13802280Y-6749500D01*
X13802280Y-6849500D02*
G75*
G03*
X13802280Y-6749500I0J50000D01*
G01*
X12522280Y-6749500D02*
G75*
G03*
X12522280Y-6849500I0J-50000D01*
G01*
X13102280Y-7367040D02*
X13222280Y-7487040D01*
X13222280Y-7367040D02*
X13102280Y-7487040D01*
X12522280Y-7477040D02*
X13802280Y-7477040D01*
X12522280Y-7377040D02*
X13802280Y-7377040D01*
X13802280Y-7477040D02*
G75*
G03*
X13802280Y-7377040I0J50000D01*
G01*
X12522280Y-7377040D02*
G75*
G03*
X12522280Y-7477040I0J-50000D01*
G01*
X13102280Y-8647040D02*
X13222280Y-8767040D01*
X13222280Y-8647040D02*
X13102280Y-8767040D01*
X12522280Y-8757040D02*
X13802280Y-8757040D01*
X12522280Y-8657040D02*
X13802280Y-8657040D01*
X13802280Y-8757040D02*
G75*
G03*
X13802280Y-8657040I0J50000D01*
G01*
X12522280Y-8657040D02*
G75*
G03*
X12522280Y-8757040I0J-50000D01*
G01*
X13102280Y-9274580D02*
X13222280Y-9394580D01*
X13222280Y-9274580D02*
X13102280Y-9394580D01*
X12522280Y-9384580D02*
X13802280Y-9384580D01*
X12522280Y-9284580D02*
X13802280Y-9284580D01*
X13802280Y-9384580D02*
G75*
G03*
X13802280Y-9284580I0J50000D01*
G01*
X12522280Y-9284580D02*
G75*
G03*
X12522280Y-9384580I0J-50000D01*
G01*
X13102280Y-10554580D02*
X13222280Y-10674580D01*
X13222280Y-10554580D02*
X13102280Y-10674580D01*
X12522280Y-10664580D02*
X13802280Y-10664580D01*
X12522280Y-10564580D02*
X13802280Y-10564580D01*
X13802280Y-10664580D02*
G75*
G03*
X13802280Y-10564580I0J50000D01*
G01*
X12522280Y-10564580D02*
G75*
G03*
X12522280Y-10664580I0J-50000D01*
G01*
X13412240Y-12297100D02*
X13532240Y-12417100D01*
X13532240Y-12297100D02*
X13412240Y-12417100D01*
X13422240Y-11717100D02*
X13422240Y-12997100D01*
X13522240Y-11717100D02*
X13522240Y-12997100D01*
X13422240Y-12997100D02*
G75*
G03*
X13522240Y-12997100I50000J0D01*
G01*
X13522240Y-11717100D02*
G75*
G03*
X13422240Y-11717100I-50000J0D01*
G01*
X13742280Y-6098500D02*
X13862280Y-6218500D01*
X13862280Y-6098500D02*
X13742280Y-6218500D01*
X13752280Y-5518500D02*
X13752280Y-6798500D01*
X13852280Y-5518500D02*
X13852280Y-6798500D01*
X13752280Y-6798500D02*
G75*
G03*
X13852280Y-6798500I50000J0D01*
G01*
X13852280Y-5518500D02*
G75*
G03*
X13752280Y-5518500I-50000J0D01*
G01*
X13742280Y-8006040D02*
X13862280Y-8126040D01*
X13862280Y-8006040D02*
X13742280Y-8126040D01*
X13752280Y-7426040D02*
X13752280Y-8706040D01*
X13852280Y-7426040D02*
X13852280Y-8706040D01*
X13752280Y-8706040D02*
G75*
G03*
X13852280Y-8706040I50000J0D01*
G01*
X13852280Y-7426040D02*
G75*
G03*
X13752280Y-7426040I-50000J0D01*
G01*
X13742280Y-9913580D02*
X13862280Y-10033580D01*
X13862280Y-9913580D02*
X13742280Y-10033580D01*
X13752280Y-9333580D02*
X13752280Y-10613580D01*
X13852280Y-9333580D02*
X13852280Y-10613580D01*
X13752280Y-10613580D02*
G75*
G03*
X13852280Y-10613580I50000J0D01*
G01*
X13852280Y-9333580D02*
G75*
G03*
X13752280Y-9333580I-50000J0D01*
G01*
X14052240Y-11657100D02*
X14172240Y-11777100D01*
X14172240Y-11657100D02*
X14052240Y-11777100D01*
X13472240Y-11767100D02*
X14752240Y-11767100D01*
X13472240Y-11667100D02*
X14752240Y-11667100D01*
X14752240Y-11767100D02*
G75*
G03*
X14752240Y-11667100I0J50000D01*
G01*
X13472240Y-11667100D02*
G75*
G03*
X13472240Y-11767100I0J-50000D01*
G01*
X14052240Y-12937100D02*
X14172240Y-13057100D01*
X14172240Y-12937100D02*
X14052240Y-13057100D01*
X13472240Y-13047100D02*
X14752240Y-13047100D01*
X13472240Y-12947100D02*
X14752240Y-12947100D01*
X14752240Y-13047100D02*
G75*
G03*
X14752240Y-12947100I0J50000D01*
G01*
X13472240Y-12947100D02*
G75*
G03*
X13472240Y-13047100I0J-50000D01*
G01*
X14364740Y-6577020D02*
X14484740Y-6697020D01*
X14484740Y-6577020D02*
X14364740Y-6697020D01*
X14374740Y-5997020D02*
X14374740Y-7277020D01*
X14474740Y-5997020D02*
X14474740Y-7277020D01*
X14374740Y-7277020D02*
G75*
G03*
X14474740Y-7277020I50000J0D01*
G01*
X14474740Y-5997020D02*
G75*
G03*
X14374740Y-5997020I-50000J0D01*
G01*
X14364740Y-8484560D02*
X14484740Y-8604560D01*
X14484740Y-8484560D02*
X14364740Y-8604560D01*
X14374740Y-7904560D02*
X14374740Y-9184560D01*
X14474740Y-7904560D02*
X14474740Y-9184560D01*
X14374740Y-9184560D02*
G75*
G03*
X14474740Y-9184560I50000J0D01*
G01*
X14474740Y-7904560D02*
G75*
G03*
X14374740Y-7904560I-50000J0D01*
G01*
X14364740Y-10392100D02*
X14484740Y-10512100D01*
X14484740Y-10392100D02*
X14364740Y-10512100D01*
X14374740Y-9812100D02*
X14374740Y-11092100D01*
X14474740Y-9812100D02*
X14474740Y-11092100D01*
X14374740Y-11092100D02*
G75*
G03*
X14474740Y-11092100I50000J0D01*
G01*
X14474740Y-9812100D02*
G75*
G03*
X14374740Y-9812100I-50000J0D01*
G01*
X14692240Y-12296100D02*
X14812240Y-12416100D01*
X14812240Y-12296100D02*
X14692240Y-12416100D01*
X14702240Y-11716100D02*
X14702240Y-12996100D01*
X14802240Y-11716100D02*
X14802240Y-12996100D01*
X14702240Y-12996100D02*
G75*
G03*
X14802240Y-12996100I50000J0D01*
G01*
X14802240Y-11716100D02*
G75*
G03*
X14702240Y-11716100I-50000J0D01*
G01*
X15004740Y-5937020D02*
X15124740Y-6057020D01*
X15124740Y-5937020D02*
X15004740Y-6057020D01*
X14424740Y-6047020D02*
X15704740Y-6047020D01*
X14424740Y-5947020D02*
X15704740Y-5947020D01*
X15704740Y-6047020D02*
G75*
G03*
X15704740Y-5947020I0J50000D01*
G01*
X14424740Y-5947020D02*
G75*
G03*
X14424740Y-6047020I0J-50000D01*
G01*
X15004740Y-7217020D02*
X15124740Y-7337020D01*
X15124740Y-7217020D02*
X15004740Y-7337020D01*
X14424740Y-7327020D02*
X15704740Y-7327020D01*
X14424740Y-7227020D02*
X15704740Y-7227020D01*
X15704740Y-7327020D02*
G75*
G03*
X15704740Y-7227020I0J50000D01*
G01*
X14424740Y-7227020D02*
G75*
G03*
X14424740Y-7327020I0J-50000D01*
G01*
X15004740Y-7844560D02*
X15124740Y-7964560D01*
X15124740Y-7844560D02*
X15004740Y-7964560D01*
X14424740Y-7954560D02*
X15704740Y-7954560D01*
X14424740Y-7854560D02*
X15704740Y-7854560D01*
X15704740Y-7954560D02*
G75*
G03*
X15704740Y-7854560I0J50000D01*
G01*
X14424740Y-7854560D02*
G75*
G03*
X14424740Y-7954560I0J-50000D01*
G01*
X15004740Y-9124560D02*
X15124740Y-9244560D01*
X15124740Y-9124560D02*
X15004740Y-9244560D01*
X14424740Y-9234560D02*
X15704740Y-9234560D01*
X14424740Y-9134560D02*
X15704740Y-9134560D01*
X15704740Y-9234560D02*
G75*
G03*
X15704740Y-9134560I0J50000D01*
G01*
X14424740Y-9134560D02*
G75*
G03*
X14424740Y-9234560I0J-50000D01*
G01*
X15004740Y-9752100D02*
X15124740Y-9872100D01*
X15124740Y-9752100D02*
X15004740Y-9872100D01*
X14424740Y-9862100D02*
X15704740Y-9862100D01*
X14424740Y-9762100D02*
X15704740Y-9762100D01*
X15704740Y-9862100D02*
G75*
G03*
X15704740Y-9762100I0J50000D01*
G01*
X14424740Y-9762100D02*
G75*
G03*
X14424740Y-9862100I0J-50000D01*
G01*
X15004740Y-11032100D02*
X15124740Y-11152100D01*
X15124740Y-11032100D02*
X15004740Y-11152100D01*
X14424740Y-11142100D02*
X15704740Y-11142100D01*
X14424740Y-11042100D02*
X15704740Y-11042100D01*
X15704740Y-11142100D02*
G75*
G03*
X15704740Y-11042100I0J50000D01*
G01*
X14424740Y-11042100D02*
G75*
G03*
X14424740Y-11142100I0J-50000D01*
G01*
X15549867Y-12433716D02*
X15669867Y-12553716D01*
X15669867Y-12433716D02*
X15549867Y-12553716D01*
X15727215Y-11862582D02*
X15395927Y-13098967D01*
X15823808Y-11888464D02*
X15492520Y-13124849D01*
X15395927Y-13098967D02*
G75*
G03*
X15492520Y-13124849I48296J-12941D01*
G01*
X15823808Y-11888464D02*
G75*
G03*
X15727215Y-11862582I-48296J12941D01*
G01*
X15644740Y-6576020D02*
X15764740Y-6696020D01*
X15764740Y-6576020D02*
X15644740Y-6696020D01*
X15654740Y-5996020D02*
X15654740Y-7276020D01*
X15754740Y-5996020D02*
X15754740Y-7276020D01*
X15654740Y-7276020D02*
G75*
G03*
X15754740Y-7276020I50000J0D01*
G01*
X15754740Y-5996020D02*
G75*
G03*
X15654740Y-5996020I-50000J0D01*
G01*
X15644740Y-8483560D02*
X15764740Y-8603560D01*
X15764740Y-8483560D02*
X15644740Y-8603560D01*
X15654740Y-7903560D02*
X15654740Y-9183560D01*
X15754740Y-7903560D02*
X15754740Y-9183560D01*
X15654740Y-9183560D02*
G75*
G03*
X15754740Y-9183560I50000J0D01*
G01*
X15754740Y-7903560D02*
G75*
G03*
X15654740Y-7903560I-50000J0D01*
G01*
X15644740Y-10391100D02*
X15764740Y-10511100D01*
X15764740Y-10391100D02*
X15644740Y-10511100D01*
X15654740Y-9811100D02*
X15654740Y-11091100D01*
X15754740Y-9811100D02*
X15754740Y-11091100D01*
X15654740Y-11091100D02*
G75*
G03*
X15754740Y-11091100I50000J0D01*
G01*
X15754740Y-9811100D02*
G75*
G03*
X15654740Y-9811100I-50000J0D01*
G01*
X16002416Y-13217552D02*
X16122416Y-13337552D01*
X16122416Y-13217552D02*
X16002416Y-13337552D01*
X15431282Y-13160205D02*
X16667667Y-13491493D01*
X15457164Y-13063612D02*
X16693549Y-13394900D01*
X16667667Y-13491493D02*
G75*
G03*
X16693549Y-13394900I12941J48296D01*
G01*
X15457164Y-13063612D02*
G75*
G03*
X15431282Y-13160205I-12941J-48296D01*
G01*
X16267200Y-6815780D02*
X16387200Y-6935780D01*
X16387200Y-6815780D02*
X16267200Y-6935780D01*
X16277200Y-6235780D02*
X16277200Y-7515780D01*
X16377200Y-6235780D02*
X16377200Y-7515780D01*
X16277200Y-7515780D02*
G75*
G03*
X16377200Y-7515780I50000J0D01*
G01*
X16377200Y-6235780D02*
G75*
G03*
X16277200Y-6235780I-50000J0D01*
G01*
X16267200Y-8723320D02*
X16387200Y-8843320D01*
X16387200Y-8723320D02*
X16267200Y-8843320D01*
X16277200Y-8143320D02*
X16277200Y-9423320D01*
X16377200Y-8143320D02*
X16377200Y-9423320D01*
X16277200Y-9423320D02*
G75*
G03*
X16377200Y-9423320I50000J0D01*
G01*
X16377200Y-8143320D02*
G75*
G03*
X16277200Y-8143320I-50000J0D01*
G01*
X16267200Y-10630860D02*
X16387200Y-10750860D01*
X16387200Y-10630860D02*
X16267200Y-10750860D01*
X16277200Y-10050860D02*
X16277200Y-11330860D01*
X16377200Y-10050860D02*
X16377200Y-11330860D01*
X16277200Y-11330860D02*
G75*
G03*
X16377200Y-11330860I50000J0D01*
G01*
X16377200Y-10050860D02*
G75*
G03*
X16277200Y-10050860I-50000J0D01*
G01*
X16333704Y-11981167D02*
X16453704Y-12101167D01*
X16453704Y-11981167D02*
X16333704Y-12101167D01*
X15762571Y-11923820D02*
X16998956Y-12255108D01*
X15788453Y-11827227D02*
X17024838Y-12158515D01*
X16998956Y-12255108D02*
G75*
G03*
X17024838Y-12158515I12941J48296D01*
G01*
X15788453Y-11827227D02*
G75*
G03*
X15762571Y-11923820I-12941J-48296D01*
G01*
X16786511Y-12764038D02*
X16906511Y-12884038D01*
X16906511Y-12764038D02*
X16786511Y-12884038D01*
X16963859Y-12192905D02*
X16632571Y-13429290D01*
X17060452Y-12218787D02*
X16729163Y-13455172D01*
X16632571Y-13429290D02*
G75*
G03*
X16729163Y-13455172I48296J-12941D01*
G01*
X17060452Y-12218787D02*
G75*
G03*
X16963859Y-12192905I-48296J12941D01*
G01*
X16907200Y-6175780D02*
X17027200Y-6295780D01*
X17027200Y-6175780D02*
X16907200Y-6295780D01*
X16327200Y-6285780D02*
X17607200Y-6285780D01*
X16327200Y-6185780D02*
X17607200Y-6185780D01*
X17607200Y-6285780D02*
G75*
G03*
X17607200Y-6185780I0J50000D01*
G01*
X16327200Y-6185780D02*
G75*
G03*
X16327200Y-6285780I0J-50000D01*
G01*
X16907200Y-7455780D02*
X17027200Y-7575780D01*
X17027200Y-7455780D02*
X16907200Y-7575780D01*
X16327200Y-7565780D02*
X17607200Y-7565780D01*
X16327200Y-7465780D02*
X17607200Y-7465780D01*
X17607200Y-7565780D02*
G75*
G03*
X17607200Y-7465780I0J50000D01*
G01*
X16327200Y-7465780D02*
G75*
G03*
X16327200Y-7565780I0J-50000D01*
G01*
X16907200Y-8083320D02*
X17027200Y-8203320D01*
X17027200Y-8083320D02*
X16907200Y-8203320D01*
X16327200Y-8193320D02*
X17607200Y-8193320D01*
X16327200Y-8093320D02*
X17607200Y-8093320D01*
X17607200Y-8193320D02*
G75*
G03*
X17607200Y-8093320I0J50000D01*
G01*
X16327200Y-8093320D02*
G75*
G03*
X16327200Y-8193320I0J-50000D01*
G01*
X16907200Y-9363320D02*
X17027200Y-9483320D01*
X17027200Y-9363320D02*
X16907200Y-9483320D01*
X16327200Y-9473320D02*
X17607200Y-9473320D01*
X16327200Y-9373320D02*
X17607200Y-9373320D01*
X17607200Y-9473320D02*
G75*
G03*
X17607200Y-9373320I0J50000D01*
G01*
X16327200Y-9373320D02*
G75*
G03*
X16327200Y-9473320I0J-50000D01*
G01*
X16907200Y-9990860D02*
X17027200Y-10110860D01*
X17027200Y-9990860D02*
X16907200Y-10110860D01*
X16327200Y-10100860D02*
X17607200Y-10100860D01*
X16327200Y-10000860D02*
X17607200Y-10000860D01*
X17607200Y-10100860D02*
G75*
G03*
X17607200Y-10000860I0J50000D01*
G01*
X16327200Y-10000860D02*
G75*
G03*
X16327200Y-10100860I0J-50000D01*
G01*
X16907200Y-11270860D02*
X17027200Y-11390860D01*
X17027200Y-11270860D02*
X16907200Y-11390860D01*
X16327200Y-11380860D02*
X17607200Y-11380860D01*
X16327200Y-11280860D02*
X17607200Y-11280860D01*
X17607200Y-11380860D02*
G75*
G03*
X17607200Y-11280860I0J50000D01*
G01*
X16327200Y-11280860D02*
G75*
G03*
X16327200Y-11380860I0J-50000D01*
G01*
X17547200Y-6814780D02*
X17667200Y-6934780D01*
X17667200Y-6814780D02*
X17547200Y-6934780D01*
X17557200Y-6234780D02*
X17557200Y-7514780D01*
X17657200Y-6234780D02*
X17657200Y-7514780D01*
X17557200Y-7514780D02*
G75*
G03*
X17657200Y-7514780I50000J0D01*
G01*
X17657200Y-6234780D02*
G75*
G03*
X17557200Y-6234780I-50000J0D01*
G01*
X17547200Y-8722320D02*
X17667200Y-8842320D01*
X17667200Y-8722320D02*
X17547200Y-8842320D01*
X17557200Y-8142320D02*
X17557200Y-9422320D01*
X17657200Y-8142320D02*
X17657200Y-9422320D01*
X17557200Y-9422320D02*
G75*
G03*
X17657200Y-9422320I50000J0D01*
G01*
X17657200Y-8142320D02*
G75*
G03*
X17557200Y-8142320I-50000J0D01*
G01*
X17547200Y-10629860D02*
X17667200Y-10749860D01*
X17667200Y-10629860D02*
X17547200Y-10749860D01*
X17557200Y-10049860D02*
X17557200Y-11329860D01*
X17657200Y-10049860D02*
X17657200Y-11329860D01*
X17557200Y-11329860D02*
G75*
G03*
X17657200Y-11329860I50000J0D01*
G01*
X17657200Y-10049860D02*
G75*
G03*
X17557200Y-10049860I-50000J0D01*
G01*
X17567064Y-13107400D02*
X17687064Y-13227400D01*
X17687064Y-13107400D02*
X17567064Y-13227400D01*
X17903762Y-12588144D02*
X17263762Y-13696656D01*
X17990365Y-12638144D02*
X17350365Y-13746656D01*
X17263762Y-13696656D02*
G75*
G03*
X17350365Y-13746656I43301J-25000D01*
G01*
X17990365Y-12638144D02*
G75*
G03*
X17903762Y-12588144I-43301J25000D01*
G01*
X17801320Y-13981656D02*
X17921320Y-14101656D01*
X17921320Y-13981656D02*
X17801320Y-14101656D01*
X17282064Y-13764958D02*
X18390576Y-14404958D01*
X17332064Y-13678355D02*
X18440576Y-14318355D01*
X18390576Y-14404958D02*
G75*
G03*
X18440576Y-14318355I25000J43301D01*
G01*
X17332064Y-13678355D02*
G75*
G03*
X17282064Y-13764958I-25000J-43301D01*
G01*
X18441320Y-12873144D02*
X18561320Y-12993144D01*
X18561320Y-12873144D02*
X18441320Y-12993144D01*
X17922064Y-12656445D02*
X19030576Y-13296445D01*
X17972064Y-12569842D02*
X19080576Y-13209842D01*
X19030576Y-13296445D02*
G75*
G03*
X19080576Y-13209842I25000J43301D01*
G01*
X17972064Y-12569842D02*
G75*
G03*
X17922064Y-12656445I-25000J-43301D01*
G01*
X18676076Y-13746534D02*
X18796076Y-13866534D01*
X18796076Y-13746534D02*
X18676076Y-13866534D01*
X19012775Y-13227278D02*
X18372775Y-14335790D01*
X19099378Y-13277278D02*
X18459378Y-14385790D01*
X18372775Y-14335790D02*
G75*
G03*
X18459378Y-14385790I43301J-25000D01*
G01*
X19099378Y-13277278D02*
G75*
G03*
X19012775Y-13227278I-43301J25000D01*
G01*
X18948824Y-10712180D02*
X19068824Y-10832180D01*
X19068824Y-10712180D02*
X18948824Y-10832180D01*
X19285522Y-10192924D02*
X18645522Y-11301436D01*
X19372125Y-10242924D02*
X18732125Y-11351436D01*
X18645522Y-11301436D02*
G75*
G03*
X18732125Y-11351436I43301J-25000D01*
G01*
X19372125Y-10242924D02*
G75*
G03*
X19285522Y-10192924I-43301J25000D01*
G01*
X19183080Y-11586436D02*
X19303080Y-11706436D01*
X19303080Y-11586436D02*
X19183080Y-11706436D01*
X18663824Y-11369738D02*
X19772336Y-12009738D01*
X18713824Y-11283135D02*
X19822336Y-11923135D01*
X19772336Y-12009738D02*
G75*
G03*
X19822336Y-11923135I25000J43301D01*
G01*
X18713824Y-11283135D02*
G75*
G03*
X18663824Y-11369738I-25000J-43301D01*
G01*
X19670292Y-13970532D02*
X19790292Y-14090532D01*
X19790292Y-13970532D02*
X19670292Y-14090532D01*
X20147485Y-13542628D02*
X19242388Y-14447725D01*
X20218195Y-13613339D02*
X19313099Y-14518435D01*
X19242388Y-14447725D02*
G75*
G03*
X19313099Y-14518435I35355J-35355D01*
G01*
X20218195Y-13613339D02*
G75*
G03*
X20147485Y-13542628I-35355J35355D01*
G01*
X19670292Y-14875628D02*
X19790292Y-14995628D01*
X19790292Y-14875628D02*
X19670292Y-14995628D01*
X19242388Y-14518435D02*
X20147485Y-15423532D01*
X19313099Y-14447725D02*
X20218195Y-15352821D01*
X20147485Y-15423532D02*
G75*
G03*
X20218195Y-15352821I35355J35355D01*
G01*
X19313099Y-14447725D02*
G75*
G03*
X19242388Y-14518435I-35355J-35355D01*
G01*
X19823080Y-10477924D02*
X19943080Y-10597924D01*
X19943080Y-10477924D02*
X19823080Y-10597924D01*
X19303824Y-10261225D02*
X20412336Y-10901225D01*
X19353824Y-10174622D02*
X20462336Y-10814622D01*
X20412336Y-10901225D02*
G75*
G03*
X20462336Y-10814622I25000J43301D01*
G01*
X19353824Y-10174622D02*
G75*
G03*
X19303824Y-10261225I-25000J-43301D01*
G01*
X20057836Y-11351314D02*
X20177836Y-11471314D01*
X20177836Y-11351314D02*
X20057836Y-11471314D01*
X20394535Y-10832058D02*
X19754535Y-11940570D01*
X20481138Y-10882058D02*
X19841138Y-11990570D01*
X19754535Y-11940570D02*
G75*
G03*
X19841138Y-11990570I43301J-25000D01*
G01*
X20481138Y-10882058D02*
G75*
G03*
X20394535Y-10832058I-43301J25000D01*
G01*
X20575388Y-13970532D02*
X20695388Y-14090532D01*
X20695388Y-13970532D02*
X20575388Y-14090532D01*
X20147485Y-13613339D02*
X21052581Y-14518435D01*
X20218195Y-13542628D02*
X21123292Y-14447725D01*
X21052581Y-14518435D02*
G75*
G03*
X21123292Y-14447725I35355J35355D01*
G01*
X20218195Y-13542628D02*
G75*
G03*
X20147485Y-13613339I-35355J-35355D01*
G01*
X20576095Y-14874921D02*
X20696095Y-14994921D01*
X20696095Y-14874921D02*
X20576095Y-14994921D01*
X21053288Y-14447017D02*
X20148192Y-15352114D01*
X21123999Y-14517728D02*
X20218902Y-15422825D01*
X20148192Y-15352114D02*
G75*
G03*
X20218902Y-15422825I35355J-35355D01*
G01*
X21123999Y-14517728D02*
G75*
G03*
X21053288Y-14447018I-35355J35355D01*
G01*
X5639580Y-10698480D02*
G75*
G03*
X5639580Y-10698480I-110000J0D01*
G01*
X8502160Y-8554720D02*
G75*
G03*
X8502160Y-8554720I-110000J0D01*
G01*
X10917700Y-11790680D02*
G75*
G03*
X10917700Y-11790680I-110000J0D01*
G01*
X11926080Y-7592060D02*
G75*
G03*
X11926080Y-7592060I-110000J0D01*
G01*
X15418580Y-11595100D02*
G75*
G03*
X15418580Y-11595100I-110000J0D01*
G01*
X16104380Y-7622540D02*
G75*
G03*
X16104380Y-7622540I-110000J0D01*
G01*
X18347200Y-9606280D02*
G75*
G03*
X18347200Y-9606280I-110000J0D01*
G01*
X19942320Y-13058140D02*
G75*
G03*
X19942320Y-13058140I-110000J0D01*
G01*
D12*
X4815853Y-16676309D02*
X4815853Y-16376309D01*
X4887282Y-16376309D01*
X4930139Y-16390594D01*
X4958711Y-16419166D01*
X4972996Y-16447737D01*
X4987282Y-16504880D01*
X4987282Y-16547737D01*
X4972996Y-16604880D01*
X4958711Y-16633451D01*
X4930139Y-16662023D01*
X4887282Y-16676309D01*
X4815853Y-16676309D01*
X5115853Y-16676309D02*
X5115853Y-16476309D01*
X5115853Y-16533451D02*
X5130139Y-16504880D01*
X5144425Y-16490594D01*
X5172996Y-16476309D01*
X5201568Y-16476309D01*
X5301568Y-16676309D02*
X5301568Y-16476309D01*
X5301568Y-16376309D02*
X5287282Y-16390594D01*
X5301568Y-16404880D01*
X5315853Y-16390594D01*
X5301568Y-16376309D01*
X5301568Y-16404880D01*
X5487282Y-16676309D02*
X5458711Y-16662023D01*
X5444425Y-16633451D01*
X5444425Y-16376309D01*
X5644425Y-16676309D02*
X5615853Y-16662023D01*
X5601568Y-16633451D01*
X5601568Y-16376309D01*
X5987282Y-16676309D02*
X5987282Y-16376309D01*
X6087282Y-16590594D01*
X6187282Y-16376309D01*
X6187282Y-16676309D01*
X6458711Y-16676309D02*
X6458711Y-16519166D01*
X6444425Y-16490594D01*
X6415853Y-16476309D01*
X6358711Y-16476309D01*
X6330139Y-16490594D01*
X6458711Y-16662023D02*
X6430139Y-16676309D01*
X6358711Y-16676309D01*
X6330139Y-16662023D01*
X6315853Y-16633451D01*
X6315853Y-16604880D01*
X6330139Y-16576309D01*
X6358711Y-16562023D01*
X6430139Y-16562023D01*
X6458711Y-16547737D01*
X6601568Y-16476309D02*
X6601568Y-16776309D01*
X6601568Y-16490594D02*
X6630139Y-16476309D01*
X6687282Y-16476309D01*
X6715853Y-16490594D01*
X6730139Y-16504880D01*
X6744425Y-16533451D01*
X6744425Y-16619166D01*
X6730139Y-16647737D01*
X6715853Y-16662023D01*
X6687282Y-16676309D01*
X6630139Y-16676309D01*
X6601568Y-16662023D01*
X6872996Y-16647737D02*
X6887282Y-16662023D01*
X6872996Y-16676309D01*
X6858711Y-16662023D01*
X6872996Y-16647737D01*
X6872996Y-16676309D01*
X6872996Y-16490594D02*
X6887282Y-16504880D01*
X6872996Y-16519166D01*
X6858711Y-16504880D01*
X6872996Y-16490594D01*
X6872996Y-16519166D01*
X4409425Y-17110594D02*
X4529425Y-17230594D01*
X4529425Y-17110594D02*
X4409425Y-17230594D01*
X4972996Y-17306309D02*
X4801568Y-17306309D01*
X4887282Y-17306309D02*
X4887282Y-17006309D01*
X4858711Y-17049166D01*
X4830139Y-17077737D01*
X4801568Y-17092023D01*
X5101568Y-17277737D02*
X5115853Y-17292023D01*
X5101568Y-17306309D01*
X5087282Y-17292023D01*
X5101568Y-17277737D01*
X5101568Y-17306309D01*
X5230139Y-17034880D02*
X5244425Y-17020594D01*
X5272996Y-17006309D01*
X5344425Y-17006309D01*
X5372996Y-17020594D01*
X5387282Y-17034880D01*
X5401568Y-17063452D01*
X5401568Y-17092023D01*
X5387282Y-17134880D01*
X5215853Y-17306309D01*
X5401568Y-17306309D01*
X5587282Y-17006309D02*
X5615853Y-17006309D01*
X5644425Y-17020594D01*
X5658711Y-17034880D01*
X5672996Y-17063452D01*
X5687282Y-17120594D01*
X5687282Y-17192023D01*
X5672996Y-17249166D01*
X5658711Y-17277737D01*
X5644425Y-17292023D01*
X5615853Y-17306309D01*
X5587282Y-17306309D01*
X5558711Y-17292023D01*
X5544425Y-17277737D01*
X5530139Y-17249166D01*
X5515853Y-17192023D01*
X5515853Y-17120594D01*
X5530139Y-17063452D01*
X5544425Y-17034880D01*
X5558711Y-17020594D01*
X5587282Y-17006309D01*
X5872996Y-17006309D02*
X5901568Y-17006309D01*
X5930139Y-17020594D01*
X5944425Y-17034880D01*
X5958711Y-17063452D01*
X5972996Y-17120594D01*
X5972996Y-17192023D01*
X5958711Y-17249166D01*
X5944425Y-17277737D01*
X5930139Y-17292023D01*
X5901568Y-17306309D01*
X5872996Y-17306309D01*
X5844425Y-17292023D01*
X5830139Y-17277737D01*
X5815853Y-17249166D01*
X5801568Y-17192023D01*
X5801568Y-17120594D01*
X5815853Y-17063452D01*
X5830139Y-17034880D01*
X5844425Y-17020594D01*
X5872996Y-17006309D01*
X6101568Y-17306309D02*
X6101568Y-17106309D01*
X6101568Y-17134880D02*
X6115853Y-17120594D01*
X6144425Y-17106309D01*
X6187282Y-17106309D01*
X6215853Y-17120594D01*
X6230139Y-17149166D01*
X6230139Y-17306309D01*
X6230139Y-17149166D02*
X6244425Y-17120594D01*
X6272996Y-17106309D01*
X6315853Y-17106309D01*
X6344425Y-17120594D01*
X6358711Y-17149166D01*
X6358711Y-17306309D01*
X6501568Y-17306309D02*
X6501568Y-17106309D01*
X6501568Y-17134880D02*
X6515853Y-17120594D01*
X6544425Y-17106309D01*
X6587282Y-17106309D01*
X6615853Y-17120594D01*
X6630139Y-17149166D01*
X6630139Y-17306309D01*
X6630139Y-17149166D02*
X6644425Y-17120594D01*
X6672996Y-17106309D01*
X6715853Y-17106309D01*
X6744425Y-17120594D01*
X6758711Y-17149166D01*
X6758711Y-17306309D01*
X7344425Y-16992023D02*
X7087282Y-17377737D01*
X7730139Y-17006309D02*
X7758711Y-17006309D01*
X7787282Y-17020594D01*
X7801568Y-17034880D01*
X7815853Y-17063452D01*
X7830139Y-17120594D01*
X7830139Y-17192023D01*
X7815853Y-17249166D01*
X7801568Y-17277737D01*
X7787282Y-17292023D01*
X7758711Y-17306309D01*
X7730139Y-17306309D01*
X7701568Y-17292023D01*
X7687282Y-17277737D01*
X7672996Y-17249166D01*
X7658711Y-17192023D01*
X7658711Y-17120594D01*
X7672996Y-17063452D01*
X7687282Y-17034880D01*
X7701568Y-17020594D01*
X7730139Y-17006309D01*
X7958711Y-17277737D02*
X7972996Y-17292023D01*
X7958711Y-17306309D01*
X7944425Y-17292023D01*
X7958711Y-17277737D01*
X7958711Y-17306309D01*
X8158711Y-17006309D02*
X8187282Y-17006309D01*
X8215853Y-17020594D01*
X8230139Y-17034880D01*
X8244425Y-17063452D01*
X8258711Y-17120594D01*
X8258711Y-17192023D01*
X8244425Y-17249166D01*
X8230139Y-17277737D01*
X8215853Y-17292023D01*
X8187282Y-17306309D01*
X8158711Y-17306309D01*
X8130139Y-17292023D01*
X8115853Y-17277737D01*
X8101568Y-17249166D01*
X8087282Y-17192023D01*
X8087282Y-17120594D01*
X8101568Y-17063452D01*
X8115853Y-17034880D01*
X8130139Y-17020594D01*
X8158711Y-17006309D01*
X8515853Y-17106309D02*
X8515853Y-17306309D01*
X8444425Y-16992023D02*
X8372996Y-17206309D01*
X8558711Y-17206309D01*
X8644425Y-17006309D02*
X8844425Y-17006309D01*
X8715853Y-17306309D01*
X8944425Y-17034880D02*
X8958711Y-17020594D01*
X8987282Y-17006309D01*
X9058711Y-17006309D01*
X9087282Y-17020594D01*
X9101568Y-17034880D01*
X9115853Y-17063452D01*
X9115853Y-17092023D01*
X9101568Y-17134880D01*
X8930139Y-17306309D01*
X9115853Y-17306309D01*
X9230139Y-17006309D02*
X9230139Y-17063452D01*
X9344425Y-17006309D02*
X9344425Y-17063452D01*
X9787282Y-17420594D02*
X9772996Y-17406309D01*
X9744425Y-17363452D01*
X9730139Y-17334880D01*
X9715853Y-17292023D01*
X9701568Y-17220594D01*
X9701568Y-17163452D01*
X9715853Y-17092023D01*
X9730139Y-17049166D01*
X9744425Y-17020594D01*
X9772996Y-16977737D01*
X9787282Y-16963452D01*
X9958711Y-17006309D02*
X9987282Y-17006309D01*
X10015853Y-17020594D01*
X10030139Y-17034880D01*
X10044425Y-17063452D01*
X10058711Y-17120594D01*
X10058711Y-17192023D01*
X10044425Y-17249166D01*
X10030139Y-17277737D01*
X10015853Y-17292023D01*
X9987282Y-17306309D01*
X9958711Y-17306309D01*
X9930139Y-17292023D01*
X9915853Y-17277737D01*
X9901568Y-17249166D01*
X9887282Y-17192023D01*
X9887282Y-17120594D01*
X9901568Y-17063452D01*
X9915853Y-17034880D01*
X9930139Y-17020594D01*
X9958711Y-17006309D01*
X10415853Y-17306309D02*
X10415853Y-17006309D01*
X10544425Y-17306309D02*
X10544425Y-17149166D01*
X10530139Y-17120594D01*
X10501568Y-17106309D01*
X10458711Y-17106309D01*
X10430139Y-17120594D01*
X10415853Y-17134880D01*
X10730139Y-17306309D02*
X10701568Y-17292023D01*
X10687282Y-17277737D01*
X10672996Y-17249166D01*
X10672996Y-17163452D01*
X10687282Y-17134880D01*
X10701568Y-17120594D01*
X10730139Y-17106309D01*
X10772996Y-17106309D01*
X10801568Y-17120594D01*
X10815853Y-17134880D01*
X10830139Y-17163452D01*
X10830139Y-17249166D01*
X10815853Y-17277737D01*
X10801568Y-17292023D01*
X10772996Y-17306309D01*
X10730139Y-17306309D01*
X11001568Y-17306309D02*
X10972996Y-17292023D01*
X10958711Y-17263452D01*
X10958711Y-17006309D01*
X11230139Y-17292023D02*
X11201568Y-17306309D01*
X11144425Y-17306309D01*
X11115853Y-17292023D01*
X11101568Y-17263452D01*
X11101568Y-17149166D01*
X11115853Y-17120594D01*
X11144425Y-17106309D01*
X11201568Y-17106309D01*
X11230139Y-17120594D01*
X11244425Y-17149166D01*
X11244425Y-17177737D01*
X11101568Y-17206309D01*
X11358711Y-17292023D02*
X11387282Y-17306309D01*
X11444425Y-17306309D01*
X11472996Y-17292023D01*
X11487282Y-17263452D01*
X11487282Y-17249166D01*
X11472996Y-17220594D01*
X11444425Y-17206309D01*
X11401568Y-17206309D01*
X11372996Y-17192023D01*
X11358711Y-17163452D01*
X11358711Y-17149166D01*
X11372996Y-17120594D01*
X11401568Y-17106309D01*
X11444425Y-17106309D01*
X11472996Y-17120594D01*
X11844425Y-17192023D02*
X12072996Y-17192023D01*
X11958711Y-17306309D02*
X11958711Y-17077737D01*
X12601568Y-17306309D02*
X12430139Y-17306309D01*
X12515853Y-17306309D02*
X12515853Y-17006309D01*
X12487282Y-17049166D01*
X12458711Y-17077737D01*
X12430139Y-17092023D01*
X12787282Y-17006309D02*
X12815853Y-17006309D01*
X12844425Y-17020594D01*
X12858711Y-17034880D01*
X12872996Y-17063452D01*
X12887282Y-17120594D01*
X12887282Y-17192023D01*
X12872996Y-17249166D01*
X12858711Y-17277737D01*
X12844425Y-17292023D01*
X12815853Y-17306309D01*
X12787282Y-17306309D01*
X12758711Y-17292023D01*
X12744425Y-17277737D01*
X12730139Y-17249166D01*
X12715853Y-17192023D01*
X12715853Y-17120594D01*
X12730139Y-17063452D01*
X12744425Y-17034880D01*
X12758711Y-17020594D01*
X12787282Y-17006309D01*
X13072996Y-17006309D02*
X13101568Y-17006309D01*
X13130139Y-17020594D01*
X13144425Y-17034880D01*
X13158711Y-17063452D01*
X13172996Y-17120594D01*
X13172996Y-17192023D01*
X13158711Y-17249166D01*
X13144425Y-17277737D01*
X13130139Y-17292023D01*
X13101568Y-17306309D01*
X13072996Y-17306309D01*
X13044425Y-17292023D01*
X13030139Y-17277737D01*
X13015853Y-17249166D01*
X13001568Y-17192023D01*
X13001568Y-17120594D01*
X13015853Y-17063452D01*
X13030139Y-17034880D01*
X13044425Y-17020594D01*
X13072996Y-17006309D01*
X13515853Y-17292023D02*
X13544425Y-17306309D01*
X13601568Y-17306309D01*
X13630139Y-17292023D01*
X13644425Y-17263452D01*
X13644425Y-17249166D01*
X13630139Y-17220594D01*
X13601568Y-17206309D01*
X13558711Y-17206309D01*
X13530139Y-17192023D01*
X13515853Y-17163452D01*
X13515853Y-17149166D01*
X13530139Y-17120594D01*
X13558711Y-17106309D01*
X13601568Y-17106309D01*
X13630139Y-17120594D01*
X13815853Y-17306309D02*
X13787282Y-17292023D01*
X13772996Y-17263452D01*
X13772996Y-17006309D01*
X13972996Y-17306309D02*
X13944425Y-17292023D01*
X13930139Y-17277737D01*
X13915853Y-17249166D01*
X13915853Y-17163452D01*
X13930139Y-17134880D01*
X13944425Y-17120594D01*
X13972996Y-17106309D01*
X14015853Y-17106309D01*
X14044425Y-17120594D01*
X14058711Y-17134880D01*
X14072996Y-17163452D01*
X14072996Y-17249166D01*
X14058711Y-17277737D01*
X14044425Y-17292023D01*
X14015853Y-17306309D01*
X13972996Y-17306309D01*
X14158711Y-17106309D02*
X14272996Y-17106309D01*
X14201568Y-17006309D02*
X14201568Y-17263452D01*
X14215853Y-17292023D01*
X14244425Y-17306309D01*
X14272996Y-17306309D01*
X14358711Y-17292023D02*
X14387282Y-17306309D01*
X14444425Y-17306309D01*
X14472996Y-17292023D01*
X14487282Y-17263452D01*
X14487282Y-17249166D01*
X14472996Y-17220594D01*
X14444425Y-17206309D01*
X14401568Y-17206309D01*
X14372996Y-17192023D01*
X14358711Y-17163452D01*
X14358711Y-17149166D01*
X14372996Y-17120594D01*
X14401568Y-17106309D01*
X14444425Y-17106309D01*
X14472996Y-17120594D01*
X14587282Y-17420594D02*
X14601568Y-17406309D01*
X14630139Y-17363452D01*
X14644425Y-17334880D01*
X14658711Y-17292023D01*
X14672996Y-17220594D01*
X14672996Y-17163452D01*
X14658711Y-17092023D01*
X14644425Y-17049166D01*
X14630139Y-17020594D01*
X14601568Y-16977737D01*
X14587282Y-16963452D01*
X4529425Y-17566594D02*
G75*
G03*
X4529425Y-17566594I-110000J0D01*
G01*
X4801568Y-17430880D02*
X4815853Y-17416594D01*
X4844425Y-17402309D01*
X4915853Y-17402309D01*
X4944425Y-17416594D01*
X4958711Y-17430880D01*
X4972996Y-17459452D01*
X4972996Y-17488023D01*
X4958711Y-17530880D01*
X4787282Y-17702309D01*
X4972996Y-17702309D01*
X5101568Y-17673737D02*
X5115853Y-17688023D01*
X5101568Y-17702309D01*
X5087282Y-17688023D01*
X5101568Y-17673737D01*
X5101568Y-17702309D01*
X5230139Y-17430880D02*
X5244425Y-17416594D01*
X5272996Y-17402309D01*
X5344425Y-17402309D01*
X5372996Y-17416594D01*
X5387282Y-17430880D01*
X5401568Y-17459452D01*
X5401568Y-17488023D01*
X5387282Y-17530880D01*
X5215853Y-17702309D01*
X5401568Y-17702309D01*
X5587282Y-17402309D02*
X5615853Y-17402309D01*
X5644425Y-17416594D01*
X5658711Y-17430880D01*
X5672996Y-17459452D01*
X5687282Y-17516594D01*
X5687282Y-17588023D01*
X5672996Y-17645166D01*
X5658711Y-17673737D01*
X5644425Y-17688023D01*
X5615853Y-17702309D01*
X5587282Y-17702309D01*
X5558711Y-17688023D01*
X5544425Y-17673737D01*
X5530139Y-17645166D01*
X5515853Y-17588023D01*
X5515853Y-17516594D01*
X5530139Y-17459452D01*
X5544425Y-17430880D01*
X5558711Y-17416594D01*
X5587282Y-17402309D01*
X5872996Y-17402309D02*
X5901568Y-17402309D01*
X5930139Y-17416594D01*
X5944425Y-17430880D01*
X5958711Y-17459452D01*
X5972996Y-17516594D01*
X5972996Y-17588023D01*
X5958711Y-17645166D01*
X5944425Y-17673737D01*
X5930139Y-17688023D01*
X5901568Y-17702309D01*
X5872996Y-17702309D01*
X5844425Y-17688023D01*
X5830139Y-17673737D01*
X5815853Y-17645166D01*
X5801568Y-17588023D01*
X5801568Y-17516594D01*
X5815853Y-17459452D01*
X5830139Y-17430880D01*
X5844425Y-17416594D01*
X5872996Y-17402309D01*
X6101568Y-17702309D02*
X6101568Y-17502309D01*
X6101568Y-17530880D02*
X6115853Y-17516594D01*
X6144425Y-17502309D01*
X6187282Y-17502309D01*
X6215853Y-17516594D01*
X6230139Y-17545166D01*
X6230139Y-17702309D01*
X6230139Y-17545166D02*
X6244425Y-17516594D01*
X6272996Y-17502309D01*
X6315853Y-17502309D01*
X6344425Y-17516594D01*
X6358711Y-17545166D01*
X6358711Y-17702309D01*
X6501568Y-17702309D02*
X6501568Y-17502309D01*
X6501568Y-17530880D02*
X6515853Y-17516594D01*
X6544425Y-17502309D01*
X6587282Y-17502309D01*
X6615853Y-17516594D01*
X6630139Y-17545166D01*
X6630139Y-17702309D01*
X6630139Y-17545166D02*
X6644425Y-17516594D01*
X6672996Y-17502309D01*
X6715853Y-17502309D01*
X6744425Y-17516594D01*
X6758711Y-17545166D01*
X6758711Y-17702309D01*
X7344425Y-17388023D02*
X7087282Y-17773737D01*
X7730139Y-17402309D02*
X7758711Y-17402309D01*
X7787282Y-17416594D01*
X7801568Y-17430880D01*
X7815853Y-17459452D01*
X7830139Y-17516594D01*
X7830139Y-17588023D01*
X7815853Y-17645166D01*
X7801568Y-17673737D01*
X7787282Y-17688023D01*
X7758711Y-17702309D01*
X7730139Y-17702309D01*
X7701568Y-17688023D01*
X7687282Y-17673737D01*
X7672996Y-17645166D01*
X7658711Y-17588023D01*
X7658711Y-17516594D01*
X7672996Y-17459452D01*
X7687282Y-17430880D01*
X7701568Y-17416594D01*
X7730139Y-17402309D01*
X7958711Y-17673737D02*
X7972996Y-17688023D01*
X7958711Y-17702309D01*
X7944425Y-17688023D01*
X7958711Y-17673737D01*
X7958711Y-17702309D01*
X8158711Y-17402309D02*
X8187282Y-17402309D01*
X8215853Y-17416594D01*
X8230139Y-17430880D01*
X8244425Y-17459452D01*
X8258711Y-17516594D01*
X8258711Y-17588023D01*
X8244425Y-17645166D01*
X8230139Y-17673737D01*
X8215853Y-17688023D01*
X8187282Y-17702309D01*
X8158711Y-17702309D01*
X8130139Y-17688023D01*
X8115853Y-17673737D01*
X8101568Y-17645166D01*
X8087282Y-17588023D01*
X8087282Y-17516594D01*
X8101568Y-17459452D01*
X8115853Y-17430880D01*
X8130139Y-17416594D01*
X8158711Y-17402309D01*
X8430139Y-17530880D02*
X8401568Y-17516594D01*
X8387282Y-17502309D01*
X8372996Y-17473737D01*
X8372996Y-17459452D01*
X8387282Y-17430880D01*
X8401568Y-17416594D01*
X8430139Y-17402309D01*
X8487282Y-17402309D01*
X8515853Y-17416594D01*
X8530139Y-17430880D01*
X8544425Y-17459452D01*
X8544425Y-17473737D01*
X8530139Y-17502309D01*
X8515853Y-17516594D01*
X8487282Y-17530880D01*
X8430139Y-17530880D01*
X8401568Y-17545166D01*
X8387282Y-17559452D01*
X8372996Y-17588023D01*
X8372996Y-17645166D01*
X8387282Y-17673737D01*
X8401568Y-17688023D01*
X8430139Y-17702309D01*
X8487282Y-17702309D01*
X8515853Y-17688023D01*
X8530139Y-17673737D01*
X8544425Y-17645166D01*
X8544425Y-17588023D01*
X8530139Y-17559452D01*
X8515853Y-17545166D01*
X8487282Y-17530880D01*
X8801568Y-17402309D02*
X8744425Y-17402309D01*
X8715853Y-17416594D01*
X8701568Y-17430880D01*
X8672996Y-17473737D01*
X8658711Y-17530880D01*
X8658711Y-17645166D01*
X8672996Y-17673737D01*
X8687282Y-17688023D01*
X8715853Y-17702309D01*
X8772996Y-17702309D01*
X8801568Y-17688023D01*
X8815853Y-17673737D01*
X8830139Y-17645166D01*
X8830139Y-17573737D01*
X8815853Y-17545166D01*
X8801568Y-17530880D01*
X8772996Y-17516594D01*
X8715853Y-17516594D01*
X8687282Y-17530880D01*
X8672996Y-17545166D01*
X8658711Y-17573737D01*
X9087282Y-17402309D02*
X9030139Y-17402309D01*
X9001568Y-17416594D01*
X8987282Y-17430880D01*
X8958711Y-17473737D01*
X8944425Y-17530880D01*
X8944425Y-17645166D01*
X8958711Y-17673737D01*
X8972996Y-17688023D01*
X9001568Y-17702309D01*
X9058711Y-17702309D01*
X9087282Y-17688023D01*
X9101568Y-17673737D01*
X9115853Y-17645166D01*
X9115853Y-17573737D01*
X9101568Y-17545166D01*
X9087282Y-17530880D01*
X9058711Y-17516594D01*
X9001568Y-17516594D01*
X8972996Y-17530880D01*
X8958711Y-17545166D01*
X8944425Y-17573737D01*
X9230139Y-17402309D02*
X9230139Y-17459452D01*
X9344425Y-17402309D02*
X9344425Y-17459452D01*
X9787282Y-17816594D02*
X9772996Y-17802309D01*
X9744425Y-17759452D01*
X9730139Y-17730880D01*
X9715853Y-17688023D01*
X9701568Y-17616594D01*
X9701568Y-17559452D01*
X9715853Y-17488023D01*
X9730139Y-17445166D01*
X9744425Y-17416594D01*
X9772996Y-17373737D01*
X9787282Y-17359452D01*
X9944425Y-17530880D02*
X9915853Y-17516594D01*
X9901568Y-17502309D01*
X9887282Y-17473737D01*
X9887282Y-17459452D01*
X9901568Y-17430880D01*
X9915853Y-17416594D01*
X9944425Y-17402309D01*
X10001568Y-17402309D01*
X10030139Y-17416594D01*
X10044425Y-17430880D01*
X10058711Y-17459452D01*
X10058711Y-17473737D01*
X10044425Y-17502309D01*
X10030139Y-17516594D01*
X10001568Y-17530880D01*
X9944425Y-17530880D01*
X9915853Y-17545166D01*
X9901568Y-17559452D01*
X9887282Y-17588023D01*
X9887282Y-17645166D01*
X9901568Y-17673737D01*
X9915853Y-17688023D01*
X9944425Y-17702309D01*
X10001568Y-17702309D01*
X10030139Y-17688023D01*
X10044425Y-17673737D01*
X10058711Y-17645166D01*
X10058711Y-17588023D01*
X10044425Y-17559452D01*
X10030139Y-17545166D01*
X10001568Y-17530880D01*
X10415853Y-17702309D02*
X10415853Y-17402309D01*
X10544425Y-17702309D02*
X10544425Y-17545166D01*
X10530139Y-17516594D01*
X10501568Y-17502309D01*
X10458711Y-17502309D01*
X10430139Y-17516594D01*
X10415853Y-17530880D01*
X10730139Y-17702309D02*
X10701568Y-17688023D01*
X10687282Y-17673737D01*
X10672996Y-17645166D01*
X10672996Y-17559452D01*
X10687282Y-17530880D01*
X10701568Y-17516594D01*
X10730139Y-17502309D01*
X10772996Y-17502309D01*
X10801568Y-17516594D01*
X10815853Y-17530880D01*
X10830139Y-17559452D01*
X10830139Y-17645166D01*
X10815853Y-17673737D01*
X10801568Y-17688023D01*
X10772996Y-17702309D01*
X10730139Y-17702309D01*
X11001568Y-17702309D02*
X10972996Y-17688023D01*
X10958711Y-17659452D01*
X10958711Y-17402309D01*
X11230139Y-17688023D02*
X11201568Y-17702309D01*
X11144425Y-17702309D01*
X11115853Y-17688023D01*
X11101568Y-17659452D01*
X11101568Y-17545166D01*
X11115853Y-17516594D01*
X11144425Y-17502309D01*
X11201568Y-17502309D01*
X11230139Y-17516594D01*
X11244425Y-17545166D01*
X11244425Y-17573737D01*
X11101568Y-17602309D01*
X11358711Y-17688023D02*
X11387282Y-17702309D01*
X11444425Y-17702309D01*
X11472996Y-17688023D01*
X11487282Y-17659452D01*
X11487282Y-17645166D01*
X11472996Y-17616594D01*
X11444425Y-17602309D01*
X11401568Y-17602309D01*
X11372996Y-17588023D01*
X11358711Y-17559452D01*
X11358711Y-17545166D01*
X11372996Y-17516594D01*
X11401568Y-17502309D01*
X11444425Y-17502309D01*
X11472996Y-17516594D01*
X11587282Y-17816594D02*
X11601568Y-17802309D01*
X11630139Y-17759452D01*
X11644425Y-17730880D01*
X11658711Y-17688023D01*
X11672996Y-17616594D01*
X11672996Y-17559452D01*
X11658711Y-17488023D01*
X11644425Y-17445166D01*
X11630139Y-17416594D01*
X11601568Y-17373737D01*
X11587282Y-17359452D01*
M02*
