G04 #@! TF.GenerationSoftware,KiCad,Pcbnew,(5.1.10)-1*
G04 #@! TF.CreationDate,2021-10-25T12:35:37+03:00*
G04 #@! TF.ProjectId,top_plate,746f705f-706c-4617-9465-2e6b69636164,rev?*
G04 #@! TF.SameCoordinates,Original*
G04 #@! TF.FileFunction,Copper,L1,Top*
G04 #@! TF.FilePolarity,Positive*
%FSLAX46Y46*%
G04 Gerber Fmt 4.6, Leading zero omitted, Abs format (unit mm)*
G04 Created by KiCad (PCBNEW (5.1.10)-1) date 2021-10-25 12:35:37*
%MOMM*%
%LPD*%
G01*
G04 APERTURE LIST*
G04 #@! TA.AperFunction,ComponentPad*
%ADD10O,14.800000X2.000000*%
G04 #@! TD*
G04 #@! TA.AperFunction,ComponentPad*
%ADD11O,2.000000X14.800000*%
G04 #@! TD*
G04 #@! TA.AperFunction,ComponentPad*
%ADD12C,3.800000*%
G04 #@! TD*
G04 #@! TA.AperFunction,Conductor*
%ADD13C,0.254000*%
G04 #@! TD*
G04 #@! TA.AperFunction,Conductor*
%ADD14C,0.100000*%
G04 #@! TD*
G04 APERTURE END LIST*
G04 #@! TA.AperFunction,ComponentPad*
G36*
G01*
X192422212Y-101679237D02*
X192422212Y-101679237D01*
G75*
G02*
X193788237Y-101313212I866025J-500000D01*
G01*
X204873363Y-107713212D01*
G75*
G02*
X205239388Y-109079237I-500000J-866025D01*
G01*
X205239388Y-109079237D01*
G75*
G02*
X203873363Y-109445262I-866025J500000D01*
G01*
X192788237Y-103045262D01*
G75*
G02*
X192422212Y-101679237I500000J866025D01*
G01*
G37*
G04 #@! TD.AperFunction*
G04 #@! TA.AperFunction,ComponentPad*
G36*
G01*
X193788237Y-101313212D02*
X193788237Y-101313212D01*
G75*
G02*
X194154262Y-102679237I-500000J-866025D01*
G01*
X187754262Y-113764363D01*
G75*
G02*
X186388237Y-114130388I-866025J500000D01*
G01*
X186388237Y-114130388D01*
G75*
G02*
X186022212Y-112764363I500000J866025D01*
G01*
X192422212Y-101679237D01*
G75*
G02*
X193788237Y-101313212I866025J-500000D01*
G01*
G37*
G04 #@! TD.AperFunction*
G04 #@! TA.AperFunction,ComponentPad*
G36*
G01*
X186022212Y-112764363D02*
X186022212Y-112764363D01*
G75*
G02*
X187388237Y-112398338I866025J-500000D01*
G01*
X198473363Y-118798338D01*
G75*
G02*
X198839388Y-120164363I-500000J-866025D01*
G01*
X198839388Y-120164363D01*
G75*
G02*
X197473363Y-120530388I-866025J500000D01*
G01*
X186388237Y-114130388D01*
G75*
G02*
X186022212Y-112764363I500000J866025D01*
G01*
G37*
G04 #@! TD.AperFunction*
G04 #@! TA.AperFunction,ComponentPad*
G36*
G01*
X204878363Y-107704552D02*
X204878363Y-107704552D01*
G75*
G02*
X205244388Y-109070577I-500000J-866025D01*
G01*
X198844388Y-120155703D01*
G75*
G02*
X197478363Y-120521728I-866025J500000D01*
G01*
X197478363Y-120521728D01*
G75*
G02*
X197112338Y-119155703I500000J866025D01*
G01*
X203512338Y-108070577D01*
G75*
G02*
X204878363Y-107704552I866025J-500000D01*
G01*
G37*
G04 #@! TD.AperFunction*
G04 #@! TA.AperFunction,ComponentPad*
G36*
G01*
X201121293Y-135072727D02*
X201121293Y-135072727D01*
G75*
G02*
X202535507Y-135072727I707107J-707107D01*
G01*
X211586473Y-144123693D01*
G75*
G02*
X211586473Y-145537907I-707107J-707107D01*
G01*
X211586473Y-145537907D01*
G75*
G02*
X210172259Y-145537907I-707107J707107D01*
G01*
X201121293Y-136486941D01*
G75*
G02*
X201121293Y-135072727I707107J707107D01*
G01*
G37*
G04 #@! TD.AperFunction*
G04 #@! TA.AperFunction,ComponentPad*
G36*
G01*
X202535507Y-135072727D02*
X202535507Y-135072727D01*
G75*
G02*
X202535507Y-136486941I-707107J-707107D01*
G01*
X193484541Y-145537907D01*
G75*
G02*
X192070327Y-145537907I-707107J707107D01*
G01*
X192070327Y-145537907D01*
G75*
G02*
X192070327Y-144123693I707107J707107D01*
G01*
X201121293Y-135072727D01*
G75*
G02*
X202535507Y-135072727I707107J-707107D01*
G01*
G37*
G04 #@! TD.AperFunction*
G04 #@! TA.AperFunction,ComponentPad*
G36*
G01*
X192070327Y-144123693D02*
X192070327Y-144123693D01*
G75*
G02*
X193484541Y-144123693I707107J-707107D01*
G01*
X202535507Y-153174659D01*
G75*
G02*
X202535507Y-154588873I-707107J-707107D01*
G01*
X202535507Y-154588873D01*
G75*
G02*
X201121293Y-154588873I-707107J707107D01*
G01*
X192070327Y-145537907D01*
G75*
G02*
X192070327Y-144123693I707107J707107D01*
G01*
G37*
G04 #@! TD.AperFunction*
G04 #@! TA.AperFunction,ComponentPad*
G36*
G01*
X211593544Y-144116622D02*
X211593544Y-144116622D01*
G75*
G02*
X211593544Y-145530836I-707107J-707107D01*
G01*
X202542578Y-154581802D01*
G75*
G02*
X201128364Y-154581802I-707107J707107D01*
G01*
X201128364Y-154581802D01*
G75*
G02*
X201128364Y-153167588I707107J707107D01*
G01*
X210179330Y-144116622D01*
G75*
G02*
X211593544Y-144116622I707107J-707107D01*
G01*
G37*
G04 #@! TD.AperFunction*
G04 #@! TA.AperFunction,ComponentPad*
G36*
G01*
X178604612Y-125631437D02*
X178604612Y-125631437D01*
G75*
G02*
X179970637Y-125265412I866025J-500000D01*
G01*
X191055763Y-131665412D01*
G75*
G02*
X191421788Y-133031437I-500000J-866025D01*
G01*
X191421788Y-133031437D01*
G75*
G02*
X190055763Y-133397462I-866025J500000D01*
G01*
X178970637Y-126997462D01*
G75*
G02*
X178604612Y-125631437I500000J866025D01*
G01*
G37*
G04 #@! TD.AperFunction*
G04 #@! TA.AperFunction,ComponentPad*
G36*
G01*
X179970637Y-125265412D02*
X179970637Y-125265412D01*
G75*
G02*
X180336662Y-126631437I-500000J-866025D01*
G01*
X173936662Y-137716563D01*
G75*
G02*
X172570637Y-138082588I-866025J500000D01*
G01*
X172570637Y-138082588D01*
G75*
G02*
X172204612Y-136716563I500000J866025D01*
G01*
X178604612Y-125631437D01*
G75*
G02*
X179970637Y-125265412I866025J-500000D01*
G01*
G37*
G04 #@! TD.AperFunction*
G04 #@! TA.AperFunction,ComponentPad*
G36*
G01*
X172204612Y-136716563D02*
X172204612Y-136716563D01*
G75*
G02*
X173570637Y-136350538I866025J-500000D01*
G01*
X184655763Y-142750538D01*
G75*
G02*
X185021788Y-144116563I-500000J-866025D01*
G01*
X185021788Y-144116563D01*
G75*
G02*
X183655763Y-144482588I-866025J500000D01*
G01*
X172570637Y-138082588D01*
G75*
G02*
X172204612Y-136716563I500000J866025D01*
G01*
G37*
G04 #@! TD.AperFunction*
G04 #@! TA.AperFunction,ComponentPad*
G36*
G01*
X191060763Y-131656752D02*
X191060763Y-131656752D01*
G75*
G02*
X191426788Y-133022777I-500000J-866025D01*
G01*
X185026788Y-144107903D01*
G75*
G02*
X183660763Y-144473928I-866025J500000D01*
G01*
X183660763Y-144473928D01*
G75*
G02*
X183294738Y-143107903I500000J866025D01*
G01*
X189694738Y-132022777D01*
G75*
G02*
X191060763Y-131656752I866025J-500000D01*
G01*
G37*
G04 #@! TD.AperFunction*
G04 #@! TA.AperFunction,ComponentPad*
G36*
G01*
X156789191Y-118496414D02*
X156789191Y-118496414D01*
G75*
G02*
X158013936Y-117789307I965926J-258819D01*
G01*
X170377786Y-121102191D01*
G75*
G02*
X171084893Y-122326936I-258819J-965926D01*
G01*
X171084893Y-122326936D01*
G75*
G02*
X169860148Y-123034043I-965926J258819D01*
G01*
X157496298Y-119721159D01*
G75*
G02*
X156789191Y-118496414I258819J965926D01*
G01*
G37*
G04 #@! TD.AperFunction*
G04 #@! TA.AperFunction,ComponentPad*
G36*
G01*
X158013936Y-117789307D02*
X158013936Y-117789307D01*
G75*
G02*
X158721043Y-119014052I-258819J-965926D01*
G01*
X155408159Y-131377902D01*
G75*
G02*
X154183414Y-132085009I-965926J258819D01*
G01*
X154183414Y-132085009D01*
G75*
G02*
X153476307Y-130860264I258819J965926D01*
G01*
X156789191Y-118496414D01*
G75*
G02*
X158013936Y-117789307I965926J-258819D01*
G01*
G37*
G04 #@! TD.AperFunction*
G04 #@! TA.AperFunction,ComponentPad*
G36*
G01*
X153476307Y-130860264D02*
X153476307Y-130860264D01*
G75*
G02*
X154701052Y-130153157I965926J-258819D01*
G01*
X167064902Y-133466041D01*
G75*
G02*
X167772009Y-134690786I-258819J-965926D01*
G01*
X167772009Y-134690786D01*
G75*
G02*
X166547264Y-135397893I-965926J258819D01*
G01*
X154183414Y-132085009D01*
G75*
G02*
X153476307Y-130860264I258819J965926D01*
G01*
G37*
G04 #@! TD.AperFunction*
G04 #@! TA.AperFunction,ComponentPad*
G36*
G01*
X170380374Y-121092532D02*
X170380374Y-121092532D01*
G75*
G02*
X171087481Y-122317277I-258819J-965926D01*
G01*
X167774597Y-134681127D01*
G75*
G02*
X166549852Y-135388234I-965926J258819D01*
G01*
X166549852Y-135388234D01*
G75*
G02*
X165842745Y-134163489I258819J965926D01*
G01*
X169155629Y-121799639D01*
G75*
G02*
X170380374Y-121092532I965926J-258819D01*
G01*
G37*
G04 #@! TD.AperFunction*
D10*
X122072400Y-117145600D03*
D11*
X115672400Y-123545600D03*
D10*
X122072400Y-129945600D03*
D11*
X128472400Y-123535600D03*
X147522400Y-123561000D03*
D10*
X141122400Y-129971000D03*
D11*
X134722400Y-123571000D03*
D10*
X141122400Y-117171000D03*
X169672000Y-62357800D03*
D11*
X163272000Y-68757800D03*
D10*
X169672000Y-75157800D03*
D11*
X176072000Y-68747800D03*
X176072000Y-87823200D03*
D10*
X169672000Y-94233200D03*
D11*
X163272000Y-87833200D03*
D10*
X169672000Y-81433200D03*
D11*
X176072000Y-106898600D03*
D10*
X169672000Y-113308600D03*
D11*
X163272000Y-106908600D03*
D10*
X169672000Y-100508600D03*
X150647400Y-59970200D03*
D11*
X144247400Y-66370200D03*
D10*
X150647400Y-72770200D03*
D11*
X157047400Y-66360200D03*
X157047400Y-85435600D03*
D10*
X150647400Y-91845600D03*
D11*
X144247400Y-85445600D03*
D10*
X150647400Y-79045600D03*
D11*
X157047400Y-104511000D03*
D10*
X150647400Y-110921000D03*
D11*
X144247400Y-104521000D03*
D10*
X150647400Y-98121000D03*
X131622800Y-93345800D03*
D11*
X125222800Y-99745800D03*
D10*
X131622800Y-106145800D03*
D11*
X138022800Y-99735800D03*
D10*
X131622800Y-74270400D03*
D11*
X125222800Y-80670400D03*
D10*
X131622800Y-87070400D03*
D11*
X138022800Y-80660400D03*
X138022800Y-61585000D03*
D10*
X131622800Y-67995000D03*
D11*
X125222800Y-61595000D03*
D10*
X131622800Y-55195000D03*
X112547400Y-98146400D03*
D11*
X106147400Y-104546400D03*
D10*
X112547400Y-110946400D03*
D11*
X118947400Y-104536400D03*
D10*
X112547400Y-79071000D03*
D11*
X106147400Y-85471000D03*
D10*
X112547400Y-91871000D03*
D11*
X118947400Y-85461000D03*
X118947400Y-66385600D03*
D10*
X112547400Y-72795600D03*
D11*
X106147400Y-66395600D03*
D10*
X112547400Y-59995600D03*
X93497400Y-107671400D03*
D11*
X87097400Y-114071400D03*
D10*
X93497400Y-120471400D03*
D11*
X99897400Y-114061400D03*
D10*
X93497400Y-88596000D03*
D11*
X87097400Y-94996000D03*
D10*
X93497400Y-101396000D03*
D11*
X99897400Y-94986000D03*
X99897400Y-75910600D03*
D10*
X93497400Y-82320600D03*
D11*
X87097400Y-75920600D03*
D10*
X93497400Y-69520600D03*
D11*
X80847400Y-114036000D03*
D10*
X74447400Y-120446000D03*
D11*
X68047400Y-114046000D03*
D10*
X74447400Y-107646000D03*
D11*
X80847400Y-94960600D03*
D10*
X74447400Y-101370600D03*
D11*
X68047400Y-94970600D03*
D10*
X74447400Y-88570600D03*
X74447400Y-69495200D03*
D11*
X68047400Y-75895200D03*
D10*
X74447400Y-82295200D03*
D11*
X80847400Y-75885200D03*
X61797400Y-94960600D03*
D10*
X55397400Y-101370600D03*
D11*
X48997400Y-94970600D03*
D10*
X55397400Y-88570600D03*
D12*
X108077000Y-117906800D03*
X153085800Y-115951000D03*
X198323200Y-130581400D03*
X182372000Y-96062800D03*
X159943800Y-76225400D03*
X118160800Y-75920600D03*
X83921600Y-85547200D03*
X55295800Y-106984800D03*
D13*
X140858602Y-55949806D02*
X140861659Y-55980842D01*
X140861638Y-55983806D01*
X140862639Y-55994019D01*
X140867687Y-56042053D01*
X140869237Y-56057786D01*
X140869396Y-56058311D01*
X140872839Y-56091068D01*
X140886246Y-56156381D01*
X140898718Y-56221763D01*
X140901684Y-56231587D01*
X140930540Y-56324805D01*
X140956369Y-56386248D01*
X140981310Y-56447981D01*
X140986127Y-56457042D01*
X141032540Y-56542881D01*
X141069796Y-56598115D01*
X141106270Y-56653852D01*
X141112756Y-56661805D01*
X141174958Y-56736994D01*
X141222264Y-56783971D01*
X141268835Y-56831528D01*
X141276742Y-56838070D01*
X141352363Y-56899745D01*
X141407882Y-56936632D01*
X141462817Y-56974246D01*
X141471844Y-56979128D01*
X141558004Y-57024940D01*
X141619627Y-57050339D01*
X141680820Y-57076567D01*
X141690624Y-57079602D01*
X141784042Y-57107807D01*
X141849435Y-57120756D01*
X141914557Y-57134597D01*
X141924748Y-57135668D01*
X141924756Y-57135670D01*
X141924763Y-57135670D01*
X142021289Y-57145134D01*
X142057495Y-57148700D01*
X179238394Y-57148700D01*
X179325138Y-57157205D01*
X179373991Y-57171955D01*
X179419050Y-57195913D01*
X179458596Y-57228167D01*
X179491125Y-57267487D01*
X179515394Y-57312371D01*
X179530486Y-57361128D01*
X179539351Y-57445465D01*
X179539352Y-92249806D01*
X179542444Y-92281196D01*
X179542401Y-92287299D01*
X179543402Y-92297513D01*
X179563803Y-92491609D01*
X179577195Y-92556850D01*
X179589680Y-92622299D01*
X179592646Y-92632124D01*
X179650358Y-92818562D01*
X179676182Y-92879994D01*
X179701128Y-92941738D01*
X179705946Y-92950800D01*
X179798771Y-93122476D01*
X179836008Y-93177683D01*
X179872501Y-93233449D01*
X179878987Y-93241402D01*
X180003390Y-93391779D01*
X180050697Y-93438757D01*
X180097268Y-93486314D01*
X180105175Y-93492856D01*
X180256417Y-93616206D01*
X180311910Y-93653075D01*
X180366871Y-93690708D01*
X180375898Y-93695589D01*
X180548220Y-93787214D01*
X180609859Y-93812620D01*
X180671040Y-93838842D01*
X180680843Y-93841877D01*
X180867679Y-93898286D01*
X180933071Y-93911234D01*
X180991221Y-93923594D01*
X180979362Y-93929933D01*
X180775256Y-94286451D01*
X182372000Y-95883195D01*
X183968744Y-94286451D01*
X183775382Y-93948700D01*
X200269361Y-93948700D01*
X200356095Y-93957204D01*
X200404949Y-93971955D01*
X200450003Y-93995910D01*
X200489551Y-94028165D01*
X200522080Y-94067485D01*
X200546352Y-94112376D01*
X200561442Y-94161125D01*
X200570307Y-94245466D01*
X200570308Y-96997333D01*
X200571566Y-97010107D01*
X200573193Y-97056679D01*
X200578964Y-97099927D01*
X200581401Y-97143487D01*
X200583042Y-97153618D01*
X200615596Y-97346048D01*
X200633070Y-97410356D01*
X200649634Y-97474857D01*
X200653211Y-97484476D01*
X200722522Y-97666920D01*
X200752145Y-97726589D01*
X200780930Y-97786664D01*
X200786308Y-97795405D01*
X200889736Y-97960911D01*
X200930395Y-98013704D01*
X200970291Y-98067031D01*
X200977263Y-98074561D01*
X201110869Y-98216826D01*
X201161020Y-98260727D01*
X201210500Y-98305276D01*
X201218796Y-98311303D01*
X201218803Y-98311309D01*
X201218810Y-98311313D01*
X201377495Y-98424913D01*
X201377501Y-98424917D01*
X201406589Y-98445759D01*
X208820937Y-102726103D01*
X208891796Y-102776829D01*
X208926733Y-102814031D01*
X208953775Y-102857304D01*
X208971899Y-102905010D01*
X208984288Y-102978241D01*
X208984573Y-102986411D01*
X208984574Y-116378324D01*
X208976069Y-116465067D01*
X208957953Y-116525070D01*
X208936882Y-116567893D01*
X203849507Y-125380245D01*
X203839196Y-125403005D01*
X203784250Y-125515159D01*
X203764724Y-125567380D01*
X203742943Y-125618686D01*
X203739942Y-125628499D01*
X203684174Y-125815527D01*
X203671448Y-125880974D01*
X203657832Y-125946130D01*
X203656794Y-125956339D01*
X203638416Y-126150638D01*
X203638645Y-126217269D01*
X203637943Y-126283865D01*
X203638908Y-126294082D01*
X203658619Y-126488250D01*
X203671791Y-126553596D01*
X203684033Y-126619032D01*
X203686963Y-126628867D01*
X203744012Y-126815508D01*
X203769628Y-126877056D01*
X203794345Y-126938865D01*
X203799130Y-126947943D01*
X203891345Y-127119950D01*
X203928411Y-127175326D01*
X203964680Y-127231182D01*
X203971138Y-127239158D01*
X204095007Y-127389977D01*
X204095019Y-127389989D01*
X204117712Y-127417644D01*
X218018888Y-141320506D01*
X218074198Y-141387850D01*
X218098309Y-141432825D01*
X218113225Y-141481624D01*
X218118380Y-141532397D01*
X218113575Y-141583197D01*
X218098993Y-141632099D01*
X218075190Y-141677238D01*
X218021823Y-141743134D01*
X198593898Y-161167919D01*
X198526542Y-161223236D01*
X198481564Y-161247348D01*
X198432763Y-161262264D01*
X198381994Y-161267417D01*
X198331190Y-161262610D01*
X198282284Y-161248026D01*
X198237148Y-161224224D01*
X198181872Y-161179455D01*
X196782569Y-159537917D01*
X196773886Y-159528170D01*
X196765275Y-159518344D01*
X194408713Y-156944944D01*
X194386545Y-156921772D01*
X191919975Y-154453613D01*
X191908645Y-154442760D01*
X191896817Y-154431430D01*
X189324935Y-152073210D01*
X189300832Y-152052059D01*
X186628533Y-149808267D01*
X186628153Y-149807962D01*
X186603530Y-149788186D01*
X183835904Y-147663094D01*
X183819507Y-147651064D01*
X183810049Y-147644124D01*
X180952360Y-145641777D01*
X180925702Y-145623953D01*
X180925701Y-145623952D01*
X177983392Y-143748162D01*
X177955982Y-143731518D01*
X174934652Y-141985854D01*
X174924688Y-141980384D01*
X174906542Y-141970420D01*
X171811942Y-140358207D01*
X171783186Y-140344015D01*
X168621208Y-138868320D01*
X168611457Y-138864026D01*
X168591860Y-138855395D01*
X165368523Y-137519029D01*
X165338639Y-137507397D01*
X164835301Y-137324013D01*
X171431244Y-137324013D01*
X171483707Y-137641779D01*
X171597156Y-137943204D01*
X171767228Y-138216703D01*
X171987391Y-138451769D01*
X172249182Y-138639365D01*
X172322698Y-138672675D01*
X183407824Y-145072675D01*
X183627666Y-145172285D01*
X183941320Y-145245419D01*
X184263214Y-145255956D01*
X184580980Y-145203493D01*
X184882404Y-145090045D01*
X185155904Y-144919972D01*
X185251111Y-144830800D01*
X191134523Y-144830800D01*
X191166092Y-145151316D01*
X191259582Y-145459514D01*
X191411404Y-145743552D01*
X191615721Y-145992513D01*
X191678111Y-146043715D01*
X200729076Y-155094681D01*
X200915647Y-155247796D01*
X201199685Y-155399618D01*
X201507883Y-155493109D01*
X201828400Y-155524677D01*
X202148916Y-155493109D01*
X202457114Y-155399618D01*
X202741152Y-155247796D01*
X202990113Y-155043479D01*
X203041316Y-154981088D01*
X211978694Y-146043711D01*
X212041079Y-145992513D01*
X212092277Y-145930128D01*
X212099352Y-145923053D01*
X212252467Y-145736482D01*
X212404289Y-145452444D01*
X212497780Y-145144246D01*
X212529348Y-144823729D01*
X212497780Y-144503213D01*
X212404289Y-144195015D01*
X212252467Y-143910977D01*
X212048150Y-143662016D01*
X211906901Y-143546096D01*
X203041316Y-134680512D01*
X202990113Y-134618121D01*
X202741152Y-134413804D01*
X202457114Y-134261982D01*
X202148916Y-134168491D01*
X201828400Y-134136923D01*
X201507883Y-134168491D01*
X201199685Y-134261982D01*
X200915647Y-134413804D01*
X200729076Y-134566919D01*
X200729072Y-134566923D01*
X200666687Y-134618121D01*
X200615489Y-134680506D01*
X191678112Y-143617884D01*
X191615721Y-143669087D01*
X191550826Y-143748162D01*
X191411404Y-143918048D01*
X191259582Y-144202086D01*
X191166092Y-144510284D01*
X191134523Y-144830800D01*
X185251111Y-144830800D01*
X185390969Y-144699809D01*
X185578565Y-144438018D01*
X185611875Y-144364501D01*
X191931555Y-133418495D01*
X191978565Y-133352892D01*
X192011874Y-133279378D01*
X192016875Y-133270716D01*
X192116485Y-133050874D01*
X192189619Y-132737220D01*
X192200156Y-132415326D01*
X192190651Y-132357749D01*
X196726456Y-132357749D01*
X196930562Y-132714267D01*
X197373423Y-132944975D01*
X197852783Y-133084852D01*
X198350221Y-133128523D01*
X198846622Y-133074309D01*
X199322907Y-132924294D01*
X199715838Y-132714267D01*
X199919944Y-132357749D01*
X198323200Y-130761005D01*
X196726456Y-132357749D01*
X192190651Y-132357749D01*
X192147693Y-132097560D01*
X192034245Y-131796136D01*
X191864172Y-131522636D01*
X191644009Y-131287571D01*
X191382218Y-131099975D01*
X191215783Y-131024564D01*
X190495003Y-130608421D01*
X195776077Y-130608421D01*
X195830291Y-131104822D01*
X195980306Y-131581107D01*
X196190333Y-131974038D01*
X196546851Y-132178144D01*
X198143595Y-130581400D01*
X198502805Y-130581400D01*
X200099549Y-132178144D01*
X200456067Y-131974038D01*
X200686775Y-131531177D01*
X200826652Y-131051817D01*
X200870323Y-130554379D01*
X200816109Y-130057978D01*
X200666094Y-129581693D01*
X200456067Y-129188762D01*
X200099549Y-128984656D01*
X198502805Y-130581400D01*
X198143595Y-130581400D01*
X196546851Y-128984656D01*
X196190333Y-129188762D01*
X195959625Y-129631623D01*
X195819748Y-130110983D01*
X195776077Y-130608421D01*
X190495003Y-130608421D01*
X187371474Y-128805051D01*
X196726456Y-128805051D01*
X198323200Y-130401795D01*
X199919944Y-128805051D01*
X199715838Y-128448533D01*
X199272977Y-128217825D01*
X198793617Y-128077948D01*
X198296179Y-128034277D01*
X197799778Y-128088491D01*
X197323493Y-128238506D01*
X196930562Y-128448533D01*
X196726456Y-128805051D01*
X187371474Y-128805051D01*
X180357696Y-124755646D01*
X180292092Y-124708635D01*
X180214074Y-124673285D01*
X180180242Y-124657956D01*
X179998733Y-124575715D01*
X179685079Y-124502581D01*
X179373390Y-124492378D01*
X179363187Y-124492044D01*
X179363186Y-124492044D01*
X179045420Y-124544506D01*
X178743995Y-124657955D01*
X178470496Y-124828028D01*
X178235431Y-125048191D01*
X178094846Y-125244376D01*
X178094840Y-125244386D01*
X178047835Y-125309982D01*
X178014531Y-125383486D01*
X171694846Y-136329504D01*
X171647835Y-136395108D01*
X171614527Y-136468621D01*
X171614525Y-136468624D01*
X171514916Y-136688467D01*
X171441782Y-137002121D01*
X171431244Y-137324013D01*
X164835301Y-137324013D01*
X162060078Y-136312902D01*
X162059601Y-136312740D01*
X162029715Y-136302584D01*
X158702173Y-135252235D01*
X158671389Y-135243252D01*
X155301197Y-134339049D01*
X155282408Y-134334445D01*
X155270051Y-134331417D01*
X151863625Y-133575079D01*
X151863113Y-133574977D01*
X151832176Y-133568812D01*
X148396001Y-132961781D01*
X148372311Y-132958127D01*
X148370227Y-132957700D01*
X148099143Y-132919678D01*
X148071112Y-132917529D01*
X148043203Y-132914003D01*
X146802817Y-132835964D01*
X146779825Y-132833700D01*
X113105248Y-132833700D01*
X113018515Y-132825196D01*
X112969661Y-132810446D01*
X112924602Y-132786488D01*
X112885055Y-132754234D01*
X112852528Y-132714915D01*
X112828258Y-132670029D01*
X112813166Y-132621273D01*
X112804301Y-132536935D01*
X112804301Y-125001595D01*
X112801208Y-124970196D01*
X112801251Y-124964102D01*
X112800250Y-124953888D01*
X112779849Y-124759791D01*
X112766456Y-124694543D01*
X112753972Y-124629102D01*
X112751006Y-124619277D01*
X112693294Y-124432839D01*
X112667476Y-124371420D01*
X112642524Y-124309662D01*
X112637706Y-124300601D01*
X112544881Y-124128924D01*
X112507616Y-124073677D01*
X112471151Y-124017952D01*
X112464665Y-124009999D01*
X112340261Y-123859621D01*
X112292955Y-123812644D01*
X112246384Y-123765087D01*
X112238477Y-123758545D01*
X112087235Y-123635195D01*
X112031716Y-123598308D01*
X111976781Y-123560694D01*
X111967754Y-123555812D01*
X111795432Y-123464187D01*
X111733805Y-123438786D01*
X111672612Y-123412559D01*
X111662809Y-123409524D01*
X111475973Y-123353115D01*
X111410581Y-123340167D01*
X111345465Y-123326326D01*
X111335259Y-123325253D01*
X111141025Y-123306208D01*
X111141024Y-123306208D01*
X111105406Y-123302700D01*
X65480248Y-123302700D01*
X65393515Y-123294196D01*
X65344661Y-123279446D01*
X65299602Y-123255488D01*
X65260055Y-123223234D01*
X65227528Y-123183915D01*
X65203258Y-123139029D01*
X65188166Y-123090273D01*
X65179301Y-123005935D01*
X65179301Y-112707895D01*
X65176208Y-112676496D01*
X65176251Y-112670402D01*
X65175250Y-112660188D01*
X65154849Y-112466091D01*
X65141456Y-112400843D01*
X65128972Y-112335402D01*
X65126006Y-112325577D01*
X65068294Y-112139139D01*
X65042476Y-112077720D01*
X65017524Y-112015962D01*
X65012706Y-112006901D01*
X64919881Y-111835224D01*
X64882616Y-111779977D01*
X64846151Y-111724252D01*
X64839665Y-111716299D01*
X64715261Y-111565921D01*
X64667955Y-111518944D01*
X64621384Y-111471387D01*
X64613477Y-111464845D01*
X64462235Y-111341495D01*
X64406716Y-111304608D01*
X64351781Y-111266994D01*
X64342754Y-111262112D01*
X64170432Y-111170487D01*
X64108805Y-111145086D01*
X64047612Y-111118859D01*
X64037809Y-111115824D01*
X63850973Y-111059415D01*
X63785581Y-111046467D01*
X63720465Y-111032626D01*
X63710259Y-111031553D01*
X63516025Y-111012508D01*
X63516024Y-111012508D01*
X63480406Y-111009000D01*
X46430208Y-111009000D01*
X46343465Y-111000495D01*
X46294611Y-110985745D01*
X46249553Y-110961787D01*
X46210005Y-110929533D01*
X46177479Y-110890215D01*
X46153207Y-110845324D01*
X46138117Y-110796576D01*
X46129252Y-110712235D01*
X46129252Y-108761149D01*
X53699056Y-108761149D01*
X53903162Y-109117667D01*
X54346023Y-109348375D01*
X54825383Y-109488252D01*
X55322821Y-109531923D01*
X55819222Y-109477709D01*
X56295507Y-109327694D01*
X56688438Y-109117667D01*
X56892544Y-108761149D01*
X55295800Y-107164405D01*
X53699056Y-108761149D01*
X46129252Y-108761149D01*
X46129252Y-107011821D01*
X52748677Y-107011821D01*
X52802891Y-107508222D01*
X52952906Y-107984507D01*
X53162933Y-108377438D01*
X53519451Y-108581544D01*
X55116195Y-106984800D01*
X55475405Y-106984800D01*
X57072149Y-108581544D01*
X57428667Y-108377438D01*
X57659375Y-107934577D01*
X57743581Y-107646000D01*
X66404489Y-107646000D01*
X66412401Y-107726332D01*
X66412400Y-120365678D01*
X66404489Y-120446000D01*
X66436057Y-120766516D01*
X66529548Y-121074715D01*
X66681369Y-121358752D01*
X66822205Y-121530362D01*
X66885686Y-121607714D01*
X67134648Y-121812031D01*
X67418685Y-121963852D01*
X67726884Y-122057343D01*
X68047400Y-122088911D01*
X68127722Y-122081000D01*
X80927722Y-122081000D01*
X81167916Y-122057343D01*
X81476115Y-121963852D01*
X81760152Y-121812031D01*
X82009114Y-121607714D01*
X82213431Y-121358752D01*
X82365252Y-121074715D01*
X82458743Y-120766516D01*
X82490311Y-120446000D01*
X82482400Y-120365678D01*
X82482400Y-107726322D01*
X82487809Y-107671400D01*
X85454489Y-107671400D01*
X85462401Y-107751732D01*
X85462400Y-120391078D01*
X85454489Y-120471400D01*
X85486057Y-120791916D01*
X85579548Y-121100115D01*
X85731369Y-121384152D01*
X85851360Y-121530362D01*
X85935686Y-121633114D01*
X86184648Y-121837431D01*
X86468685Y-121989252D01*
X86776884Y-122082743D01*
X87097400Y-122114311D01*
X87177722Y-122106400D01*
X99977722Y-122106400D01*
X100217916Y-122082743D01*
X100526115Y-121989252D01*
X100810152Y-121837431D01*
X101059114Y-121633114D01*
X101263431Y-121384152D01*
X101415252Y-121100115D01*
X101508743Y-120791916D01*
X101540311Y-120471400D01*
X101532400Y-120391078D01*
X101532400Y-119683149D01*
X106480256Y-119683149D01*
X106684362Y-120039667D01*
X107127223Y-120270375D01*
X107606583Y-120410252D01*
X108104021Y-120453923D01*
X108600422Y-120399709D01*
X109076707Y-120249694D01*
X109469638Y-120039667D01*
X109673744Y-119683149D01*
X108077000Y-118086405D01*
X106480256Y-119683149D01*
X101532400Y-119683149D01*
X101532400Y-117933821D01*
X105529877Y-117933821D01*
X105584091Y-118430222D01*
X105734106Y-118906507D01*
X105944133Y-119299438D01*
X106300651Y-119503544D01*
X107897395Y-117906800D01*
X108256605Y-117906800D01*
X109853349Y-119503544D01*
X110209867Y-119299438D01*
X110440575Y-118856577D01*
X110580452Y-118377217D01*
X110624123Y-117879779D01*
X110569909Y-117383378D01*
X110495017Y-117145600D01*
X114029489Y-117145600D01*
X114037401Y-117225932D01*
X114037400Y-129865278D01*
X114029489Y-129945600D01*
X114061057Y-130266116D01*
X114154548Y-130574315D01*
X114306369Y-130858352D01*
X114395579Y-130967055D01*
X114510686Y-131107314D01*
X114759648Y-131311631D01*
X115043685Y-131463452D01*
X115351884Y-131556943D01*
X115672400Y-131588511D01*
X115752722Y-131580600D01*
X128552722Y-131580600D01*
X128792916Y-131556943D01*
X129101115Y-131463452D01*
X129385152Y-131311631D01*
X129634114Y-131107314D01*
X129838431Y-130858352D01*
X129990252Y-130574315D01*
X130083743Y-130266116D01*
X130115311Y-129945600D01*
X130107400Y-129865278D01*
X130107400Y-117225922D01*
X130112809Y-117171000D01*
X133079489Y-117171000D01*
X133087401Y-117251332D01*
X133087400Y-129890678D01*
X133079489Y-129971000D01*
X133111057Y-130291516D01*
X133204548Y-130599715D01*
X133356369Y-130883752D01*
X133424734Y-130967055D01*
X133560686Y-131132714D01*
X133809648Y-131337031D01*
X134093685Y-131488852D01*
X134401884Y-131582343D01*
X134722400Y-131613911D01*
X134802722Y-131606000D01*
X147602722Y-131606000D01*
X147842916Y-131582343D01*
X148151115Y-131488852D01*
X148435152Y-131337031D01*
X148684114Y-131132714D01*
X148783483Y-131011632D01*
X152802840Y-131011632D01*
X152813378Y-131333526D01*
X152886511Y-131647178D01*
X153019430Y-131940538D01*
X153207028Y-132202329D01*
X153442092Y-132422492D01*
X153715593Y-132592565D01*
X154017017Y-132706013D01*
X154096654Y-132719161D01*
X166460499Y-136032044D01*
X166698631Y-136071360D01*
X167020526Y-136060822D01*
X167334179Y-135987689D01*
X167627539Y-135854770D01*
X167889330Y-135667172D01*
X168109492Y-135432108D01*
X168279565Y-135158608D01*
X168393013Y-134857183D01*
X168406161Y-134777544D01*
X171677465Y-122568875D01*
X171705897Y-122493333D01*
X171719045Y-122413697D01*
X171721632Y-122404042D01*
X171760948Y-122165910D01*
X171750410Y-121844015D01*
X171677277Y-121530362D01*
X171544358Y-121237002D01*
X171356760Y-120975211D01*
X171121696Y-120755049D01*
X170848196Y-120584976D01*
X170546771Y-120471528D01*
X170366487Y-120441763D01*
X158255873Y-117196734D01*
X158180333Y-117168303D01*
X157862568Y-117115840D01*
X157540674Y-117126377D01*
X157227021Y-117199511D01*
X156933661Y-117332430D01*
X156671870Y-117520027D01*
X156451708Y-117755092D01*
X156281634Y-118028592D01*
X156206908Y-118227137D01*
X156168187Y-118330017D01*
X156155040Y-118409645D01*
X152883734Y-130618327D01*
X152855303Y-130693867D01*
X152842156Y-130773499D01*
X152802840Y-131011632D01*
X148783483Y-131011632D01*
X148888431Y-130883752D01*
X149040252Y-130599715D01*
X149133743Y-130291516D01*
X149165311Y-129971000D01*
X149157400Y-129890678D01*
X149157400Y-117727349D01*
X151489056Y-117727349D01*
X151693162Y-118083867D01*
X152136023Y-118314575D01*
X152615383Y-118454452D01*
X153112821Y-118498123D01*
X153609222Y-118443909D01*
X154085507Y-118293894D01*
X154478438Y-118083867D01*
X154682544Y-117727349D01*
X153085800Y-116130605D01*
X151489056Y-117727349D01*
X149157400Y-117727349D01*
X149157400Y-117251322D01*
X149165311Y-117171000D01*
X149157400Y-117090678D01*
X149157400Y-117080678D01*
X149133743Y-116840484D01*
X149040252Y-116532285D01*
X148888431Y-116248248D01*
X148684114Y-115999286D01*
X148658203Y-115978021D01*
X150538677Y-115978021D01*
X150592891Y-116474422D01*
X150742906Y-116950707D01*
X150952933Y-117343638D01*
X151309451Y-117547744D01*
X152906195Y-115951000D01*
X153265405Y-115951000D01*
X154862149Y-117547744D01*
X155218667Y-117343638D01*
X155449375Y-116900777D01*
X155589252Y-116421417D01*
X155632923Y-115923979D01*
X155578709Y-115427578D01*
X155428694Y-114951293D01*
X155218667Y-114558362D01*
X154862149Y-114354256D01*
X153265405Y-115951000D01*
X152906195Y-115951000D01*
X151309451Y-114354256D01*
X150952933Y-114558362D01*
X150722225Y-115001223D01*
X150582348Y-115480583D01*
X150538677Y-115978021D01*
X148658203Y-115978021D01*
X148435152Y-115794969D01*
X148151115Y-115643148D01*
X147842916Y-115549657D01*
X147522400Y-115518089D01*
X147340547Y-115536000D01*
X134802722Y-115536000D01*
X134722400Y-115528089D01*
X134642078Y-115536000D01*
X134401884Y-115559657D01*
X134093685Y-115653148D01*
X133809648Y-115804969D01*
X133560686Y-116009286D01*
X133356369Y-116258248D01*
X133204548Y-116542285D01*
X133111057Y-116850484D01*
X133079489Y-117171000D01*
X130112809Y-117171000D01*
X130115311Y-117145600D01*
X130107400Y-117065278D01*
X130107400Y-117055278D01*
X130083743Y-116815084D01*
X129990252Y-116506885D01*
X129838431Y-116222848D01*
X129634114Y-115973886D01*
X129385152Y-115769569D01*
X129101115Y-115617748D01*
X128792916Y-115524257D01*
X128472400Y-115492689D01*
X128290547Y-115510600D01*
X115752722Y-115510600D01*
X115672400Y-115502689D01*
X115592078Y-115510600D01*
X115351884Y-115534257D01*
X115043685Y-115627748D01*
X114759648Y-115779569D01*
X114510686Y-115983886D01*
X114306369Y-116232848D01*
X114154548Y-116516885D01*
X114061057Y-116825084D01*
X114029489Y-117145600D01*
X110495017Y-117145600D01*
X110419894Y-116907093D01*
X110209867Y-116514162D01*
X109853349Y-116310056D01*
X108256605Y-117906800D01*
X107897395Y-117906800D01*
X106300651Y-116310056D01*
X105944133Y-116514162D01*
X105713425Y-116957023D01*
X105573548Y-117436383D01*
X105529877Y-117933821D01*
X101532400Y-117933821D01*
X101532400Y-116130451D01*
X106480256Y-116130451D01*
X108077000Y-117727195D01*
X109673744Y-116130451D01*
X109469638Y-115773933D01*
X109026777Y-115543225D01*
X108547417Y-115403348D01*
X108049979Y-115359677D01*
X107553578Y-115413891D01*
X107077293Y-115563906D01*
X106684362Y-115773933D01*
X106480256Y-116130451D01*
X101532400Y-116130451D01*
X101532400Y-114174651D01*
X151489056Y-114174651D01*
X153085800Y-115771395D01*
X154682544Y-114174651D01*
X154478438Y-113818133D01*
X154035577Y-113587425D01*
X153556217Y-113447548D01*
X153058779Y-113403877D01*
X152562378Y-113458091D01*
X152086093Y-113608106D01*
X151693162Y-113818133D01*
X151489056Y-114174651D01*
X101532400Y-114174651D01*
X101532400Y-107751722D01*
X101540311Y-107671400D01*
X101532400Y-107591078D01*
X101532400Y-107581078D01*
X101508743Y-107340884D01*
X101415252Y-107032685D01*
X101263431Y-106748648D01*
X101059114Y-106499686D01*
X100810152Y-106295369D01*
X100526115Y-106143548D01*
X100217916Y-106050057D01*
X99897400Y-106018489D01*
X99715547Y-106036400D01*
X87177722Y-106036400D01*
X87097400Y-106028489D01*
X87017078Y-106036400D01*
X86776884Y-106060057D01*
X86468685Y-106153548D01*
X86184648Y-106305369D01*
X85935686Y-106509686D01*
X85731369Y-106758648D01*
X85579548Y-107042685D01*
X85486057Y-107350884D01*
X85454489Y-107671400D01*
X82487809Y-107671400D01*
X82490311Y-107646000D01*
X82482400Y-107565678D01*
X82482400Y-107555678D01*
X82458743Y-107315484D01*
X82365252Y-107007285D01*
X82213431Y-106723248D01*
X82009114Y-106474286D01*
X81760152Y-106269969D01*
X81476115Y-106118148D01*
X81167916Y-106024657D01*
X80847400Y-105993089D01*
X80665547Y-106011000D01*
X68127722Y-106011000D01*
X68047400Y-106003089D01*
X67967078Y-106011000D01*
X67726884Y-106034657D01*
X67418685Y-106128148D01*
X67134648Y-106279969D01*
X66885686Y-106484286D01*
X66681369Y-106733248D01*
X66529548Y-107017285D01*
X66436057Y-107325484D01*
X66404489Y-107646000D01*
X57743581Y-107646000D01*
X57799252Y-107455217D01*
X57842923Y-106957779D01*
X57788709Y-106461378D01*
X57638694Y-105985093D01*
X57428667Y-105592162D01*
X57072149Y-105388056D01*
X55475405Y-106984800D01*
X55116195Y-106984800D01*
X53519451Y-105388056D01*
X53162933Y-105592162D01*
X52932225Y-106035023D01*
X52792348Y-106514383D01*
X52748677Y-107011821D01*
X46129252Y-107011821D01*
X46129252Y-105208451D01*
X53699056Y-105208451D01*
X55295800Y-106805195D01*
X56892544Y-105208451D01*
X56688438Y-104851933D01*
X56245577Y-104621225D01*
X55766217Y-104481348D01*
X55268779Y-104437677D01*
X54772378Y-104491891D01*
X54296093Y-104641906D01*
X53903162Y-104851933D01*
X53699056Y-105208451D01*
X46129252Y-105208451D01*
X46129251Y-88570600D01*
X47354489Y-88570600D01*
X47362401Y-88650932D01*
X47362400Y-101290278D01*
X47354489Y-101370600D01*
X47386057Y-101691116D01*
X47479548Y-101999315D01*
X47631369Y-102283352D01*
X47769230Y-102451337D01*
X47835686Y-102532314D01*
X48084648Y-102736631D01*
X48368685Y-102888452D01*
X48676884Y-102981943D01*
X48997400Y-103013511D01*
X49077722Y-103005600D01*
X61877722Y-103005600D01*
X62117916Y-102981943D01*
X62426115Y-102888452D01*
X62710152Y-102736631D01*
X62959114Y-102532314D01*
X63163431Y-102283352D01*
X63315252Y-101999315D01*
X63408743Y-101691116D01*
X63440311Y-101370600D01*
X63432400Y-101290278D01*
X63432400Y-88650922D01*
X63440311Y-88570600D01*
X66404489Y-88570600D01*
X66412401Y-88650932D01*
X66412400Y-101290278D01*
X66404489Y-101370600D01*
X66436057Y-101691116D01*
X66529548Y-101999315D01*
X66681369Y-102283352D01*
X66819230Y-102451337D01*
X66885686Y-102532314D01*
X67134648Y-102736631D01*
X67418685Y-102888452D01*
X67726884Y-102981943D01*
X68047400Y-103013511D01*
X68127722Y-103005600D01*
X80927722Y-103005600D01*
X81167916Y-102981943D01*
X81476115Y-102888452D01*
X81760152Y-102736631D01*
X82009114Y-102532314D01*
X82213431Y-102283352D01*
X82365252Y-101999315D01*
X82458743Y-101691116D01*
X82490311Y-101370600D01*
X82482400Y-101290278D01*
X82482400Y-88650922D01*
X82487809Y-88596000D01*
X85454489Y-88596000D01*
X85462401Y-88676332D01*
X85462400Y-101315678D01*
X85454489Y-101396000D01*
X85486057Y-101716516D01*
X85579548Y-102024715D01*
X85731369Y-102308752D01*
X85896495Y-102509959D01*
X85935686Y-102557714D01*
X86184648Y-102762031D01*
X86468685Y-102913852D01*
X86776884Y-103007343D01*
X87097400Y-103038911D01*
X87177722Y-103031000D01*
X99977722Y-103031000D01*
X100217916Y-103007343D01*
X100526115Y-102913852D01*
X100810152Y-102762031D01*
X101059114Y-102557714D01*
X101263431Y-102308752D01*
X101415252Y-102024715D01*
X101508743Y-101716516D01*
X101540311Y-101396000D01*
X101532400Y-101315678D01*
X101532400Y-98146400D01*
X104504489Y-98146400D01*
X104512401Y-98226732D01*
X104512400Y-110866078D01*
X104504489Y-110946400D01*
X104536057Y-111266916D01*
X104629548Y-111575115D01*
X104781369Y-111859152D01*
X104958033Y-112074418D01*
X104985686Y-112108114D01*
X105234648Y-112312431D01*
X105518685Y-112464252D01*
X105826884Y-112557743D01*
X106147400Y-112589311D01*
X106227722Y-112581400D01*
X119027722Y-112581400D01*
X119267916Y-112557743D01*
X119576115Y-112464252D01*
X119860152Y-112312431D01*
X120109114Y-112108114D01*
X120313431Y-111859152D01*
X120465252Y-111575115D01*
X120558743Y-111266916D01*
X120590311Y-110946400D01*
X120582400Y-110866078D01*
X120582400Y-98226722D01*
X120590311Y-98146400D01*
X120582400Y-98066078D01*
X120582400Y-98056078D01*
X120558743Y-97815884D01*
X120465252Y-97507685D01*
X120313431Y-97223648D01*
X120109114Y-96974686D01*
X119860152Y-96770369D01*
X119576115Y-96618548D01*
X119267916Y-96525057D01*
X118947400Y-96493489D01*
X118765547Y-96511400D01*
X106227722Y-96511400D01*
X106147400Y-96503489D01*
X106067078Y-96511400D01*
X105826884Y-96535057D01*
X105518685Y-96628548D01*
X105234648Y-96780369D01*
X104985686Y-96984686D01*
X104781369Y-97233648D01*
X104629548Y-97517685D01*
X104536057Y-97825884D01*
X104504489Y-98146400D01*
X101532400Y-98146400D01*
X101532400Y-88676322D01*
X101540311Y-88596000D01*
X101532400Y-88515678D01*
X101532400Y-88505678D01*
X101508743Y-88265484D01*
X101415252Y-87957285D01*
X101263431Y-87673248D01*
X101059114Y-87424286D01*
X100810152Y-87219969D01*
X100526115Y-87068148D01*
X100217916Y-86974657D01*
X99897400Y-86943089D01*
X99715547Y-86961000D01*
X87177722Y-86961000D01*
X87097400Y-86953089D01*
X87017078Y-86961000D01*
X86776884Y-86984657D01*
X86468685Y-87078148D01*
X86184648Y-87229969D01*
X85935686Y-87434286D01*
X85731369Y-87683248D01*
X85579548Y-87967285D01*
X85486057Y-88275484D01*
X85454489Y-88596000D01*
X82487809Y-88596000D01*
X82490311Y-88570600D01*
X82482400Y-88490278D01*
X82482400Y-88480278D01*
X82458743Y-88240084D01*
X82365252Y-87931885D01*
X82213431Y-87647848D01*
X82009114Y-87398886D01*
X81917316Y-87323549D01*
X82324856Y-87323549D01*
X82528962Y-87680067D01*
X82971823Y-87910775D01*
X83451183Y-88050652D01*
X83948621Y-88094323D01*
X84445022Y-88040109D01*
X84921307Y-87890094D01*
X85314238Y-87680067D01*
X85518344Y-87323549D01*
X83921600Y-85726805D01*
X82324856Y-87323549D01*
X81917316Y-87323549D01*
X81760152Y-87194569D01*
X81476115Y-87042748D01*
X81167916Y-86949257D01*
X80847400Y-86917689D01*
X80665547Y-86935600D01*
X68127722Y-86935600D01*
X68047400Y-86927689D01*
X67967078Y-86935600D01*
X67726884Y-86959257D01*
X67418685Y-87052748D01*
X67134648Y-87204569D01*
X66885686Y-87408886D01*
X66681369Y-87657848D01*
X66529548Y-87941885D01*
X66436057Y-88250084D01*
X66404489Y-88570600D01*
X63440311Y-88570600D01*
X63432400Y-88490278D01*
X63432400Y-88480278D01*
X63408743Y-88240084D01*
X63315252Y-87931885D01*
X63163431Y-87647848D01*
X62959114Y-87398886D01*
X62710152Y-87194569D01*
X62426115Y-87042748D01*
X62117916Y-86949257D01*
X61797400Y-86917689D01*
X61615547Y-86935600D01*
X49077722Y-86935600D01*
X48997400Y-86927689D01*
X48917078Y-86935600D01*
X48676884Y-86959257D01*
X48368685Y-87052748D01*
X48084648Y-87204569D01*
X47835686Y-87408886D01*
X47631369Y-87657848D01*
X47479548Y-87941885D01*
X47386057Y-88250084D01*
X47354489Y-88570600D01*
X46129251Y-88570600D01*
X46129251Y-85574221D01*
X81374477Y-85574221D01*
X81428691Y-86070622D01*
X81578706Y-86546907D01*
X81788733Y-86939838D01*
X82145251Y-87143944D01*
X83741995Y-85547200D01*
X84101205Y-85547200D01*
X85697949Y-87143944D01*
X86054467Y-86939838D01*
X86285175Y-86496977D01*
X86425052Y-86017617D01*
X86468723Y-85520179D01*
X86414509Y-85023778D01*
X86264494Y-84547493D01*
X86054467Y-84154562D01*
X85697949Y-83950456D01*
X84101205Y-85547200D01*
X83741995Y-85547200D01*
X82145251Y-83950456D01*
X81788733Y-84154562D01*
X81558025Y-84597423D01*
X81418148Y-85076783D01*
X81374477Y-85574221D01*
X46129251Y-85574221D01*
X46129250Y-79279947D01*
X46137754Y-79193213D01*
X46152504Y-79144360D01*
X46176462Y-79099301D01*
X46208716Y-79059755D01*
X46248036Y-79027226D01*
X46292920Y-79002957D01*
X46341677Y-78987865D01*
X46426014Y-78979000D01*
X63480406Y-78979000D01*
X63511805Y-78975907D01*
X63517899Y-78975950D01*
X63528113Y-78974949D01*
X63722209Y-78954548D01*
X63787450Y-78941156D01*
X63852899Y-78928671D01*
X63862724Y-78925705D01*
X64049162Y-78867993D01*
X64110594Y-78842169D01*
X64172338Y-78817223D01*
X64181400Y-78812405D01*
X64353076Y-78719580D01*
X64408283Y-78682343D01*
X64464049Y-78645850D01*
X64472002Y-78639364D01*
X64622379Y-78514961D01*
X64669369Y-78467642D01*
X64716914Y-78421083D01*
X64723456Y-78413176D01*
X64846806Y-78261934D01*
X64883675Y-78206441D01*
X64921308Y-78151480D01*
X64926189Y-78142453D01*
X65017814Y-77970131D01*
X65043220Y-77908492D01*
X65069442Y-77847311D01*
X65072477Y-77837508D01*
X65128886Y-77650672D01*
X65141834Y-77585280D01*
X65155675Y-77520164D01*
X65156748Y-77509958D01*
X65175793Y-77315725D01*
X65175793Y-77315723D01*
X65179301Y-77280105D01*
X65179301Y-69495200D01*
X66404489Y-69495200D01*
X66412401Y-69575532D01*
X66412400Y-82214878D01*
X66404489Y-82295200D01*
X66436057Y-82615716D01*
X66529548Y-82923915D01*
X66681369Y-83207952D01*
X66850741Y-83414333D01*
X66885686Y-83456914D01*
X67134648Y-83661231D01*
X67418685Y-83813052D01*
X67726884Y-83906543D01*
X68047400Y-83938111D01*
X68127722Y-83930200D01*
X80927722Y-83930200D01*
X81167916Y-83906543D01*
X81476115Y-83813052D01*
X81555067Y-83770851D01*
X82324856Y-83770851D01*
X83921600Y-85367595D01*
X85518344Y-83770851D01*
X85314238Y-83414333D01*
X84871377Y-83183625D01*
X84392017Y-83043748D01*
X83894579Y-83000077D01*
X83398178Y-83054291D01*
X82921893Y-83204306D01*
X82528962Y-83414333D01*
X82324856Y-83770851D01*
X81555067Y-83770851D01*
X81760152Y-83661231D01*
X82009114Y-83456914D01*
X82213431Y-83207952D01*
X82365252Y-82923915D01*
X82458743Y-82615716D01*
X82490311Y-82295200D01*
X82482400Y-82214878D01*
X82482400Y-69575522D01*
X82487809Y-69520600D01*
X85454489Y-69520600D01*
X85462401Y-69600932D01*
X85462400Y-82240278D01*
X85454489Y-82320600D01*
X85486057Y-82641116D01*
X85579548Y-82949315D01*
X85731369Y-83233352D01*
X85879896Y-83414333D01*
X85935686Y-83482314D01*
X86184648Y-83686631D01*
X86468685Y-83838452D01*
X86776884Y-83931943D01*
X87097400Y-83963511D01*
X87177722Y-83955600D01*
X99977722Y-83955600D01*
X100217916Y-83931943D01*
X100526115Y-83838452D01*
X100810152Y-83686631D01*
X101059114Y-83482314D01*
X101263431Y-83233352D01*
X101415252Y-82949315D01*
X101508743Y-82641116D01*
X101540311Y-82320600D01*
X101532400Y-82240278D01*
X101532400Y-69600922D01*
X101540311Y-69520600D01*
X101532400Y-69440278D01*
X101532400Y-69430278D01*
X101508743Y-69190084D01*
X101415252Y-68881885D01*
X101263431Y-68597848D01*
X101059114Y-68348886D01*
X100810152Y-68144569D01*
X100526115Y-67992748D01*
X100217916Y-67899257D01*
X99897400Y-67867689D01*
X99715547Y-67885600D01*
X87177722Y-67885600D01*
X87097400Y-67877689D01*
X87017078Y-67885600D01*
X86776884Y-67909257D01*
X86468685Y-68002748D01*
X86184648Y-68154569D01*
X85935686Y-68358886D01*
X85731369Y-68607848D01*
X85579548Y-68891885D01*
X85486057Y-69200084D01*
X85454489Y-69520600D01*
X82487809Y-69520600D01*
X82490311Y-69495200D01*
X82482400Y-69414878D01*
X82482400Y-69404878D01*
X82458743Y-69164684D01*
X82365252Y-68856485D01*
X82213431Y-68572448D01*
X82009114Y-68323486D01*
X81760152Y-68119169D01*
X81476115Y-67967348D01*
X81167916Y-67873857D01*
X80847400Y-67842289D01*
X80665547Y-67860200D01*
X68127722Y-67860200D01*
X68047400Y-67852289D01*
X67967078Y-67860200D01*
X67726884Y-67883857D01*
X67418685Y-67977348D01*
X67134648Y-68129169D01*
X66885686Y-68333486D01*
X66681369Y-68582448D01*
X66529548Y-68866485D01*
X66436057Y-69174684D01*
X66404489Y-69495200D01*
X65179301Y-69495200D01*
X65179301Y-66974337D01*
X65187804Y-66887613D01*
X65202554Y-66838760D01*
X65226512Y-66793701D01*
X65258766Y-66754155D01*
X65298086Y-66721626D01*
X65342970Y-66697357D01*
X65391727Y-66682265D01*
X65476064Y-66673400D01*
X102080406Y-66673400D01*
X102111451Y-66670342D01*
X102114406Y-66670363D01*
X102124619Y-66669362D01*
X102172502Y-66664329D01*
X102188386Y-66662765D01*
X102188916Y-66662604D01*
X102221668Y-66659162D01*
X102286945Y-66645762D01*
X102352360Y-66633284D01*
X102362185Y-66630318D01*
X102455404Y-66601462D01*
X102516879Y-66575620D01*
X102578585Y-66550689D01*
X102587646Y-66545872D01*
X102673484Y-66499459D01*
X102728716Y-66462204D01*
X102784452Y-66425731D01*
X102792405Y-66419245D01*
X102867594Y-66357043D01*
X102914549Y-66309759D01*
X102962125Y-66263170D01*
X102968666Y-66255263D01*
X102968671Y-66255258D01*
X102968675Y-66255252D01*
X103030342Y-66179642D01*
X103067215Y-66124144D01*
X103104849Y-66069181D01*
X103109730Y-66060154D01*
X103155542Y-65973993D01*
X103180934Y-65912387D01*
X103207168Y-65851180D01*
X103210203Y-65841376D01*
X103238408Y-65747958D01*
X103251357Y-65682565D01*
X103265198Y-65617443D01*
X103266269Y-65607252D01*
X103266271Y-65607244D01*
X103266271Y-65607237D01*
X103275793Y-65510120D01*
X103279301Y-65474505D01*
X103279301Y-59995600D01*
X104504489Y-59995600D01*
X104512401Y-60075932D01*
X104512400Y-72715278D01*
X104504489Y-72795600D01*
X104536057Y-73116116D01*
X104629548Y-73424315D01*
X104781369Y-73708352D01*
X104907321Y-73861825D01*
X104985686Y-73957314D01*
X105234648Y-74161631D01*
X105518685Y-74313452D01*
X105826884Y-74406943D01*
X106147400Y-74438511D01*
X106227722Y-74430600D01*
X116197998Y-74430600D01*
X116027933Y-74527962D01*
X115797225Y-74970823D01*
X115657348Y-75450183D01*
X115613677Y-75947621D01*
X115667891Y-76444022D01*
X115817906Y-76920307D01*
X116027933Y-77313238D01*
X116242365Y-77436000D01*
X106227722Y-77436000D01*
X106147400Y-77428089D01*
X106067078Y-77436000D01*
X105826884Y-77459657D01*
X105518685Y-77553148D01*
X105234648Y-77704969D01*
X104985686Y-77909286D01*
X104781369Y-78158248D01*
X104629548Y-78442285D01*
X104536057Y-78750484D01*
X104504489Y-79071000D01*
X104512401Y-79151332D01*
X104512400Y-91790678D01*
X104504489Y-91871000D01*
X104536057Y-92191516D01*
X104629548Y-92499715D01*
X104781369Y-92783752D01*
X104985686Y-93032714D01*
X105234648Y-93237031D01*
X105518685Y-93388852D01*
X105826884Y-93482343D01*
X105933625Y-93492856D01*
X106147400Y-93513911D01*
X106227722Y-93506000D01*
X119027722Y-93506000D01*
X119267916Y-93482343D01*
X119576115Y-93388852D01*
X119656659Y-93345800D01*
X123579889Y-93345800D01*
X123587801Y-93426132D01*
X123587800Y-106065478D01*
X123579889Y-106145800D01*
X123611457Y-106466316D01*
X123704948Y-106774515D01*
X123856769Y-107058552D01*
X123943640Y-107164405D01*
X124061086Y-107307514D01*
X124310048Y-107511831D01*
X124594085Y-107663652D01*
X124902284Y-107757143D01*
X125222800Y-107788711D01*
X125303122Y-107780800D01*
X138103122Y-107780800D01*
X138343316Y-107757143D01*
X138651515Y-107663652D01*
X138935552Y-107511831D01*
X139184514Y-107307514D01*
X139388831Y-107058552D01*
X139540652Y-106774515D01*
X139634143Y-106466316D01*
X139665711Y-106145800D01*
X139657800Y-106065478D01*
X139657800Y-98121000D01*
X142604489Y-98121000D01*
X142612401Y-98201332D01*
X142612400Y-110840678D01*
X142604489Y-110921000D01*
X142636057Y-111241516D01*
X142729548Y-111549715D01*
X142881369Y-111833752D01*
X143036808Y-112023156D01*
X143085686Y-112082714D01*
X143334648Y-112287031D01*
X143618685Y-112438852D01*
X143926884Y-112532343D01*
X144247400Y-112563911D01*
X144327722Y-112556000D01*
X157127722Y-112556000D01*
X157367916Y-112532343D01*
X157676115Y-112438852D01*
X157960152Y-112287031D01*
X158209114Y-112082714D01*
X158413431Y-111833752D01*
X158565252Y-111549715D01*
X158658743Y-111241516D01*
X158690311Y-110921000D01*
X158682400Y-110840678D01*
X158682400Y-100508600D01*
X161629089Y-100508600D01*
X161637001Y-100588932D01*
X161637000Y-113228278D01*
X161629089Y-113308600D01*
X161660657Y-113629116D01*
X161754148Y-113937315D01*
X161905969Y-114221352D01*
X162009585Y-114347609D01*
X162110286Y-114470314D01*
X162359248Y-114674631D01*
X162643285Y-114826452D01*
X162951484Y-114919943D01*
X163272000Y-114951511D01*
X163352322Y-114943600D01*
X176152322Y-114943600D01*
X176392516Y-114919943D01*
X176700715Y-114826452D01*
X176984752Y-114674631D01*
X177233714Y-114470314D01*
X177438031Y-114221352D01*
X177589852Y-113937315D01*
X177683343Y-113629116D01*
X177708685Y-113371813D01*
X185248844Y-113371813D01*
X185301307Y-113689579D01*
X185414756Y-113991004D01*
X185584828Y-114264503D01*
X185804991Y-114499569D01*
X186066782Y-114687165D01*
X186140298Y-114720475D01*
X197225424Y-121120475D01*
X197445266Y-121220085D01*
X197758920Y-121293219D01*
X198080814Y-121303756D01*
X198398580Y-121251293D01*
X198700004Y-121137845D01*
X198973504Y-120967772D01*
X199208569Y-120747609D01*
X199396165Y-120485818D01*
X199429475Y-120412301D01*
X205749155Y-109466295D01*
X205796165Y-109400692D01*
X205829474Y-109327178D01*
X205834475Y-109318516D01*
X205934085Y-109098674D01*
X206007219Y-108785020D01*
X206017756Y-108463126D01*
X205965293Y-108145360D01*
X205851845Y-107843936D01*
X205681772Y-107570436D01*
X205461609Y-107335371D01*
X205199818Y-107147775D01*
X205033383Y-107072364D01*
X194175296Y-100803446D01*
X194109692Y-100756435D01*
X193816333Y-100623515D01*
X193502679Y-100550381D01*
X193190990Y-100540178D01*
X193180787Y-100539844D01*
X193180786Y-100539844D01*
X192863020Y-100592306D01*
X192561595Y-100705755D01*
X192288096Y-100875828D01*
X192053031Y-101095991D01*
X191912446Y-101292176D01*
X191912440Y-101292186D01*
X191865435Y-101357782D01*
X191832131Y-101431286D01*
X185512446Y-112377304D01*
X185465435Y-112442908D01*
X185432127Y-112516421D01*
X185432125Y-112516424D01*
X185332516Y-112736267D01*
X185259382Y-113049921D01*
X185248844Y-113371813D01*
X177708685Y-113371813D01*
X177714911Y-113308600D01*
X177707000Y-113228278D01*
X177707000Y-100588922D01*
X177714911Y-100508600D01*
X177707000Y-100428278D01*
X177707000Y-100418278D01*
X177683343Y-100178084D01*
X177589852Y-99869885D01*
X177438031Y-99585848D01*
X177233714Y-99336886D01*
X176984752Y-99132569D01*
X176700715Y-98980748D01*
X176392516Y-98887257D01*
X176072000Y-98855689D01*
X175890147Y-98873600D01*
X163352322Y-98873600D01*
X163272000Y-98865689D01*
X163191678Y-98873600D01*
X162951484Y-98897257D01*
X162643285Y-98990748D01*
X162359248Y-99142569D01*
X162110286Y-99346886D01*
X161905969Y-99595848D01*
X161754148Y-99879885D01*
X161660657Y-100188084D01*
X161629089Y-100508600D01*
X158682400Y-100508600D01*
X158682400Y-98201322D01*
X158690311Y-98121000D01*
X158682400Y-98040678D01*
X158682400Y-98030678D01*
X158663537Y-97839149D01*
X180775256Y-97839149D01*
X180979362Y-98195667D01*
X181422223Y-98426375D01*
X181901583Y-98566252D01*
X182399021Y-98609923D01*
X182895422Y-98555709D01*
X183371707Y-98405694D01*
X183764638Y-98195667D01*
X183968744Y-97839149D01*
X182372000Y-96242405D01*
X180775256Y-97839149D01*
X158663537Y-97839149D01*
X158658743Y-97790484D01*
X158565252Y-97482285D01*
X158413431Y-97198248D01*
X158209114Y-96949286D01*
X157960152Y-96744969D01*
X157676115Y-96593148D01*
X157367916Y-96499657D01*
X157047400Y-96468089D01*
X156865547Y-96486000D01*
X144327722Y-96486000D01*
X144247400Y-96478089D01*
X144167078Y-96486000D01*
X143926884Y-96509657D01*
X143618685Y-96603148D01*
X143334648Y-96754969D01*
X143085686Y-96959286D01*
X142881369Y-97208248D01*
X142729548Y-97492285D01*
X142636057Y-97800484D01*
X142604489Y-98121000D01*
X139657800Y-98121000D01*
X139657800Y-96089821D01*
X179824877Y-96089821D01*
X179879091Y-96586222D01*
X180029106Y-97062507D01*
X180239133Y-97455438D01*
X180595651Y-97659544D01*
X182192395Y-96062800D01*
X182551605Y-96062800D01*
X184148349Y-97659544D01*
X184504867Y-97455438D01*
X184735575Y-97012577D01*
X184875452Y-96533217D01*
X184919123Y-96035779D01*
X184864909Y-95539378D01*
X184714894Y-95063093D01*
X184504867Y-94670162D01*
X184148349Y-94466056D01*
X182551605Y-96062800D01*
X182192395Y-96062800D01*
X180595651Y-94466056D01*
X180239133Y-94670162D01*
X180008425Y-95113023D01*
X179868548Y-95592383D01*
X179824877Y-96089821D01*
X139657800Y-96089821D01*
X139657800Y-93426122D01*
X139665711Y-93345800D01*
X139657800Y-93265478D01*
X139657800Y-93255478D01*
X139634143Y-93015284D01*
X139540652Y-92707085D01*
X139388831Y-92423048D01*
X139184514Y-92174086D01*
X138935552Y-91969769D01*
X138651515Y-91817948D01*
X138343316Y-91724457D01*
X138022800Y-91692889D01*
X137840947Y-91710800D01*
X125303122Y-91710800D01*
X125222800Y-91702889D01*
X125142478Y-91710800D01*
X124902284Y-91734457D01*
X124594085Y-91827948D01*
X124310048Y-91979769D01*
X124061086Y-92184086D01*
X123856769Y-92433048D01*
X123704948Y-92717085D01*
X123611457Y-93025284D01*
X123579889Y-93345800D01*
X119656659Y-93345800D01*
X119860152Y-93237031D01*
X120109114Y-93032714D01*
X120313431Y-92783752D01*
X120465252Y-92499715D01*
X120558743Y-92191516D01*
X120590311Y-91871000D01*
X120582400Y-91790678D01*
X120582400Y-79151322D01*
X120590311Y-79071000D01*
X120582400Y-78990678D01*
X120582400Y-78980678D01*
X120558743Y-78740484D01*
X120465252Y-78432285D01*
X120313431Y-78148248D01*
X120109114Y-77899286D01*
X119860152Y-77694969D01*
X119635468Y-77574873D01*
X118160800Y-76100205D01*
X118146658Y-76114348D01*
X117967053Y-75934743D01*
X117981195Y-75920600D01*
X118340405Y-75920600D01*
X119937149Y-77517344D01*
X120293667Y-77313238D01*
X120524375Y-76870377D01*
X120664252Y-76391017D01*
X120707923Y-75893579D01*
X120653709Y-75397178D01*
X120503694Y-74920893D01*
X120293667Y-74527962D01*
X119937149Y-74323856D01*
X118340405Y-75920600D01*
X117981195Y-75920600D01*
X117967053Y-75906458D01*
X118146658Y-75726853D01*
X118160800Y-75740995D01*
X119602384Y-74299411D01*
X119656659Y-74270400D01*
X123579889Y-74270400D01*
X123587801Y-74350732D01*
X123587800Y-86990078D01*
X123579889Y-87070400D01*
X123611457Y-87390916D01*
X123704948Y-87699115D01*
X123856769Y-87983152D01*
X124052879Y-88222114D01*
X124061086Y-88232114D01*
X124310048Y-88436431D01*
X124594085Y-88588252D01*
X124902284Y-88681743D01*
X125222800Y-88713311D01*
X125303122Y-88705400D01*
X138103122Y-88705400D01*
X138343316Y-88681743D01*
X138651515Y-88588252D01*
X138935552Y-88436431D01*
X139184514Y-88232114D01*
X139388831Y-87983152D01*
X139540652Y-87699115D01*
X139634143Y-87390916D01*
X139665711Y-87070400D01*
X139657800Y-86990078D01*
X139657800Y-79045600D01*
X142604489Y-79045600D01*
X142612401Y-79125932D01*
X142612400Y-91765278D01*
X142604489Y-91845600D01*
X142636057Y-92166116D01*
X142729548Y-92474315D01*
X142881369Y-92758352D01*
X143085686Y-93007314D01*
X143334648Y-93211631D01*
X143618685Y-93363452D01*
X143926884Y-93456943D01*
X144125684Y-93476523D01*
X144247400Y-93488511D01*
X144327722Y-93480600D01*
X157127722Y-93480600D01*
X157367916Y-93456943D01*
X157676115Y-93363452D01*
X157960152Y-93211631D01*
X158209114Y-93007314D01*
X158413431Y-92758352D01*
X158565252Y-92474315D01*
X158658743Y-92166116D01*
X158690311Y-91845600D01*
X158682400Y-91765278D01*
X158682400Y-81433200D01*
X161629089Y-81433200D01*
X161637001Y-81513532D01*
X161637000Y-94152878D01*
X161629089Y-94233200D01*
X161660657Y-94553716D01*
X161754148Y-94861915D01*
X161905969Y-95145952D01*
X162102079Y-95384914D01*
X162110286Y-95394914D01*
X162359248Y-95599231D01*
X162643285Y-95751052D01*
X162951484Y-95844543D01*
X163272000Y-95876111D01*
X163352322Y-95868200D01*
X176152322Y-95868200D01*
X176392516Y-95844543D01*
X176700715Y-95751052D01*
X176984752Y-95599231D01*
X177233714Y-95394914D01*
X177438031Y-95145952D01*
X177589852Y-94861915D01*
X177683343Y-94553716D01*
X177714911Y-94233200D01*
X177707000Y-94152878D01*
X177707000Y-81513522D01*
X177714911Y-81433200D01*
X177707000Y-81352878D01*
X177707000Y-81342878D01*
X177683343Y-81102684D01*
X177589852Y-80794485D01*
X177438031Y-80510448D01*
X177233714Y-80261486D01*
X176984752Y-80057169D01*
X176700715Y-79905348D01*
X176392516Y-79811857D01*
X176072000Y-79780289D01*
X175890147Y-79798200D01*
X163352322Y-79798200D01*
X163272000Y-79790289D01*
X163191678Y-79798200D01*
X162951484Y-79821857D01*
X162643285Y-79915348D01*
X162359248Y-80067169D01*
X162110286Y-80271486D01*
X161905969Y-80520448D01*
X161754148Y-80804485D01*
X161660657Y-81112684D01*
X161629089Y-81433200D01*
X158682400Y-81433200D01*
X158682400Y-79125922D01*
X158690311Y-79045600D01*
X158682400Y-78965278D01*
X158682400Y-78955278D01*
X158658743Y-78715084D01*
X158565252Y-78406885D01*
X158413431Y-78122848D01*
X158328928Y-78019880D01*
X158347057Y-78001751D01*
X158551162Y-78358267D01*
X158994023Y-78588975D01*
X159473383Y-78728852D01*
X159970821Y-78772523D01*
X160467222Y-78718309D01*
X160943507Y-78568294D01*
X161336438Y-78358267D01*
X161540544Y-78001749D01*
X159943800Y-76405005D01*
X159929658Y-76419148D01*
X159750053Y-76239543D01*
X159764195Y-76225400D01*
X158167451Y-74628656D01*
X157810933Y-74832762D01*
X157580225Y-75275623D01*
X157440348Y-75754983D01*
X157396677Y-76252421D01*
X157450891Y-76748822D01*
X157600906Y-77225107D01*
X157789810Y-77578519D01*
X157676115Y-77517748D01*
X157367916Y-77424257D01*
X157047400Y-77392689D01*
X156865547Y-77410600D01*
X144327722Y-77410600D01*
X144247400Y-77402689D01*
X144167078Y-77410600D01*
X143926884Y-77434257D01*
X143618685Y-77527748D01*
X143334648Y-77679569D01*
X143085686Y-77883886D01*
X142881369Y-78132848D01*
X142729548Y-78416885D01*
X142636057Y-78725084D01*
X142604489Y-79045600D01*
X139657800Y-79045600D01*
X139657800Y-74449051D01*
X158347056Y-74449051D01*
X159943800Y-76045795D01*
X159957943Y-76031653D01*
X160137548Y-76211258D01*
X160123405Y-76225400D01*
X161720149Y-77822144D01*
X162076667Y-77618038D01*
X162307375Y-77175177D01*
X162447252Y-76695817D01*
X162457730Y-76576471D01*
X162643285Y-76675652D01*
X162951484Y-76769143D01*
X163272000Y-76800711D01*
X163352322Y-76792800D01*
X176152322Y-76792800D01*
X176392516Y-76769143D01*
X176700715Y-76675652D01*
X176984752Y-76523831D01*
X177233714Y-76319514D01*
X177438031Y-76070552D01*
X177589852Y-75786515D01*
X177683343Y-75478316D01*
X177714911Y-75157800D01*
X177707000Y-75077478D01*
X177707000Y-62438122D01*
X177714911Y-62357800D01*
X177707000Y-62277478D01*
X177707000Y-62267478D01*
X177683343Y-62027284D01*
X177589852Y-61719085D01*
X177438031Y-61435048D01*
X177233714Y-61186086D01*
X176984752Y-60981769D01*
X176700715Y-60829948D01*
X176392516Y-60736457D01*
X176072000Y-60704889D01*
X175890147Y-60722800D01*
X163352322Y-60722800D01*
X163272000Y-60714889D01*
X163191678Y-60722800D01*
X162951484Y-60746457D01*
X162643285Y-60839948D01*
X162359248Y-60991769D01*
X162110286Y-61196086D01*
X161905969Y-61445048D01*
X161754148Y-61729085D01*
X161660657Y-62037284D01*
X161629089Y-62357800D01*
X161637001Y-62438132D01*
X161637000Y-74352592D01*
X161540543Y-74449049D01*
X161336438Y-74092533D01*
X160893577Y-73861825D01*
X160414217Y-73721948D01*
X159916779Y-73678277D01*
X159420378Y-73732491D01*
X158944093Y-73882506D01*
X158551162Y-74092533D01*
X158347056Y-74449051D01*
X139657800Y-74449051D01*
X139657800Y-74350722D01*
X139665711Y-74270400D01*
X139657800Y-74190078D01*
X139657800Y-74180078D01*
X139634143Y-73939884D01*
X139540652Y-73631685D01*
X139388831Y-73347648D01*
X139184514Y-73098686D01*
X138935552Y-72894369D01*
X138651515Y-72742548D01*
X138343316Y-72649057D01*
X138022800Y-72617489D01*
X137840947Y-72635400D01*
X125303122Y-72635400D01*
X125222800Y-72627489D01*
X125142478Y-72635400D01*
X124902284Y-72659057D01*
X124594085Y-72752548D01*
X124310048Y-72904369D01*
X124061086Y-73108686D01*
X123856769Y-73357648D01*
X123704948Y-73641685D01*
X123611457Y-73949884D01*
X123579889Y-74270400D01*
X119656659Y-74270400D01*
X119860152Y-74161631D01*
X120109114Y-73957314D01*
X120313431Y-73708352D01*
X120465252Y-73424315D01*
X120558743Y-73116116D01*
X120590311Y-72795600D01*
X120582400Y-72715278D01*
X120582400Y-60075922D01*
X120590311Y-59995600D01*
X120582400Y-59915278D01*
X120582400Y-59905278D01*
X120558743Y-59665084D01*
X120465252Y-59356885D01*
X120313431Y-59072848D01*
X120109114Y-58823886D01*
X119860152Y-58619569D01*
X119576115Y-58467748D01*
X119267916Y-58374257D01*
X118947400Y-58342689D01*
X118765547Y-58360600D01*
X106227722Y-58360600D01*
X106147400Y-58352689D01*
X106067078Y-58360600D01*
X105826884Y-58384257D01*
X105518685Y-58477748D01*
X105234648Y-58629569D01*
X104985686Y-58833886D01*
X104781369Y-59082848D01*
X104629548Y-59366885D01*
X104536057Y-59675084D01*
X104504489Y-59995600D01*
X103279301Y-59995600D01*
X103279301Y-57148700D01*
X121130405Y-57148700D01*
X121161450Y-57145642D01*
X121164405Y-57145663D01*
X121174618Y-57144662D01*
X121222501Y-57139629D01*
X121238385Y-57138065D01*
X121238915Y-57137904D01*
X121271667Y-57134462D01*
X121336944Y-57121062D01*
X121402359Y-57108584D01*
X121412184Y-57105618D01*
X121505403Y-57076762D01*
X121566878Y-57050920D01*
X121628584Y-57025989D01*
X121637645Y-57021172D01*
X121723483Y-56974759D01*
X121778715Y-56937504D01*
X121834451Y-56901031D01*
X121842404Y-56894545D01*
X121917593Y-56832343D01*
X121964548Y-56785059D01*
X122012124Y-56738470D01*
X122018665Y-56730563D01*
X122018670Y-56730558D01*
X122018674Y-56730552D01*
X122080341Y-56654942D01*
X122117214Y-56599444D01*
X122154848Y-56544481D01*
X122159729Y-56535454D01*
X122205541Y-56449293D01*
X122230933Y-56387687D01*
X122257167Y-56326480D01*
X122260202Y-56316676D01*
X122288407Y-56223258D01*
X122301356Y-56157865D01*
X122315197Y-56092743D01*
X122316268Y-56082552D01*
X122316270Y-56082544D01*
X122316270Y-56082537D01*
X122325516Y-55988233D01*
X122329301Y-55949805D01*
X122329301Y-55195000D01*
X123579889Y-55195000D01*
X123587801Y-55275332D01*
X123587800Y-67914678D01*
X123579889Y-67995000D01*
X123611457Y-68315516D01*
X123704948Y-68623715D01*
X123856769Y-68907752D01*
X124052879Y-69146714D01*
X124061086Y-69156714D01*
X124310048Y-69361031D01*
X124594085Y-69512852D01*
X124902284Y-69606343D01*
X125222800Y-69637911D01*
X125303122Y-69630000D01*
X138103122Y-69630000D01*
X138343316Y-69606343D01*
X138651515Y-69512852D01*
X138935552Y-69361031D01*
X139184514Y-69156714D01*
X139388831Y-68907752D01*
X139540652Y-68623715D01*
X139634143Y-68315516D01*
X139665711Y-67995000D01*
X139657800Y-67914678D01*
X139657800Y-59970200D01*
X142604489Y-59970200D01*
X142612401Y-60050532D01*
X142612400Y-72689878D01*
X142604489Y-72770200D01*
X142636057Y-73090716D01*
X142729548Y-73398915D01*
X142881369Y-73682952D01*
X143028166Y-73861825D01*
X143085686Y-73931914D01*
X143334648Y-74136231D01*
X143618685Y-74288052D01*
X143926884Y-74381543D01*
X144247400Y-74413111D01*
X144327722Y-74405200D01*
X157127722Y-74405200D01*
X157367916Y-74381543D01*
X157676115Y-74288052D01*
X157960152Y-74136231D01*
X158209114Y-73931914D01*
X158413431Y-73682952D01*
X158565252Y-73398915D01*
X158658743Y-73090716D01*
X158690311Y-72770200D01*
X158682400Y-72689878D01*
X158682400Y-60050522D01*
X158690311Y-59970200D01*
X158682400Y-59889878D01*
X158682400Y-59879878D01*
X158658743Y-59639684D01*
X158565252Y-59331485D01*
X158413431Y-59047448D01*
X158209114Y-58798486D01*
X157960152Y-58594169D01*
X157676115Y-58442348D01*
X157367916Y-58348857D01*
X157047400Y-58317289D01*
X156865547Y-58335200D01*
X144327722Y-58335200D01*
X144247400Y-58327289D01*
X144167078Y-58335200D01*
X143926884Y-58358857D01*
X143618685Y-58452348D01*
X143334648Y-58604169D01*
X143085686Y-58808486D01*
X142881369Y-59057448D01*
X142729548Y-59341485D01*
X142636057Y-59649684D01*
X142604489Y-59970200D01*
X139657800Y-59970200D01*
X139657800Y-55275322D01*
X139665711Y-55195000D01*
X139657800Y-55114678D01*
X139657800Y-55104678D01*
X139634143Y-54864484D01*
X139540652Y-54556285D01*
X139388831Y-54272248D01*
X139184514Y-54023286D01*
X138935552Y-53818969D01*
X138651515Y-53667148D01*
X138343316Y-53573657D01*
X138022800Y-53542089D01*
X137840947Y-53560000D01*
X125303122Y-53560000D01*
X125222800Y-53552089D01*
X125142478Y-53560000D01*
X124902284Y-53583657D01*
X124594085Y-53677148D01*
X124310048Y-53828969D01*
X124061086Y-54033286D01*
X123856769Y-54282248D01*
X123704948Y-54566285D01*
X123611457Y-54874484D01*
X123579889Y-55195000D01*
X122329301Y-55195000D01*
X122329301Y-52385700D01*
X140858601Y-52385700D01*
X140858602Y-55949806D01*
G04 #@! TA.AperFunction,Conductor*
D14*
G36*
X140858602Y-55949806D02*
G01*
X140861659Y-55980842D01*
X140861638Y-55983806D01*
X140862639Y-55994019D01*
X140867687Y-56042053D01*
X140869237Y-56057786D01*
X140869396Y-56058311D01*
X140872839Y-56091068D01*
X140886246Y-56156381D01*
X140898718Y-56221763D01*
X140901684Y-56231587D01*
X140930540Y-56324805D01*
X140956369Y-56386248D01*
X140981310Y-56447981D01*
X140986127Y-56457042D01*
X141032540Y-56542881D01*
X141069796Y-56598115D01*
X141106270Y-56653852D01*
X141112756Y-56661805D01*
X141174958Y-56736994D01*
X141222264Y-56783971D01*
X141268835Y-56831528D01*
X141276742Y-56838070D01*
X141352363Y-56899745D01*
X141407882Y-56936632D01*
X141462817Y-56974246D01*
X141471844Y-56979128D01*
X141558004Y-57024940D01*
X141619627Y-57050339D01*
X141680820Y-57076567D01*
X141690624Y-57079602D01*
X141784042Y-57107807D01*
X141849435Y-57120756D01*
X141914557Y-57134597D01*
X141924748Y-57135668D01*
X141924756Y-57135670D01*
X141924763Y-57135670D01*
X142021289Y-57145134D01*
X142057495Y-57148700D01*
X179238394Y-57148700D01*
X179325138Y-57157205D01*
X179373991Y-57171955D01*
X179419050Y-57195913D01*
X179458596Y-57228167D01*
X179491125Y-57267487D01*
X179515394Y-57312371D01*
X179530486Y-57361128D01*
X179539351Y-57445465D01*
X179539352Y-92249806D01*
X179542444Y-92281196D01*
X179542401Y-92287299D01*
X179543402Y-92297513D01*
X179563803Y-92491609D01*
X179577195Y-92556850D01*
X179589680Y-92622299D01*
X179592646Y-92632124D01*
X179650358Y-92818562D01*
X179676182Y-92879994D01*
X179701128Y-92941738D01*
X179705946Y-92950800D01*
X179798771Y-93122476D01*
X179836008Y-93177683D01*
X179872501Y-93233449D01*
X179878987Y-93241402D01*
X180003390Y-93391779D01*
X180050697Y-93438757D01*
X180097268Y-93486314D01*
X180105175Y-93492856D01*
X180256417Y-93616206D01*
X180311910Y-93653075D01*
X180366871Y-93690708D01*
X180375898Y-93695589D01*
X180548220Y-93787214D01*
X180609859Y-93812620D01*
X180671040Y-93838842D01*
X180680843Y-93841877D01*
X180867679Y-93898286D01*
X180933071Y-93911234D01*
X180991221Y-93923594D01*
X180979362Y-93929933D01*
X180775256Y-94286451D01*
X182372000Y-95883195D01*
X183968744Y-94286451D01*
X183775382Y-93948700D01*
X200269361Y-93948700D01*
X200356095Y-93957204D01*
X200404949Y-93971955D01*
X200450003Y-93995910D01*
X200489551Y-94028165D01*
X200522080Y-94067485D01*
X200546352Y-94112376D01*
X200561442Y-94161125D01*
X200570307Y-94245466D01*
X200570308Y-96997333D01*
X200571566Y-97010107D01*
X200573193Y-97056679D01*
X200578964Y-97099927D01*
X200581401Y-97143487D01*
X200583042Y-97153618D01*
X200615596Y-97346048D01*
X200633070Y-97410356D01*
X200649634Y-97474857D01*
X200653211Y-97484476D01*
X200722522Y-97666920D01*
X200752145Y-97726589D01*
X200780930Y-97786664D01*
X200786308Y-97795405D01*
X200889736Y-97960911D01*
X200930395Y-98013704D01*
X200970291Y-98067031D01*
X200977263Y-98074561D01*
X201110869Y-98216826D01*
X201161020Y-98260727D01*
X201210500Y-98305276D01*
X201218796Y-98311303D01*
X201218803Y-98311309D01*
X201218810Y-98311313D01*
X201377495Y-98424913D01*
X201377501Y-98424917D01*
X201406589Y-98445759D01*
X208820937Y-102726103D01*
X208891796Y-102776829D01*
X208926733Y-102814031D01*
X208953775Y-102857304D01*
X208971899Y-102905010D01*
X208984288Y-102978241D01*
X208984573Y-102986411D01*
X208984574Y-116378324D01*
X208976069Y-116465067D01*
X208957953Y-116525070D01*
X208936882Y-116567893D01*
X203849507Y-125380245D01*
X203839196Y-125403005D01*
X203784250Y-125515159D01*
X203764724Y-125567380D01*
X203742943Y-125618686D01*
X203739942Y-125628499D01*
X203684174Y-125815527D01*
X203671448Y-125880974D01*
X203657832Y-125946130D01*
X203656794Y-125956339D01*
X203638416Y-126150638D01*
X203638645Y-126217269D01*
X203637943Y-126283865D01*
X203638908Y-126294082D01*
X203658619Y-126488250D01*
X203671791Y-126553596D01*
X203684033Y-126619032D01*
X203686963Y-126628867D01*
X203744012Y-126815508D01*
X203769628Y-126877056D01*
X203794345Y-126938865D01*
X203799130Y-126947943D01*
X203891345Y-127119950D01*
X203928411Y-127175326D01*
X203964680Y-127231182D01*
X203971138Y-127239158D01*
X204095007Y-127389977D01*
X204095019Y-127389989D01*
X204117712Y-127417644D01*
X218018888Y-141320506D01*
X218074198Y-141387850D01*
X218098309Y-141432825D01*
X218113225Y-141481624D01*
X218118380Y-141532397D01*
X218113575Y-141583197D01*
X218098993Y-141632099D01*
X218075190Y-141677238D01*
X218021823Y-141743134D01*
X198593898Y-161167919D01*
X198526542Y-161223236D01*
X198481564Y-161247348D01*
X198432763Y-161262264D01*
X198381994Y-161267417D01*
X198331190Y-161262610D01*
X198282284Y-161248026D01*
X198237148Y-161224224D01*
X198181872Y-161179455D01*
X196782569Y-159537917D01*
X196773886Y-159528170D01*
X196765275Y-159518344D01*
X194408713Y-156944944D01*
X194386545Y-156921772D01*
X191919975Y-154453613D01*
X191908645Y-154442760D01*
X191896817Y-154431430D01*
X189324935Y-152073210D01*
X189300832Y-152052059D01*
X186628533Y-149808267D01*
X186628153Y-149807962D01*
X186603530Y-149788186D01*
X183835904Y-147663094D01*
X183819507Y-147651064D01*
X183810049Y-147644124D01*
X180952360Y-145641777D01*
X180925702Y-145623953D01*
X180925701Y-145623952D01*
X177983392Y-143748162D01*
X177955982Y-143731518D01*
X174934652Y-141985854D01*
X174924688Y-141980384D01*
X174906542Y-141970420D01*
X171811942Y-140358207D01*
X171783186Y-140344015D01*
X168621208Y-138868320D01*
X168611457Y-138864026D01*
X168591860Y-138855395D01*
X165368523Y-137519029D01*
X165338639Y-137507397D01*
X164835301Y-137324013D01*
X171431244Y-137324013D01*
X171483707Y-137641779D01*
X171597156Y-137943204D01*
X171767228Y-138216703D01*
X171987391Y-138451769D01*
X172249182Y-138639365D01*
X172322698Y-138672675D01*
X183407824Y-145072675D01*
X183627666Y-145172285D01*
X183941320Y-145245419D01*
X184263214Y-145255956D01*
X184580980Y-145203493D01*
X184882404Y-145090045D01*
X185155904Y-144919972D01*
X185251111Y-144830800D01*
X191134523Y-144830800D01*
X191166092Y-145151316D01*
X191259582Y-145459514D01*
X191411404Y-145743552D01*
X191615721Y-145992513D01*
X191678111Y-146043715D01*
X200729076Y-155094681D01*
X200915647Y-155247796D01*
X201199685Y-155399618D01*
X201507883Y-155493109D01*
X201828400Y-155524677D01*
X202148916Y-155493109D01*
X202457114Y-155399618D01*
X202741152Y-155247796D01*
X202990113Y-155043479D01*
X203041316Y-154981088D01*
X211978694Y-146043711D01*
X212041079Y-145992513D01*
X212092277Y-145930128D01*
X212099352Y-145923053D01*
X212252467Y-145736482D01*
X212404289Y-145452444D01*
X212497780Y-145144246D01*
X212529348Y-144823729D01*
X212497780Y-144503213D01*
X212404289Y-144195015D01*
X212252467Y-143910977D01*
X212048150Y-143662016D01*
X211906901Y-143546096D01*
X203041316Y-134680512D01*
X202990113Y-134618121D01*
X202741152Y-134413804D01*
X202457114Y-134261982D01*
X202148916Y-134168491D01*
X201828400Y-134136923D01*
X201507883Y-134168491D01*
X201199685Y-134261982D01*
X200915647Y-134413804D01*
X200729076Y-134566919D01*
X200729072Y-134566923D01*
X200666687Y-134618121D01*
X200615489Y-134680506D01*
X191678112Y-143617884D01*
X191615721Y-143669087D01*
X191550826Y-143748162D01*
X191411404Y-143918048D01*
X191259582Y-144202086D01*
X191166092Y-144510284D01*
X191134523Y-144830800D01*
X185251111Y-144830800D01*
X185390969Y-144699809D01*
X185578565Y-144438018D01*
X185611875Y-144364501D01*
X191931555Y-133418495D01*
X191978565Y-133352892D01*
X192011874Y-133279378D01*
X192016875Y-133270716D01*
X192116485Y-133050874D01*
X192189619Y-132737220D01*
X192200156Y-132415326D01*
X192190651Y-132357749D01*
X196726456Y-132357749D01*
X196930562Y-132714267D01*
X197373423Y-132944975D01*
X197852783Y-133084852D01*
X198350221Y-133128523D01*
X198846622Y-133074309D01*
X199322907Y-132924294D01*
X199715838Y-132714267D01*
X199919944Y-132357749D01*
X198323200Y-130761005D01*
X196726456Y-132357749D01*
X192190651Y-132357749D01*
X192147693Y-132097560D01*
X192034245Y-131796136D01*
X191864172Y-131522636D01*
X191644009Y-131287571D01*
X191382218Y-131099975D01*
X191215783Y-131024564D01*
X190495003Y-130608421D01*
X195776077Y-130608421D01*
X195830291Y-131104822D01*
X195980306Y-131581107D01*
X196190333Y-131974038D01*
X196546851Y-132178144D01*
X198143595Y-130581400D01*
X198502805Y-130581400D01*
X200099549Y-132178144D01*
X200456067Y-131974038D01*
X200686775Y-131531177D01*
X200826652Y-131051817D01*
X200870323Y-130554379D01*
X200816109Y-130057978D01*
X200666094Y-129581693D01*
X200456067Y-129188762D01*
X200099549Y-128984656D01*
X198502805Y-130581400D01*
X198143595Y-130581400D01*
X196546851Y-128984656D01*
X196190333Y-129188762D01*
X195959625Y-129631623D01*
X195819748Y-130110983D01*
X195776077Y-130608421D01*
X190495003Y-130608421D01*
X187371474Y-128805051D01*
X196726456Y-128805051D01*
X198323200Y-130401795D01*
X199919944Y-128805051D01*
X199715838Y-128448533D01*
X199272977Y-128217825D01*
X198793617Y-128077948D01*
X198296179Y-128034277D01*
X197799778Y-128088491D01*
X197323493Y-128238506D01*
X196930562Y-128448533D01*
X196726456Y-128805051D01*
X187371474Y-128805051D01*
X180357696Y-124755646D01*
X180292092Y-124708635D01*
X180214074Y-124673285D01*
X180180242Y-124657956D01*
X179998733Y-124575715D01*
X179685079Y-124502581D01*
X179373390Y-124492378D01*
X179363187Y-124492044D01*
X179363186Y-124492044D01*
X179045420Y-124544506D01*
X178743995Y-124657955D01*
X178470496Y-124828028D01*
X178235431Y-125048191D01*
X178094846Y-125244376D01*
X178094840Y-125244386D01*
X178047835Y-125309982D01*
X178014531Y-125383486D01*
X171694846Y-136329504D01*
X171647835Y-136395108D01*
X171614527Y-136468621D01*
X171614525Y-136468624D01*
X171514916Y-136688467D01*
X171441782Y-137002121D01*
X171431244Y-137324013D01*
X164835301Y-137324013D01*
X162060078Y-136312902D01*
X162059601Y-136312740D01*
X162029715Y-136302584D01*
X158702173Y-135252235D01*
X158671389Y-135243252D01*
X155301197Y-134339049D01*
X155282408Y-134334445D01*
X155270051Y-134331417D01*
X151863625Y-133575079D01*
X151863113Y-133574977D01*
X151832176Y-133568812D01*
X148396001Y-132961781D01*
X148372311Y-132958127D01*
X148370227Y-132957700D01*
X148099143Y-132919678D01*
X148071112Y-132917529D01*
X148043203Y-132914003D01*
X146802817Y-132835964D01*
X146779825Y-132833700D01*
X113105248Y-132833700D01*
X113018515Y-132825196D01*
X112969661Y-132810446D01*
X112924602Y-132786488D01*
X112885055Y-132754234D01*
X112852528Y-132714915D01*
X112828258Y-132670029D01*
X112813166Y-132621273D01*
X112804301Y-132536935D01*
X112804301Y-125001595D01*
X112801208Y-124970196D01*
X112801251Y-124964102D01*
X112800250Y-124953888D01*
X112779849Y-124759791D01*
X112766456Y-124694543D01*
X112753972Y-124629102D01*
X112751006Y-124619277D01*
X112693294Y-124432839D01*
X112667476Y-124371420D01*
X112642524Y-124309662D01*
X112637706Y-124300601D01*
X112544881Y-124128924D01*
X112507616Y-124073677D01*
X112471151Y-124017952D01*
X112464665Y-124009999D01*
X112340261Y-123859621D01*
X112292955Y-123812644D01*
X112246384Y-123765087D01*
X112238477Y-123758545D01*
X112087235Y-123635195D01*
X112031716Y-123598308D01*
X111976781Y-123560694D01*
X111967754Y-123555812D01*
X111795432Y-123464187D01*
X111733805Y-123438786D01*
X111672612Y-123412559D01*
X111662809Y-123409524D01*
X111475973Y-123353115D01*
X111410581Y-123340167D01*
X111345465Y-123326326D01*
X111335259Y-123325253D01*
X111141025Y-123306208D01*
X111141024Y-123306208D01*
X111105406Y-123302700D01*
X65480248Y-123302700D01*
X65393515Y-123294196D01*
X65344661Y-123279446D01*
X65299602Y-123255488D01*
X65260055Y-123223234D01*
X65227528Y-123183915D01*
X65203258Y-123139029D01*
X65188166Y-123090273D01*
X65179301Y-123005935D01*
X65179301Y-112707895D01*
X65176208Y-112676496D01*
X65176251Y-112670402D01*
X65175250Y-112660188D01*
X65154849Y-112466091D01*
X65141456Y-112400843D01*
X65128972Y-112335402D01*
X65126006Y-112325577D01*
X65068294Y-112139139D01*
X65042476Y-112077720D01*
X65017524Y-112015962D01*
X65012706Y-112006901D01*
X64919881Y-111835224D01*
X64882616Y-111779977D01*
X64846151Y-111724252D01*
X64839665Y-111716299D01*
X64715261Y-111565921D01*
X64667955Y-111518944D01*
X64621384Y-111471387D01*
X64613477Y-111464845D01*
X64462235Y-111341495D01*
X64406716Y-111304608D01*
X64351781Y-111266994D01*
X64342754Y-111262112D01*
X64170432Y-111170487D01*
X64108805Y-111145086D01*
X64047612Y-111118859D01*
X64037809Y-111115824D01*
X63850973Y-111059415D01*
X63785581Y-111046467D01*
X63720465Y-111032626D01*
X63710259Y-111031553D01*
X63516025Y-111012508D01*
X63516024Y-111012508D01*
X63480406Y-111009000D01*
X46430208Y-111009000D01*
X46343465Y-111000495D01*
X46294611Y-110985745D01*
X46249553Y-110961787D01*
X46210005Y-110929533D01*
X46177479Y-110890215D01*
X46153207Y-110845324D01*
X46138117Y-110796576D01*
X46129252Y-110712235D01*
X46129252Y-108761149D01*
X53699056Y-108761149D01*
X53903162Y-109117667D01*
X54346023Y-109348375D01*
X54825383Y-109488252D01*
X55322821Y-109531923D01*
X55819222Y-109477709D01*
X56295507Y-109327694D01*
X56688438Y-109117667D01*
X56892544Y-108761149D01*
X55295800Y-107164405D01*
X53699056Y-108761149D01*
X46129252Y-108761149D01*
X46129252Y-107011821D01*
X52748677Y-107011821D01*
X52802891Y-107508222D01*
X52952906Y-107984507D01*
X53162933Y-108377438D01*
X53519451Y-108581544D01*
X55116195Y-106984800D01*
X55475405Y-106984800D01*
X57072149Y-108581544D01*
X57428667Y-108377438D01*
X57659375Y-107934577D01*
X57743581Y-107646000D01*
X66404489Y-107646000D01*
X66412401Y-107726332D01*
X66412400Y-120365678D01*
X66404489Y-120446000D01*
X66436057Y-120766516D01*
X66529548Y-121074715D01*
X66681369Y-121358752D01*
X66822205Y-121530362D01*
X66885686Y-121607714D01*
X67134648Y-121812031D01*
X67418685Y-121963852D01*
X67726884Y-122057343D01*
X68047400Y-122088911D01*
X68127722Y-122081000D01*
X80927722Y-122081000D01*
X81167916Y-122057343D01*
X81476115Y-121963852D01*
X81760152Y-121812031D01*
X82009114Y-121607714D01*
X82213431Y-121358752D01*
X82365252Y-121074715D01*
X82458743Y-120766516D01*
X82490311Y-120446000D01*
X82482400Y-120365678D01*
X82482400Y-107726322D01*
X82487809Y-107671400D01*
X85454489Y-107671400D01*
X85462401Y-107751732D01*
X85462400Y-120391078D01*
X85454489Y-120471400D01*
X85486057Y-120791916D01*
X85579548Y-121100115D01*
X85731369Y-121384152D01*
X85851360Y-121530362D01*
X85935686Y-121633114D01*
X86184648Y-121837431D01*
X86468685Y-121989252D01*
X86776884Y-122082743D01*
X87097400Y-122114311D01*
X87177722Y-122106400D01*
X99977722Y-122106400D01*
X100217916Y-122082743D01*
X100526115Y-121989252D01*
X100810152Y-121837431D01*
X101059114Y-121633114D01*
X101263431Y-121384152D01*
X101415252Y-121100115D01*
X101508743Y-120791916D01*
X101540311Y-120471400D01*
X101532400Y-120391078D01*
X101532400Y-119683149D01*
X106480256Y-119683149D01*
X106684362Y-120039667D01*
X107127223Y-120270375D01*
X107606583Y-120410252D01*
X108104021Y-120453923D01*
X108600422Y-120399709D01*
X109076707Y-120249694D01*
X109469638Y-120039667D01*
X109673744Y-119683149D01*
X108077000Y-118086405D01*
X106480256Y-119683149D01*
X101532400Y-119683149D01*
X101532400Y-117933821D01*
X105529877Y-117933821D01*
X105584091Y-118430222D01*
X105734106Y-118906507D01*
X105944133Y-119299438D01*
X106300651Y-119503544D01*
X107897395Y-117906800D01*
X108256605Y-117906800D01*
X109853349Y-119503544D01*
X110209867Y-119299438D01*
X110440575Y-118856577D01*
X110580452Y-118377217D01*
X110624123Y-117879779D01*
X110569909Y-117383378D01*
X110495017Y-117145600D01*
X114029489Y-117145600D01*
X114037401Y-117225932D01*
X114037400Y-129865278D01*
X114029489Y-129945600D01*
X114061057Y-130266116D01*
X114154548Y-130574315D01*
X114306369Y-130858352D01*
X114395579Y-130967055D01*
X114510686Y-131107314D01*
X114759648Y-131311631D01*
X115043685Y-131463452D01*
X115351884Y-131556943D01*
X115672400Y-131588511D01*
X115752722Y-131580600D01*
X128552722Y-131580600D01*
X128792916Y-131556943D01*
X129101115Y-131463452D01*
X129385152Y-131311631D01*
X129634114Y-131107314D01*
X129838431Y-130858352D01*
X129990252Y-130574315D01*
X130083743Y-130266116D01*
X130115311Y-129945600D01*
X130107400Y-129865278D01*
X130107400Y-117225922D01*
X130112809Y-117171000D01*
X133079489Y-117171000D01*
X133087401Y-117251332D01*
X133087400Y-129890678D01*
X133079489Y-129971000D01*
X133111057Y-130291516D01*
X133204548Y-130599715D01*
X133356369Y-130883752D01*
X133424734Y-130967055D01*
X133560686Y-131132714D01*
X133809648Y-131337031D01*
X134093685Y-131488852D01*
X134401884Y-131582343D01*
X134722400Y-131613911D01*
X134802722Y-131606000D01*
X147602722Y-131606000D01*
X147842916Y-131582343D01*
X148151115Y-131488852D01*
X148435152Y-131337031D01*
X148684114Y-131132714D01*
X148783483Y-131011632D01*
X152802840Y-131011632D01*
X152813378Y-131333526D01*
X152886511Y-131647178D01*
X153019430Y-131940538D01*
X153207028Y-132202329D01*
X153442092Y-132422492D01*
X153715593Y-132592565D01*
X154017017Y-132706013D01*
X154096654Y-132719161D01*
X166460499Y-136032044D01*
X166698631Y-136071360D01*
X167020526Y-136060822D01*
X167334179Y-135987689D01*
X167627539Y-135854770D01*
X167889330Y-135667172D01*
X168109492Y-135432108D01*
X168279565Y-135158608D01*
X168393013Y-134857183D01*
X168406161Y-134777544D01*
X171677465Y-122568875D01*
X171705897Y-122493333D01*
X171719045Y-122413697D01*
X171721632Y-122404042D01*
X171760948Y-122165910D01*
X171750410Y-121844015D01*
X171677277Y-121530362D01*
X171544358Y-121237002D01*
X171356760Y-120975211D01*
X171121696Y-120755049D01*
X170848196Y-120584976D01*
X170546771Y-120471528D01*
X170366487Y-120441763D01*
X158255873Y-117196734D01*
X158180333Y-117168303D01*
X157862568Y-117115840D01*
X157540674Y-117126377D01*
X157227021Y-117199511D01*
X156933661Y-117332430D01*
X156671870Y-117520027D01*
X156451708Y-117755092D01*
X156281634Y-118028592D01*
X156206908Y-118227137D01*
X156168187Y-118330017D01*
X156155040Y-118409645D01*
X152883734Y-130618327D01*
X152855303Y-130693867D01*
X152842156Y-130773499D01*
X152802840Y-131011632D01*
X148783483Y-131011632D01*
X148888431Y-130883752D01*
X149040252Y-130599715D01*
X149133743Y-130291516D01*
X149165311Y-129971000D01*
X149157400Y-129890678D01*
X149157400Y-117727349D01*
X151489056Y-117727349D01*
X151693162Y-118083867D01*
X152136023Y-118314575D01*
X152615383Y-118454452D01*
X153112821Y-118498123D01*
X153609222Y-118443909D01*
X154085507Y-118293894D01*
X154478438Y-118083867D01*
X154682544Y-117727349D01*
X153085800Y-116130605D01*
X151489056Y-117727349D01*
X149157400Y-117727349D01*
X149157400Y-117251322D01*
X149165311Y-117171000D01*
X149157400Y-117090678D01*
X149157400Y-117080678D01*
X149133743Y-116840484D01*
X149040252Y-116532285D01*
X148888431Y-116248248D01*
X148684114Y-115999286D01*
X148658203Y-115978021D01*
X150538677Y-115978021D01*
X150592891Y-116474422D01*
X150742906Y-116950707D01*
X150952933Y-117343638D01*
X151309451Y-117547744D01*
X152906195Y-115951000D01*
X153265405Y-115951000D01*
X154862149Y-117547744D01*
X155218667Y-117343638D01*
X155449375Y-116900777D01*
X155589252Y-116421417D01*
X155632923Y-115923979D01*
X155578709Y-115427578D01*
X155428694Y-114951293D01*
X155218667Y-114558362D01*
X154862149Y-114354256D01*
X153265405Y-115951000D01*
X152906195Y-115951000D01*
X151309451Y-114354256D01*
X150952933Y-114558362D01*
X150722225Y-115001223D01*
X150582348Y-115480583D01*
X150538677Y-115978021D01*
X148658203Y-115978021D01*
X148435152Y-115794969D01*
X148151115Y-115643148D01*
X147842916Y-115549657D01*
X147522400Y-115518089D01*
X147340547Y-115536000D01*
X134802722Y-115536000D01*
X134722400Y-115528089D01*
X134642078Y-115536000D01*
X134401884Y-115559657D01*
X134093685Y-115653148D01*
X133809648Y-115804969D01*
X133560686Y-116009286D01*
X133356369Y-116258248D01*
X133204548Y-116542285D01*
X133111057Y-116850484D01*
X133079489Y-117171000D01*
X130112809Y-117171000D01*
X130115311Y-117145600D01*
X130107400Y-117065278D01*
X130107400Y-117055278D01*
X130083743Y-116815084D01*
X129990252Y-116506885D01*
X129838431Y-116222848D01*
X129634114Y-115973886D01*
X129385152Y-115769569D01*
X129101115Y-115617748D01*
X128792916Y-115524257D01*
X128472400Y-115492689D01*
X128290547Y-115510600D01*
X115752722Y-115510600D01*
X115672400Y-115502689D01*
X115592078Y-115510600D01*
X115351884Y-115534257D01*
X115043685Y-115627748D01*
X114759648Y-115779569D01*
X114510686Y-115983886D01*
X114306369Y-116232848D01*
X114154548Y-116516885D01*
X114061057Y-116825084D01*
X114029489Y-117145600D01*
X110495017Y-117145600D01*
X110419894Y-116907093D01*
X110209867Y-116514162D01*
X109853349Y-116310056D01*
X108256605Y-117906800D01*
X107897395Y-117906800D01*
X106300651Y-116310056D01*
X105944133Y-116514162D01*
X105713425Y-116957023D01*
X105573548Y-117436383D01*
X105529877Y-117933821D01*
X101532400Y-117933821D01*
X101532400Y-116130451D01*
X106480256Y-116130451D01*
X108077000Y-117727195D01*
X109673744Y-116130451D01*
X109469638Y-115773933D01*
X109026777Y-115543225D01*
X108547417Y-115403348D01*
X108049979Y-115359677D01*
X107553578Y-115413891D01*
X107077293Y-115563906D01*
X106684362Y-115773933D01*
X106480256Y-116130451D01*
X101532400Y-116130451D01*
X101532400Y-114174651D01*
X151489056Y-114174651D01*
X153085800Y-115771395D01*
X154682544Y-114174651D01*
X154478438Y-113818133D01*
X154035577Y-113587425D01*
X153556217Y-113447548D01*
X153058779Y-113403877D01*
X152562378Y-113458091D01*
X152086093Y-113608106D01*
X151693162Y-113818133D01*
X151489056Y-114174651D01*
X101532400Y-114174651D01*
X101532400Y-107751722D01*
X101540311Y-107671400D01*
X101532400Y-107591078D01*
X101532400Y-107581078D01*
X101508743Y-107340884D01*
X101415252Y-107032685D01*
X101263431Y-106748648D01*
X101059114Y-106499686D01*
X100810152Y-106295369D01*
X100526115Y-106143548D01*
X100217916Y-106050057D01*
X99897400Y-106018489D01*
X99715547Y-106036400D01*
X87177722Y-106036400D01*
X87097400Y-106028489D01*
X87017078Y-106036400D01*
X86776884Y-106060057D01*
X86468685Y-106153548D01*
X86184648Y-106305369D01*
X85935686Y-106509686D01*
X85731369Y-106758648D01*
X85579548Y-107042685D01*
X85486057Y-107350884D01*
X85454489Y-107671400D01*
X82487809Y-107671400D01*
X82490311Y-107646000D01*
X82482400Y-107565678D01*
X82482400Y-107555678D01*
X82458743Y-107315484D01*
X82365252Y-107007285D01*
X82213431Y-106723248D01*
X82009114Y-106474286D01*
X81760152Y-106269969D01*
X81476115Y-106118148D01*
X81167916Y-106024657D01*
X80847400Y-105993089D01*
X80665547Y-106011000D01*
X68127722Y-106011000D01*
X68047400Y-106003089D01*
X67967078Y-106011000D01*
X67726884Y-106034657D01*
X67418685Y-106128148D01*
X67134648Y-106279969D01*
X66885686Y-106484286D01*
X66681369Y-106733248D01*
X66529548Y-107017285D01*
X66436057Y-107325484D01*
X66404489Y-107646000D01*
X57743581Y-107646000D01*
X57799252Y-107455217D01*
X57842923Y-106957779D01*
X57788709Y-106461378D01*
X57638694Y-105985093D01*
X57428667Y-105592162D01*
X57072149Y-105388056D01*
X55475405Y-106984800D01*
X55116195Y-106984800D01*
X53519451Y-105388056D01*
X53162933Y-105592162D01*
X52932225Y-106035023D01*
X52792348Y-106514383D01*
X52748677Y-107011821D01*
X46129252Y-107011821D01*
X46129252Y-105208451D01*
X53699056Y-105208451D01*
X55295800Y-106805195D01*
X56892544Y-105208451D01*
X56688438Y-104851933D01*
X56245577Y-104621225D01*
X55766217Y-104481348D01*
X55268779Y-104437677D01*
X54772378Y-104491891D01*
X54296093Y-104641906D01*
X53903162Y-104851933D01*
X53699056Y-105208451D01*
X46129252Y-105208451D01*
X46129251Y-88570600D01*
X47354489Y-88570600D01*
X47362401Y-88650932D01*
X47362400Y-101290278D01*
X47354489Y-101370600D01*
X47386057Y-101691116D01*
X47479548Y-101999315D01*
X47631369Y-102283352D01*
X47769230Y-102451337D01*
X47835686Y-102532314D01*
X48084648Y-102736631D01*
X48368685Y-102888452D01*
X48676884Y-102981943D01*
X48997400Y-103013511D01*
X49077722Y-103005600D01*
X61877722Y-103005600D01*
X62117916Y-102981943D01*
X62426115Y-102888452D01*
X62710152Y-102736631D01*
X62959114Y-102532314D01*
X63163431Y-102283352D01*
X63315252Y-101999315D01*
X63408743Y-101691116D01*
X63440311Y-101370600D01*
X63432400Y-101290278D01*
X63432400Y-88650922D01*
X63440311Y-88570600D01*
X66404489Y-88570600D01*
X66412401Y-88650932D01*
X66412400Y-101290278D01*
X66404489Y-101370600D01*
X66436057Y-101691116D01*
X66529548Y-101999315D01*
X66681369Y-102283352D01*
X66819230Y-102451337D01*
X66885686Y-102532314D01*
X67134648Y-102736631D01*
X67418685Y-102888452D01*
X67726884Y-102981943D01*
X68047400Y-103013511D01*
X68127722Y-103005600D01*
X80927722Y-103005600D01*
X81167916Y-102981943D01*
X81476115Y-102888452D01*
X81760152Y-102736631D01*
X82009114Y-102532314D01*
X82213431Y-102283352D01*
X82365252Y-101999315D01*
X82458743Y-101691116D01*
X82490311Y-101370600D01*
X82482400Y-101290278D01*
X82482400Y-88650922D01*
X82487809Y-88596000D01*
X85454489Y-88596000D01*
X85462401Y-88676332D01*
X85462400Y-101315678D01*
X85454489Y-101396000D01*
X85486057Y-101716516D01*
X85579548Y-102024715D01*
X85731369Y-102308752D01*
X85896495Y-102509959D01*
X85935686Y-102557714D01*
X86184648Y-102762031D01*
X86468685Y-102913852D01*
X86776884Y-103007343D01*
X87097400Y-103038911D01*
X87177722Y-103031000D01*
X99977722Y-103031000D01*
X100217916Y-103007343D01*
X100526115Y-102913852D01*
X100810152Y-102762031D01*
X101059114Y-102557714D01*
X101263431Y-102308752D01*
X101415252Y-102024715D01*
X101508743Y-101716516D01*
X101540311Y-101396000D01*
X101532400Y-101315678D01*
X101532400Y-98146400D01*
X104504489Y-98146400D01*
X104512401Y-98226732D01*
X104512400Y-110866078D01*
X104504489Y-110946400D01*
X104536057Y-111266916D01*
X104629548Y-111575115D01*
X104781369Y-111859152D01*
X104958033Y-112074418D01*
X104985686Y-112108114D01*
X105234648Y-112312431D01*
X105518685Y-112464252D01*
X105826884Y-112557743D01*
X106147400Y-112589311D01*
X106227722Y-112581400D01*
X119027722Y-112581400D01*
X119267916Y-112557743D01*
X119576115Y-112464252D01*
X119860152Y-112312431D01*
X120109114Y-112108114D01*
X120313431Y-111859152D01*
X120465252Y-111575115D01*
X120558743Y-111266916D01*
X120590311Y-110946400D01*
X120582400Y-110866078D01*
X120582400Y-98226722D01*
X120590311Y-98146400D01*
X120582400Y-98066078D01*
X120582400Y-98056078D01*
X120558743Y-97815884D01*
X120465252Y-97507685D01*
X120313431Y-97223648D01*
X120109114Y-96974686D01*
X119860152Y-96770369D01*
X119576115Y-96618548D01*
X119267916Y-96525057D01*
X118947400Y-96493489D01*
X118765547Y-96511400D01*
X106227722Y-96511400D01*
X106147400Y-96503489D01*
X106067078Y-96511400D01*
X105826884Y-96535057D01*
X105518685Y-96628548D01*
X105234648Y-96780369D01*
X104985686Y-96984686D01*
X104781369Y-97233648D01*
X104629548Y-97517685D01*
X104536057Y-97825884D01*
X104504489Y-98146400D01*
X101532400Y-98146400D01*
X101532400Y-88676322D01*
X101540311Y-88596000D01*
X101532400Y-88515678D01*
X101532400Y-88505678D01*
X101508743Y-88265484D01*
X101415252Y-87957285D01*
X101263431Y-87673248D01*
X101059114Y-87424286D01*
X100810152Y-87219969D01*
X100526115Y-87068148D01*
X100217916Y-86974657D01*
X99897400Y-86943089D01*
X99715547Y-86961000D01*
X87177722Y-86961000D01*
X87097400Y-86953089D01*
X87017078Y-86961000D01*
X86776884Y-86984657D01*
X86468685Y-87078148D01*
X86184648Y-87229969D01*
X85935686Y-87434286D01*
X85731369Y-87683248D01*
X85579548Y-87967285D01*
X85486057Y-88275484D01*
X85454489Y-88596000D01*
X82487809Y-88596000D01*
X82490311Y-88570600D01*
X82482400Y-88490278D01*
X82482400Y-88480278D01*
X82458743Y-88240084D01*
X82365252Y-87931885D01*
X82213431Y-87647848D01*
X82009114Y-87398886D01*
X81917316Y-87323549D01*
X82324856Y-87323549D01*
X82528962Y-87680067D01*
X82971823Y-87910775D01*
X83451183Y-88050652D01*
X83948621Y-88094323D01*
X84445022Y-88040109D01*
X84921307Y-87890094D01*
X85314238Y-87680067D01*
X85518344Y-87323549D01*
X83921600Y-85726805D01*
X82324856Y-87323549D01*
X81917316Y-87323549D01*
X81760152Y-87194569D01*
X81476115Y-87042748D01*
X81167916Y-86949257D01*
X80847400Y-86917689D01*
X80665547Y-86935600D01*
X68127722Y-86935600D01*
X68047400Y-86927689D01*
X67967078Y-86935600D01*
X67726884Y-86959257D01*
X67418685Y-87052748D01*
X67134648Y-87204569D01*
X66885686Y-87408886D01*
X66681369Y-87657848D01*
X66529548Y-87941885D01*
X66436057Y-88250084D01*
X66404489Y-88570600D01*
X63440311Y-88570600D01*
X63432400Y-88490278D01*
X63432400Y-88480278D01*
X63408743Y-88240084D01*
X63315252Y-87931885D01*
X63163431Y-87647848D01*
X62959114Y-87398886D01*
X62710152Y-87194569D01*
X62426115Y-87042748D01*
X62117916Y-86949257D01*
X61797400Y-86917689D01*
X61615547Y-86935600D01*
X49077722Y-86935600D01*
X48997400Y-86927689D01*
X48917078Y-86935600D01*
X48676884Y-86959257D01*
X48368685Y-87052748D01*
X48084648Y-87204569D01*
X47835686Y-87408886D01*
X47631369Y-87657848D01*
X47479548Y-87941885D01*
X47386057Y-88250084D01*
X47354489Y-88570600D01*
X46129251Y-88570600D01*
X46129251Y-85574221D01*
X81374477Y-85574221D01*
X81428691Y-86070622D01*
X81578706Y-86546907D01*
X81788733Y-86939838D01*
X82145251Y-87143944D01*
X83741995Y-85547200D01*
X84101205Y-85547200D01*
X85697949Y-87143944D01*
X86054467Y-86939838D01*
X86285175Y-86496977D01*
X86425052Y-86017617D01*
X86468723Y-85520179D01*
X86414509Y-85023778D01*
X86264494Y-84547493D01*
X86054467Y-84154562D01*
X85697949Y-83950456D01*
X84101205Y-85547200D01*
X83741995Y-85547200D01*
X82145251Y-83950456D01*
X81788733Y-84154562D01*
X81558025Y-84597423D01*
X81418148Y-85076783D01*
X81374477Y-85574221D01*
X46129251Y-85574221D01*
X46129250Y-79279947D01*
X46137754Y-79193213D01*
X46152504Y-79144360D01*
X46176462Y-79099301D01*
X46208716Y-79059755D01*
X46248036Y-79027226D01*
X46292920Y-79002957D01*
X46341677Y-78987865D01*
X46426014Y-78979000D01*
X63480406Y-78979000D01*
X63511805Y-78975907D01*
X63517899Y-78975950D01*
X63528113Y-78974949D01*
X63722209Y-78954548D01*
X63787450Y-78941156D01*
X63852899Y-78928671D01*
X63862724Y-78925705D01*
X64049162Y-78867993D01*
X64110594Y-78842169D01*
X64172338Y-78817223D01*
X64181400Y-78812405D01*
X64353076Y-78719580D01*
X64408283Y-78682343D01*
X64464049Y-78645850D01*
X64472002Y-78639364D01*
X64622379Y-78514961D01*
X64669369Y-78467642D01*
X64716914Y-78421083D01*
X64723456Y-78413176D01*
X64846806Y-78261934D01*
X64883675Y-78206441D01*
X64921308Y-78151480D01*
X64926189Y-78142453D01*
X65017814Y-77970131D01*
X65043220Y-77908492D01*
X65069442Y-77847311D01*
X65072477Y-77837508D01*
X65128886Y-77650672D01*
X65141834Y-77585280D01*
X65155675Y-77520164D01*
X65156748Y-77509958D01*
X65175793Y-77315725D01*
X65175793Y-77315723D01*
X65179301Y-77280105D01*
X65179301Y-69495200D01*
X66404489Y-69495200D01*
X66412401Y-69575532D01*
X66412400Y-82214878D01*
X66404489Y-82295200D01*
X66436057Y-82615716D01*
X66529548Y-82923915D01*
X66681369Y-83207952D01*
X66850741Y-83414333D01*
X66885686Y-83456914D01*
X67134648Y-83661231D01*
X67418685Y-83813052D01*
X67726884Y-83906543D01*
X68047400Y-83938111D01*
X68127722Y-83930200D01*
X80927722Y-83930200D01*
X81167916Y-83906543D01*
X81476115Y-83813052D01*
X81555067Y-83770851D01*
X82324856Y-83770851D01*
X83921600Y-85367595D01*
X85518344Y-83770851D01*
X85314238Y-83414333D01*
X84871377Y-83183625D01*
X84392017Y-83043748D01*
X83894579Y-83000077D01*
X83398178Y-83054291D01*
X82921893Y-83204306D01*
X82528962Y-83414333D01*
X82324856Y-83770851D01*
X81555067Y-83770851D01*
X81760152Y-83661231D01*
X82009114Y-83456914D01*
X82213431Y-83207952D01*
X82365252Y-82923915D01*
X82458743Y-82615716D01*
X82490311Y-82295200D01*
X82482400Y-82214878D01*
X82482400Y-69575522D01*
X82487809Y-69520600D01*
X85454489Y-69520600D01*
X85462401Y-69600932D01*
X85462400Y-82240278D01*
X85454489Y-82320600D01*
X85486057Y-82641116D01*
X85579548Y-82949315D01*
X85731369Y-83233352D01*
X85879896Y-83414333D01*
X85935686Y-83482314D01*
X86184648Y-83686631D01*
X86468685Y-83838452D01*
X86776884Y-83931943D01*
X87097400Y-83963511D01*
X87177722Y-83955600D01*
X99977722Y-83955600D01*
X100217916Y-83931943D01*
X100526115Y-83838452D01*
X100810152Y-83686631D01*
X101059114Y-83482314D01*
X101263431Y-83233352D01*
X101415252Y-82949315D01*
X101508743Y-82641116D01*
X101540311Y-82320600D01*
X101532400Y-82240278D01*
X101532400Y-69600922D01*
X101540311Y-69520600D01*
X101532400Y-69440278D01*
X101532400Y-69430278D01*
X101508743Y-69190084D01*
X101415252Y-68881885D01*
X101263431Y-68597848D01*
X101059114Y-68348886D01*
X100810152Y-68144569D01*
X100526115Y-67992748D01*
X100217916Y-67899257D01*
X99897400Y-67867689D01*
X99715547Y-67885600D01*
X87177722Y-67885600D01*
X87097400Y-67877689D01*
X87017078Y-67885600D01*
X86776884Y-67909257D01*
X86468685Y-68002748D01*
X86184648Y-68154569D01*
X85935686Y-68358886D01*
X85731369Y-68607848D01*
X85579548Y-68891885D01*
X85486057Y-69200084D01*
X85454489Y-69520600D01*
X82487809Y-69520600D01*
X82490311Y-69495200D01*
X82482400Y-69414878D01*
X82482400Y-69404878D01*
X82458743Y-69164684D01*
X82365252Y-68856485D01*
X82213431Y-68572448D01*
X82009114Y-68323486D01*
X81760152Y-68119169D01*
X81476115Y-67967348D01*
X81167916Y-67873857D01*
X80847400Y-67842289D01*
X80665547Y-67860200D01*
X68127722Y-67860200D01*
X68047400Y-67852289D01*
X67967078Y-67860200D01*
X67726884Y-67883857D01*
X67418685Y-67977348D01*
X67134648Y-68129169D01*
X66885686Y-68333486D01*
X66681369Y-68582448D01*
X66529548Y-68866485D01*
X66436057Y-69174684D01*
X66404489Y-69495200D01*
X65179301Y-69495200D01*
X65179301Y-66974337D01*
X65187804Y-66887613D01*
X65202554Y-66838760D01*
X65226512Y-66793701D01*
X65258766Y-66754155D01*
X65298086Y-66721626D01*
X65342970Y-66697357D01*
X65391727Y-66682265D01*
X65476064Y-66673400D01*
X102080406Y-66673400D01*
X102111451Y-66670342D01*
X102114406Y-66670363D01*
X102124619Y-66669362D01*
X102172502Y-66664329D01*
X102188386Y-66662765D01*
X102188916Y-66662604D01*
X102221668Y-66659162D01*
X102286945Y-66645762D01*
X102352360Y-66633284D01*
X102362185Y-66630318D01*
X102455404Y-66601462D01*
X102516879Y-66575620D01*
X102578585Y-66550689D01*
X102587646Y-66545872D01*
X102673484Y-66499459D01*
X102728716Y-66462204D01*
X102784452Y-66425731D01*
X102792405Y-66419245D01*
X102867594Y-66357043D01*
X102914549Y-66309759D01*
X102962125Y-66263170D01*
X102968666Y-66255263D01*
X102968671Y-66255258D01*
X102968675Y-66255252D01*
X103030342Y-66179642D01*
X103067215Y-66124144D01*
X103104849Y-66069181D01*
X103109730Y-66060154D01*
X103155542Y-65973993D01*
X103180934Y-65912387D01*
X103207168Y-65851180D01*
X103210203Y-65841376D01*
X103238408Y-65747958D01*
X103251357Y-65682565D01*
X103265198Y-65617443D01*
X103266269Y-65607252D01*
X103266271Y-65607244D01*
X103266271Y-65607237D01*
X103275793Y-65510120D01*
X103279301Y-65474505D01*
X103279301Y-59995600D01*
X104504489Y-59995600D01*
X104512401Y-60075932D01*
X104512400Y-72715278D01*
X104504489Y-72795600D01*
X104536057Y-73116116D01*
X104629548Y-73424315D01*
X104781369Y-73708352D01*
X104907321Y-73861825D01*
X104985686Y-73957314D01*
X105234648Y-74161631D01*
X105518685Y-74313452D01*
X105826884Y-74406943D01*
X106147400Y-74438511D01*
X106227722Y-74430600D01*
X116197998Y-74430600D01*
X116027933Y-74527962D01*
X115797225Y-74970823D01*
X115657348Y-75450183D01*
X115613677Y-75947621D01*
X115667891Y-76444022D01*
X115817906Y-76920307D01*
X116027933Y-77313238D01*
X116242365Y-77436000D01*
X106227722Y-77436000D01*
X106147400Y-77428089D01*
X106067078Y-77436000D01*
X105826884Y-77459657D01*
X105518685Y-77553148D01*
X105234648Y-77704969D01*
X104985686Y-77909286D01*
X104781369Y-78158248D01*
X104629548Y-78442285D01*
X104536057Y-78750484D01*
X104504489Y-79071000D01*
X104512401Y-79151332D01*
X104512400Y-91790678D01*
X104504489Y-91871000D01*
X104536057Y-92191516D01*
X104629548Y-92499715D01*
X104781369Y-92783752D01*
X104985686Y-93032714D01*
X105234648Y-93237031D01*
X105518685Y-93388852D01*
X105826884Y-93482343D01*
X105933625Y-93492856D01*
X106147400Y-93513911D01*
X106227722Y-93506000D01*
X119027722Y-93506000D01*
X119267916Y-93482343D01*
X119576115Y-93388852D01*
X119656659Y-93345800D01*
X123579889Y-93345800D01*
X123587801Y-93426132D01*
X123587800Y-106065478D01*
X123579889Y-106145800D01*
X123611457Y-106466316D01*
X123704948Y-106774515D01*
X123856769Y-107058552D01*
X123943640Y-107164405D01*
X124061086Y-107307514D01*
X124310048Y-107511831D01*
X124594085Y-107663652D01*
X124902284Y-107757143D01*
X125222800Y-107788711D01*
X125303122Y-107780800D01*
X138103122Y-107780800D01*
X138343316Y-107757143D01*
X138651515Y-107663652D01*
X138935552Y-107511831D01*
X139184514Y-107307514D01*
X139388831Y-107058552D01*
X139540652Y-106774515D01*
X139634143Y-106466316D01*
X139665711Y-106145800D01*
X139657800Y-106065478D01*
X139657800Y-98121000D01*
X142604489Y-98121000D01*
X142612401Y-98201332D01*
X142612400Y-110840678D01*
X142604489Y-110921000D01*
X142636057Y-111241516D01*
X142729548Y-111549715D01*
X142881369Y-111833752D01*
X143036808Y-112023156D01*
X143085686Y-112082714D01*
X143334648Y-112287031D01*
X143618685Y-112438852D01*
X143926884Y-112532343D01*
X144247400Y-112563911D01*
X144327722Y-112556000D01*
X157127722Y-112556000D01*
X157367916Y-112532343D01*
X157676115Y-112438852D01*
X157960152Y-112287031D01*
X158209114Y-112082714D01*
X158413431Y-111833752D01*
X158565252Y-111549715D01*
X158658743Y-111241516D01*
X158690311Y-110921000D01*
X158682400Y-110840678D01*
X158682400Y-100508600D01*
X161629089Y-100508600D01*
X161637001Y-100588932D01*
X161637000Y-113228278D01*
X161629089Y-113308600D01*
X161660657Y-113629116D01*
X161754148Y-113937315D01*
X161905969Y-114221352D01*
X162009585Y-114347609D01*
X162110286Y-114470314D01*
X162359248Y-114674631D01*
X162643285Y-114826452D01*
X162951484Y-114919943D01*
X163272000Y-114951511D01*
X163352322Y-114943600D01*
X176152322Y-114943600D01*
X176392516Y-114919943D01*
X176700715Y-114826452D01*
X176984752Y-114674631D01*
X177233714Y-114470314D01*
X177438031Y-114221352D01*
X177589852Y-113937315D01*
X177683343Y-113629116D01*
X177708685Y-113371813D01*
X185248844Y-113371813D01*
X185301307Y-113689579D01*
X185414756Y-113991004D01*
X185584828Y-114264503D01*
X185804991Y-114499569D01*
X186066782Y-114687165D01*
X186140298Y-114720475D01*
X197225424Y-121120475D01*
X197445266Y-121220085D01*
X197758920Y-121293219D01*
X198080814Y-121303756D01*
X198398580Y-121251293D01*
X198700004Y-121137845D01*
X198973504Y-120967772D01*
X199208569Y-120747609D01*
X199396165Y-120485818D01*
X199429475Y-120412301D01*
X205749155Y-109466295D01*
X205796165Y-109400692D01*
X205829474Y-109327178D01*
X205834475Y-109318516D01*
X205934085Y-109098674D01*
X206007219Y-108785020D01*
X206017756Y-108463126D01*
X205965293Y-108145360D01*
X205851845Y-107843936D01*
X205681772Y-107570436D01*
X205461609Y-107335371D01*
X205199818Y-107147775D01*
X205033383Y-107072364D01*
X194175296Y-100803446D01*
X194109692Y-100756435D01*
X193816333Y-100623515D01*
X193502679Y-100550381D01*
X193190990Y-100540178D01*
X193180787Y-100539844D01*
X193180786Y-100539844D01*
X192863020Y-100592306D01*
X192561595Y-100705755D01*
X192288096Y-100875828D01*
X192053031Y-101095991D01*
X191912446Y-101292176D01*
X191912440Y-101292186D01*
X191865435Y-101357782D01*
X191832131Y-101431286D01*
X185512446Y-112377304D01*
X185465435Y-112442908D01*
X185432127Y-112516421D01*
X185432125Y-112516424D01*
X185332516Y-112736267D01*
X185259382Y-113049921D01*
X185248844Y-113371813D01*
X177708685Y-113371813D01*
X177714911Y-113308600D01*
X177707000Y-113228278D01*
X177707000Y-100588922D01*
X177714911Y-100508600D01*
X177707000Y-100428278D01*
X177707000Y-100418278D01*
X177683343Y-100178084D01*
X177589852Y-99869885D01*
X177438031Y-99585848D01*
X177233714Y-99336886D01*
X176984752Y-99132569D01*
X176700715Y-98980748D01*
X176392516Y-98887257D01*
X176072000Y-98855689D01*
X175890147Y-98873600D01*
X163352322Y-98873600D01*
X163272000Y-98865689D01*
X163191678Y-98873600D01*
X162951484Y-98897257D01*
X162643285Y-98990748D01*
X162359248Y-99142569D01*
X162110286Y-99346886D01*
X161905969Y-99595848D01*
X161754148Y-99879885D01*
X161660657Y-100188084D01*
X161629089Y-100508600D01*
X158682400Y-100508600D01*
X158682400Y-98201322D01*
X158690311Y-98121000D01*
X158682400Y-98040678D01*
X158682400Y-98030678D01*
X158663537Y-97839149D01*
X180775256Y-97839149D01*
X180979362Y-98195667D01*
X181422223Y-98426375D01*
X181901583Y-98566252D01*
X182399021Y-98609923D01*
X182895422Y-98555709D01*
X183371707Y-98405694D01*
X183764638Y-98195667D01*
X183968744Y-97839149D01*
X182372000Y-96242405D01*
X180775256Y-97839149D01*
X158663537Y-97839149D01*
X158658743Y-97790484D01*
X158565252Y-97482285D01*
X158413431Y-97198248D01*
X158209114Y-96949286D01*
X157960152Y-96744969D01*
X157676115Y-96593148D01*
X157367916Y-96499657D01*
X157047400Y-96468089D01*
X156865547Y-96486000D01*
X144327722Y-96486000D01*
X144247400Y-96478089D01*
X144167078Y-96486000D01*
X143926884Y-96509657D01*
X143618685Y-96603148D01*
X143334648Y-96754969D01*
X143085686Y-96959286D01*
X142881369Y-97208248D01*
X142729548Y-97492285D01*
X142636057Y-97800484D01*
X142604489Y-98121000D01*
X139657800Y-98121000D01*
X139657800Y-96089821D01*
X179824877Y-96089821D01*
X179879091Y-96586222D01*
X180029106Y-97062507D01*
X180239133Y-97455438D01*
X180595651Y-97659544D01*
X182192395Y-96062800D01*
X182551605Y-96062800D01*
X184148349Y-97659544D01*
X184504867Y-97455438D01*
X184735575Y-97012577D01*
X184875452Y-96533217D01*
X184919123Y-96035779D01*
X184864909Y-95539378D01*
X184714894Y-95063093D01*
X184504867Y-94670162D01*
X184148349Y-94466056D01*
X182551605Y-96062800D01*
X182192395Y-96062800D01*
X180595651Y-94466056D01*
X180239133Y-94670162D01*
X180008425Y-95113023D01*
X179868548Y-95592383D01*
X179824877Y-96089821D01*
X139657800Y-96089821D01*
X139657800Y-93426122D01*
X139665711Y-93345800D01*
X139657800Y-93265478D01*
X139657800Y-93255478D01*
X139634143Y-93015284D01*
X139540652Y-92707085D01*
X139388831Y-92423048D01*
X139184514Y-92174086D01*
X138935552Y-91969769D01*
X138651515Y-91817948D01*
X138343316Y-91724457D01*
X138022800Y-91692889D01*
X137840947Y-91710800D01*
X125303122Y-91710800D01*
X125222800Y-91702889D01*
X125142478Y-91710800D01*
X124902284Y-91734457D01*
X124594085Y-91827948D01*
X124310048Y-91979769D01*
X124061086Y-92184086D01*
X123856769Y-92433048D01*
X123704948Y-92717085D01*
X123611457Y-93025284D01*
X123579889Y-93345800D01*
X119656659Y-93345800D01*
X119860152Y-93237031D01*
X120109114Y-93032714D01*
X120313431Y-92783752D01*
X120465252Y-92499715D01*
X120558743Y-92191516D01*
X120590311Y-91871000D01*
X120582400Y-91790678D01*
X120582400Y-79151322D01*
X120590311Y-79071000D01*
X120582400Y-78990678D01*
X120582400Y-78980678D01*
X120558743Y-78740484D01*
X120465252Y-78432285D01*
X120313431Y-78148248D01*
X120109114Y-77899286D01*
X119860152Y-77694969D01*
X119635468Y-77574873D01*
X118160800Y-76100205D01*
X118146658Y-76114348D01*
X117967053Y-75934743D01*
X117981195Y-75920600D01*
X118340405Y-75920600D01*
X119937149Y-77517344D01*
X120293667Y-77313238D01*
X120524375Y-76870377D01*
X120664252Y-76391017D01*
X120707923Y-75893579D01*
X120653709Y-75397178D01*
X120503694Y-74920893D01*
X120293667Y-74527962D01*
X119937149Y-74323856D01*
X118340405Y-75920600D01*
X117981195Y-75920600D01*
X117967053Y-75906458D01*
X118146658Y-75726853D01*
X118160800Y-75740995D01*
X119602384Y-74299411D01*
X119656659Y-74270400D01*
X123579889Y-74270400D01*
X123587801Y-74350732D01*
X123587800Y-86990078D01*
X123579889Y-87070400D01*
X123611457Y-87390916D01*
X123704948Y-87699115D01*
X123856769Y-87983152D01*
X124052879Y-88222114D01*
X124061086Y-88232114D01*
X124310048Y-88436431D01*
X124594085Y-88588252D01*
X124902284Y-88681743D01*
X125222800Y-88713311D01*
X125303122Y-88705400D01*
X138103122Y-88705400D01*
X138343316Y-88681743D01*
X138651515Y-88588252D01*
X138935552Y-88436431D01*
X139184514Y-88232114D01*
X139388831Y-87983152D01*
X139540652Y-87699115D01*
X139634143Y-87390916D01*
X139665711Y-87070400D01*
X139657800Y-86990078D01*
X139657800Y-79045600D01*
X142604489Y-79045600D01*
X142612401Y-79125932D01*
X142612400Y-91765278D01*
X142604489Y-91845600D01*
X142636057Y-92166116D01*
X142729548Y-92474315D01*
X142881369Y-92758352D01*
X143085686Y-93007314D01*
X143334648Y-93211631D01*
X143618685Y-93363452D01*
X143926884Y-93456943D01*
X144125684Y-93476523D01*
X144247400Y-93488511D01*
X144327722Y-93480600D01*
X157127722Y-93480600D01*
X157367916Y-93456943D01*
X157676115Y-93363452D01*
X157960152Y-93211631D01*
X158209114Y-93007314D01*
X158413431Y-92758352D01*
X158565252Y-92474315D01*
X158658743Y-92166116D01*
X158690311Y-91845600D01*
X158682400Y-91765278D01*
X158682400Y-81433200D01*
X161629089Y-81433200D01*
X161637001Y-81513532D01*
X161637000Y-94152878D01*
X161629089Y-94233200D01*
X161660657Y-94553716D01*
X161754148Y-94861915D01*
X161905969Y-95145952D01*
X162102079Y-95384914D01*
X162110286Y-95394914D01*
X162359248Y-95599231D01*
X162643285Y-95751052D01*
X162951484Y-95844543D01*
X163272000Y-95876111D01*
X163352322Y-95868200D01*
X176152322Y-95868200D01*
X176392516Y-95844543D01*
X176700715Y-95751052D01*
X176984752Y-95599231D01*
X177233714Y-95394914D01*
X177438031Y-95145952D01*
X177589852Y-94861915D01*
X177683343Y-94553716D01*
X177714911Y-94233200D01*
X177707000Y-94152878D01*
X177707000Y-81513522D01*
X177714911Y-81433200D01*
X177707000Y-81352878D01*
X177707000Y-81342878D01*
X177683343Y-81102684D01*
X177589852Y-80794485D01*
X177438031Y-80510448D01*
X177233714Y-80261486D01*
X176984752Y-80057169D01*
X176700715Y-79905348D01*
X176392516Y-79811857D01*
X176072000Y-79780289D01*
X175890147Y-79798200D01*
X163352322Y-79798200D01*
X163272000Y-79790289D01*
X163191678Y-79798200D01*
X162951484Y-79821857D01*
X162643285Y-79915348D01*
X162359248Y-80067169D01*
X162110286Y-80271486D01*
X161905969Y-80520448D01*
X161754148Y-80804485D01*
X161660657Y-81112684D01*
X161629089Y-81433200D01*
X158682400Y-81433200D01*
X158682400Y-79125922D01*
X158690311Y-79045600D01*
X158682400Y-78965278D01*
X158682400Y-78955278D01*
X158658743Y-78715084D01*
X158565252Y-78406885D01*
X158413431Y-78122848D01*
X158328928Y-78019880D01*
X158347057Y-78001751D01*
X158551162Y-78358267D01*
X158994023Y-78588975D01*
X159473383Y-78728852D01*
X159970821Y-78772523D01*
X160467222Y-78718309D01*
X160943507Y-78568294D01*
X161336438Y-78358267D01*
X161540544Y-78001749D01*
X159943800Y-76405005D01*
X159929658Y-76419148D01*
X159750053Y-76239543D01*
X159764195Y-76225400D01*
X158167451Y-74628656D01*
X157810933Y-74832762D01*
X157580225Y-75275623D01*
X157440348Y-75754983D01*
X157396677Y-76252421D01*
X157450891Y-76748822D01*
X157600906Y-77225107D01*
X157789810Y-77578519D01*
X157676115Y-77517748D01*
X157367916Y-77424257D01*
X157047400Y-77392689D01*
X156865547Y-77410600D01*
X144327722Y-77410600D01*
X144247400Y-77402689D01*
X144167078Y-77410600D01*
X143926884Y-77434257D01*
X143618685Y-77527748D01*
X143334648Y-77679569D01*
X143085686Y-77883886D01*
X142881369Y-78132848D01*
X142729548Y-78416885D01*
X142636057Y-78725084D01*
X142604489Y-79045600D01*
X139657800Y-79045600D01*
X139657800Y-74449051D01*
X158347056Y-74449051D01*
X159943800Y-76045795D01*
X159957943Y-76031653D01*
X160137548Y-76211258D01*
X160123405Y-76225400D01*
X161720149Y-77822144D01*
X162076667Y-77618038D01*
X162307375Y-77175177D01*
X162447252Y-76695817D01*
X162457730Y-76576471D01*
X162643285Y-76675652D01*
X162951484Y-76769143D01*
X163272000Y-76800711D01*
X163352322Y-76792800D01*
X176152322Y-76792800D01*
X176392516Y-76769143D01*
X176700715Y-76675652D01*
X176984752Y-76523831D01*
X177233714Y-76319514D01*
X177438031Y-76070552D01*
X177589852Y-75786515D01*
X177683343Y-75478316D01*
X177714911Y-75157800D01*
X177707000Y-75077478D01*
X177707000Y-62438122D01*
X177714911Y-62357800D01*
X177707000Y-62277478D01*
X177707000Y-62267478D01*
X177683343Y-62027284D01*
X177589852Y-61719085D01*
X177438031Y-61435048D01*
X177233714Y-61186086D01*
X176984752Y-60981769D01*
X176700715Y-60829948D01*
X176392516Y-60736457D01*
X176072000Y-60704889D01*
X175890147Y-60722800D01*
X163352322Y-60722800D01*
X163272000Y-60714889D01*
X163191678Y-60722800D01*
X162951484Y-60746457D01*
X162643285Y-60839948D01*
X162359248Y-60991769D01*
X162110286Y-61196086D01*
X161905969Y-61445048D01*
X161754148Y-61729085D01*
X161660657Y-62037284D01*
X161629089Y-62357800D01*
X161637001Y-62438132D01*
X161637000Y-74352592D01*
X161540543Y-74449049D01*
X161336438Y-74092533D01*
X160893577Y-73861825D01*
X160414217Y-73721948D01*
X159916779Y-73678277D01*
X159420378Y-73732491D01*
X158944093Y-73882506D01*
X158551162Y-74092533D01*
X158347056Y-74449051D01*
X139657800Y-74449051D01*
X139657800Y-74350722D01*
X139665711Y-74270400D01*
X139657800Y-74190078D01*
X139657800Y-74180078D01*
X139634143Y-73939884D01*
X139540652Y-73631685D01*
X139388831Y-73347648D01*
X139184514Y-73098686D01*
X138935552Y-72894369D01*
X138651515Y-72742548D01*
X138343316Y-72649057D01*
X138022800Y-72617489D01*
X137840947Y-72635400D01*
X125303122Y-72635400D01*
X125222800Y-72627489D01*
X125142478Y-72635400D01*
X124902284Y-72659057D01*
X124594085Y-72752548D01*
X124310048Y-72904369D01*
X124061086Y-73108686D01*
X123856769Y-73357648D01*
X123704948Y-73641685D01*
X123611457Y-73949884D01*
X123579889Y-74270400D01*
X119656659Y-74270400D01*
X119860152Y-74161631D01*
X120109114Y-73957314D01*
X120313431Y-73708352D01*
X120465252Y-73424315D01*
X120558743Y-73116116D01*
X120590311Y-72795600D01*
X120582400Y-72715278D01*
X120582400Y-60075922D01*
X120590311Y-59995600D01*
X120582400Y-59915278D01*
X120582400Y-59905278D01*
X120558743Y-59665084D01*
X120465252Y-59356885D01*
X120313431Y-59072848D01*
X120109114Y-58823886D01*
X119860152Y-58619569D01*
X119576115Y-58467748D01*
X119267916Y-58374257D01*
X118947400Y-58342689D01*
X118765547Y-58360600D01*
X106227722Y-58360600D01*
X106147400Y-58352689D01*
X106067078Y-58360600D01*
X105826884Y-58384257D01*
X105518685Y-58477748D01*
X105234648Y-58629569D01*
X104985686Y-58833886D01*
X104781369Y-59082848D01*
X104629548Y-59366885D01*
X104536057Y-59675084D01*
X104504489Y-59995600D01*
X103279301Y-59995600D01*
X103279301Y-57148700D01*
X121130405Y-57148700D01*
X121161450Y-57145642D01*
X121164405Y-57145663D01*
X121174618Y-57144662D01*
X121222501Y-57139629D01*
X121238385Y-57138065D01*
X121238915Y-57137904D01*
X121271667Y-57134462D01*
X121336944Y-57121062D01*
X121402359Y-57108584D01*
X121412184Y-57105618D01*
X121505403Y-57076762D01*
X121566878Y-57050920D01*
X121628584Y-57025989D01*
X121637645Y-57021172D01*
X121723483Y-56974759D01*
X121778715Y-56937504D01*
X121834451Y-56901031D01*
X121842404Y-56894545D01*
X121917593Y-56832343D01*
X121964548Y-56785059D01*
X122012124Y-56738470D01*
X122018665Y-56730563D01*
X122018670Y-56730558D01*
X122018674Y-56730552D01*
X122080341Y-56654942D01*
X122117214Y-56599444D01*
X122154848Y-56544481D01*
X122159729Y-56535454D01*
X122205541Y-56449293D01*
X122230933Y-56387687D01*
X122257167Y-56326480D01*
X122260202Y-56316676D01*
X122288407Y-56223258D01*
X122301356Y-56157865D01*
X122315197Y-56092743D01*
X122316268Y-56082552D01*
X122316270Y-56082544D01*
X122316270Y-56082537D01*
X122325516Y-55988233D01*
X122329301Y-55949805D01*
X122329301Y-55195000D01*
X123579889Y-55195000D01*
X123587801Y-55275332D01*
X123587800Y-67914678D01*
X123579889Y-67995000D01*
X123611457Y-68315516D01*
X123704948Y-68623715D01*
X123856769Y-68907752D01*
X124052879Y-69146714D01*
X124061086Y-69156714D01*
X124310048Y-69361031D01*
X124594085Y-69512852D01*
X124902284Y-69606343D01*
X125222800Y-69637911D01*
X125303122Y-69630000D01*
X138103122Y-69630000D01*
X138343316Y-69606343D01*
X138651515Y-69512852D01*
X138935552Y-69361031D01*
X139184514Y-69156714D01*
X139388831Y-68907752D01*
X139540652Y-68623715D01*
X139634143Y-68315516D01*
X139665711Y-67995000D01*
X139657800Y-67914678D01*
X139657800Y-59970200D01*
X142604489Y-59970200D01*
X142612401Y-60050532D01*
X142612400Y-72689878D01*
X142604489Y-72770200D01*
X142636057Y-73090716D01*
X142729548Y-73398915D01*
X142881369Y-73682952D01*
X143028166Y-73861825D01*
X143085686Y-73931914D01*
X143334648Y-74136231D01*
X143618685Y-74288052D01*
X143926884Y-74381543D01*
X144247400Y-74413111D01*
X144327722Y-74405200D01*
X157127722Y-74405200D01*
X157367916Y-74381543D01*
X157676115Y-74288052D01*
X157960152Y-74136231D01*
X158209114Y-73931914D01*
X158413431Y-73682952D01*
X158565252Y-73398915D01*
X158658743Y-73090716D01*
X158690311Y-72770200D01*
X158682400Y-72689878D01*
X158682400Y-60050522D01*
X158690311Y-59970200D01*
X158682400Y-59889878D01*
X158682400Y-59879878D01*
X158658743Y-59639684D01*
X158565252Y-59331485D01*
X158413431Y-59047448D01*
X158209114Y-58798486D01*
X157960152Y-58594169D01*
X157676115Y-58442348D01*
X157367916Y-58348857D01*
X157047400Y-58317289D01*
X156865547Y-58335200D01*
X144327722Y-58335200D01*
X144247400Y-58327289D01*
X144167078Y-58335200D01*
X143926884Y-58358857D01*
X143618685Y-58452348D01*
X143334648Y-58604169D01*
X143085686Y-58808486D01*
X142881369Y-59057448D01*
X142729548Y-59341485D01*
X142636057Y-59649684D01*
X142604489Y-59970200D01*
X139657800Y-59970200D01*
X139657800Y-55275322D01*
X139665711Y-55195000D01*
X139657800Y-55114678D01*
X139657800Y-55104678D01*
X139634143Y-54864484D01*
X139540652Y-54556285D01*
X139388831Y-54272248D01*
X139184514Y-54023286D01*
X138935552Y-53818969D01*
X138651515Y-53667148D01*
X138343316Y-53573657D01*
X138022800Y-53542089D01*
X137840947Y-53560000D01*
X125303122Y-53560000D01*
X125222800Y-53552089D01*
X125142478Y-53560000D01*
X124902284Y-53583657D01*
X124594085Y-53677148D01*
X124310048Y-53828969D01*
X124061086Y-54033286D01*
X123856769Y-54282248D01*
X123704948Y-54566285D01*
X123611457Y-54874484D01*
X123579889Y-55195000D01*
X122329301Y-55195000D01*
X122329301Y-52385700D01*
X140858601Y-52385700D01*
X140858602Y-55949806D01*
G37*
G04 #@! TD.AperFunction*
M02*
