G04 #@! TF.GenerationSoftware,KiCad,Pcbnew,(5.1.10)-1*
G04 #@! TF.CreationDate,2021-10-25T12:35:37+03:00*
G04 #@! TF.ProjectId,top_plate,746f705f-706c-4617-9465-2e6b69636164,rev?*
G04 #@! TF.SameCoordinates,Original*
G04 #@! TF.FileFunction,Legend,Top*
G04 #@! TF.FilePolarity,Positive*
%FSLAX46Y46*%
G04 Gerber Fmt 4.6, Leading zero omitted, Abs format (unit mm)*
G04 Created by KiCad (PCBNEW (5.1.10)-1) date 2021-10-25 12:35:37*
%MOMM*%
%LPD*%
G01*
G04 APERTURE LIST*
%ADD10C,0.150000*%
%ADD11O,14.800000X2.000000*%
%ADD12O,2.000000X14.800000*%
%ADD13C,3.800000*%
G04 APERTURE END LIST*
D10*
X191794908Y-114899091D02*
X191744329Y-114320032D01*
X191300037Y-114613377D02*
X191800037Y-113747352D01*
X192129951Y-113937828D01*
X192188620Y-114026686D01*
X192206050Y-114091735D01*
X192199670Y-114198023D01*
X192128242Y-114321741D01*
X192039383Y-114380410D01*
X191974335Y-114397840D01*
X191868047Y-114391460D01*
X191538132Y-114200984D01*
X192427967Y-114659745D02*
X192716642Y-114826411D01*
X192578455Y-115351472D02*
X192166062Y-115113377D01*
X192666062Y-114247352D01*
X193078455Y-114485447D01*
X193500189Y-115278792D02*
X193211514Y-115112126D01*
X192949609Y-115565758D02*
X193449609Y-114699732D01*
X193862002Y-114937828D01*
X194315634Y-115199732D02*
X194196587Y-115405929D01*
X194038009Y-115204403D02*
X194196587Y-115405929D01*
X194450402Y-115442498D01*
X193977631Y-115499458D02*
X194196587Y-115405929D01*
X194225067Y-115642315D01*
X194975463Y-115580685D02*
X194856416Y-115786881D01*
X194697838Y-115585355D02*
X194856416Y-115786881D01*
X195110231Y-115823450D01*
X194637460Y-115880410D02*
X194856416Y-115786881D01*
X194884896Y-116023267D01*
X197093815Y-147679766D02*
X197194830Y-147107346D01*
X196689754Y-147275705D02*
X197396861Y-146568598D01*
X197666235Y-146837972D01*
X197699906Y-146938988D01*
X197699906Y-147006331D01*
X197666235Y-147107346D01*
X197565219Y-147208362D01*
X197464204Y-147242033D01*
X197396861Y-147242033D01*
X197295845Y-147208362D01*
X197026471Y-146938988D01*
X197767250Y-147612423D02*
X198002952Y-147848125D01*
X197733578Y-148319529D02*
X197396861Y-147982812D01*
X198103967Y-147275705D01*
X198440685Y-147612423D01*
X198642715Y-148487888D02*
X198407013Y-148252186D01*
X198036624Y-148622575D02*
X198743731Y-147915468D01*
X199080448Y-148252186D01*
X199450837Y-148622575D02*
X199282479Y-148790934D01*
X199181463Y-148555232D02*
X199282479Y-148790934D01*
X199518181Y-148891949D01*
X199046776Y-148824606D02*
X199282479Y-148790934D01*
X199248807Y-149026636D01*
X199989585Y-149161323D02*
X199821227Y-149329682D01*
X199720211Y-149093980D02*
X199821227Y-149329682D01*
X200056929Y-149430697D01*
X199585524Y-149363354D02*
X199821227Y-149329682D01*
X199787555Y-149565384D01*
X177977308Y-138851291D02*
X177926729Y-138272232D01*
X177482437Y-138565577D02*
X177982437Y-137699552D01*
X178312351Y-137890028D01*
X178371020Y-137978886D01*
X178388450Y-138043935D01*
X178382070Y-138150223D01*
X178310642Y-138273941D01*
X178221783Y-138332610D01*
X178156735Y-138350040D01*
X178050447Y-138343660D01*
X177720532Y-138153184D01*
X178610367Y-138611945D02*
X178899042Y-138778611D01*
X178760855Y-139303672D02*
X178348462Y-139065577D01*
X178848462Y-138199552D01*
X179260855Y-138437647D01*
X179682589Y-139230992D02*
X179393914Y-139064326D01*
X179132009Y-139517958D02*
X179632009Y-138651932D01*
X180044402Y-138890028D01*
X180498034Y-139151932D02*
X180378987Y-139358129D01*
X180220409Y-139156603D02*
X180378987Y-139358129D01*
X180632802Y-139394698D01*
X180160031Y-139451658D02*
X180378987Y-139358129D01*
X180407467Y-139594515D01*
X181157863Y-139532885D02*
X181038816Y-139739081D01*
X180880238Y-139537555D02*
X181038816Y-139739081D01*
X181292631Y-139775650D01*
X180819860Y-139832610D02*
X181038816Y-139739081D01*
X181067296Y-139975467D01*
X159604812Y-131428170D02*
X159406083Y-130881932D01*
X159052854Y-131280273D02*
X159311673Y-130314347D01*
X159679645Y-130412945D01*
X159759313Y-130483591D01*
X159792985Y-130541912D01*
X159814332Y-130646230D01*
X159777358Y-130784219D01*
X159706712Y-130863888D01*
X159648391Y-130897559D01*
X159544073Y-130918906D01*
X159176101Y-130820309D01*
X160154352Y-131033131D02*
X160476327Y-131119404D01*
X160478744Y-131662339D02*
X160018780Y-131539092D01*
X160277599Y-130573167D01*
X160737564Y-130696414D01*
X161350260Y-131353574D02*
X161028285Y-131267301D01*
X160892713Y-131773262D02*
X161151532Y-130807336D01*
X161611496Y-130930583D01*
X162117458Y-131066155D02*
X162055834Y-131296138D01*
X161850501Y-131142521D02*
X162055834Y-131296138D01*
X162310466Y-131265768D01*
X161868546Y-131443149D02*
X162055834Y-131296138D01*
X162144525Y-131517098D01*
X162853401Y-131263351D02*
X162791777Y-131493333D01*
X162586445Y-131339716D02*
X162791777Y-131493333D01*
X163046409Y-131462964D01*
X162604489Y-131640345D02*
X162791777Y-131493333D01*
X162880468Y-131714293D01*
X120739066Y-128907980D02*
X120405733Y-128431790D01*
X120167638Y-128907980D02*
X120167638Y-127907980D01*
X120548590Y-127907980D01*
X120643828Y-127955600D01*
X120691447Y-128003219D01*
X120739066Y-128098457D01*
X120739066Y-128241314D01*
X120691447Y-128336552D01*
X120643828Y-128384171D01*
X120548590Y-128431790D01*
X120167638Y-128431790D01*
X121167638Y-128384171D02*
X121500971Y-128384171D01*
X121643828Y-128907980D02*
X121167638Y-128907980D01*
X121167638Y-127907980D01*
X121643828Y-127907980D01*
X122405733Y-128384171D02*
X122072400Y-128384171D01*
X122072400Y-128907980D02*
X122072400Y-127907980D01*
X122548590Y-127907980D01*
X123072400Y-127907980D02*
X123072400Y-128146076D01*
X122834304Y-128050838D02*
X123072400Y-128146076D01*
X123310495Y-128050838D01*
X122929542Y-128336552D02*
X123072400Y-128146076D01*
X123215257Y-128336552D01*
X123834304Y-127907980D02*
X123834304Y-128146076D01*
X123596209Y-128050838D02*
X123834304Y-128146076D01*
X124072400Y-128050838D01*
X123691447Y-128336552D02*
X123834304Y-128146076D01*
X123977161Y-128336552D01*
X139789066Y-128933380D02*
X139455733Y-128457190D01*
X139217638Y-128933380D02*
X139217638Y-127933380D01*
X139598590Y-127933380D01*
X139693828Y-127981000D01*
X139741447Y-128028619D01*
X139789066Y-128123857D01*
X139789066Y-128266714D01*
X139741447Y-128361952D01*
X139693828Y-128409571D01*
X139598590Y-128457190D01*
X139217638Y-128457190D01*
X140217638Y-128409571D02*
X140550971Y-128409571D01*
X140693828Y-128933380D02*
X140217638Y-128933380D01*
X140217638Y-127933380D01*
X140693828Y-127933380D01*
X141455733Y-128409571D02*
X141122400Y-128409571D01*
X141122400Y-128933380D02*
X141122400Y-127933380D01*
X141598590Y-127933380D01*
X142122400Y-127933380D02*
X142122400Y-128171476D01*
X141884304Y-128076238D02*
X142122400Y-128171476D01*
X142360495Y-128076238D01*
X141979542Y-128361952D02*
X142122400Y-128171476D01*
X142265257Y-128361952D01*
X142884304Y-127933380D02*
X142884304Y-128171476D01*
X142646209Y-128076238D02*
X142884304Y-128171476D01*
X143122400Y-128076238D01*
X142741447Y-128361952D02*
X142884304Y-128171476D01*
X143027161Y-128361952D01*
X168338666Y-74120180D02*
X168005333Y-73643990D01*
X167767238Y-74120180D02*
X167767238Y-73120180D01*
X168148190Y-73120180D01*
X168243428Y-73167800D01*
X168291047Y-73215419D01*
X168338666Y-73310657D01*
X168338666Y-73453514D01*
X168291047Y-73548752D01*
X168243428Y-73596371D01*
X168148190Y-73643990D01*
X167767238Y-73643990D01*
X168767238Y-73596371D02*
X169100571Y-73596371D01*
X169243428Y-74120180D02*
X168767238Y-74120180D01*
X168767238Y-73120180D01*
X169243428Y-73120180D01*
X170005333Y-73596371D02*
X169672000Y-73596371D01*
X169672000Y-74120180D02*
X169672000Y-73120180D01*
X170148190Y-73120180D01*
X170672000Y-73120180D02*
X170672000Y-73358276D01*
X170433904Y-73263038D02*
X170672000Y-73358276D01*
X170910095Y-73263038D01*
X170529142Y-73548752D02*
X170672000Y-73358276D01*
X170814857Y-73548752D01*
X171433904Y-73120180D02*
X171433904Y-73358276D01*
X171195809Y-73263038D02*
X171433904Y-73358276D01*
X171672000Y-73263038D01*
X171291047Y-73548752D02*
X171433904Y-73358276D01*
X171576761Y-73548752D01*
X168338666Y-93195580D02*
X168005333Y-92719390D01*
X167767238Y-93195580D02*
X167767238Y-92195580D01*
X168148190Y-92195580D01*
X168243428Y-92243200D01*
X168291047Y-92290819D01*
X168338666Y-92386057D01*
X168338666Y-92528914D01*
X168291047Y-92624152D01*
X168243428Y-92671771D01*
X168148190Y-92719390D01*
X167767238Y-92719390D01*
X168767238Y-92671771D02*
X169100571Y-92671771D01*
X169243428Y-93195580D02*
X168767238Y-93195580D01*
X168767238Y-92195580D01*
X169243428Y-92195580D01*
X170005333Y-92671771D02*
X169672000Y-92671771D01*
X169672000Y-93195580D02*
X169672000Y-92195580D01*
X170148190Y-92195580D01*
X170672000Y-92195580D02*
X170672000Y-92433676D01*
X170433904Y-92338438D02*
X170672000Y-92433676D01*
X170910095Y-92338438D01*
X170529142Y-92624152D02*
X170672000Y-92433676D01*
X170814857Y-92624152D01*
X171433904Y-92195580D02*
X171433904Y-92433676D01*
X171195809Y-92338438D02*
X171433904Y-92433676D01*
X171672000Y-92338438D01*
X171291047Y-92624152D02*
X171433904Y-92433676D01*
X171576761Y-92624152D01*
X168338666Y-112270980D02*
X168005333Y-111794790D01*
X167767238Y-112270980D02*
X167767238Y-111270980D01*
X168148190Y-111270980D01*
X168243428Y-111318600D01*
X168291047Y-111366219D01*
X168338666Y-111461457D01*
X168338666Y-111604314D01*
X168291047Y-111699552D01*
X168243428Y-111747171D01*
X168148190Y-111794790D01*
X167767238Y-111794790D01*
X168767238Y-111747171D02*
X169100571Y-111747171D01*
X169243428Y-112270980D02*
X168767238Y-112270980D01*
X168767238Y-111270980D01*
X169243428Y-111270980D01*
X170005333Y-111747171D02*
X169672000Y-111747171D01*
X169672000Y-112270980D02*
X169672000Y-111270980D01*
X170148190Y-111270980D01*
X170672000Y-111270980D02*
X170672000Y-111509076D01*
X170433904Y-111413838D02*
X170672000Y-111509076D01*
X170910095Y-111413838D01*
X170529142Y-111699552D02*
X170672000Y-111509076D01*
X170814857Y-111699552D01*
X171433904Y-111270980D02*
X171433904Y-111509076D01*
X171195809Y-111413838D02*
X171433904Y-111509076D01*
X171672000Y-111413838D01*
X171291047Y-111699552D02*
X171433904Y-111509076D01*
X171576761Y-111699552D01*
X149314066Y-71732580D02*
X148980733Y-71256390D01*
X148742638Y-71732580D02*
X148742638Y-70732580D01*
X149123590Y-70732580D01*
X149218828Y-70780200D01*
X149266447Y-70827819D01*
X149314066Y-70923057D01*
X149314066Y-71065914D01*
X149266447Y-71161152D01*
X149218828Y-71208771D01*
X149123590Y-71256390D01*
X148742638Y-71256390D01*
X149742638Y-71208771D02*
X150075971Y-71208771D01*
X150218828Y-71732580D02*
X149742638Y-71732580D01*
X149742638Y-70732580D01*
X150218828Y-70732580D01*
X150980733Y-71208771D02*
X150647400Y-71208771D01*
X150647400Y-71732580D02*
X150647400Y-70732580D01*
X151123590Y-70732580D01*
X151647400Y-70732580D02*
X151647400Y-70970676D01*
X151409304Y-70875438D02*
X151647400Y-70970676D01*
X151885495Y-70875438D01*
X151504542Y-71161152D02*
X151647400Y-70970676D01*
X151790257Y-71161152D01*
X152409304Y-70732580D02*
X152409304Y-70970676D01*
X152171209Y-70875438D02*
X152409304Y-70970676D01*
X152647400Y-70875438D01*
X152266447Y-71161152D02*
X152409304Y-70970676D01*
X152552161Y-71161152D01*
X149314066Y-90807980D02*
X148980733Y-90331790D01*
X148742638Y-90807980D02*
X148742638Y-89807980D01*
X149123590Y-89807980D01*
X149218828Y-89855600D01*
X149266447Y-89903219D01*
X149314066Y-89998457D01*
X149314066Y-90141314D01*
X149266447Y-90236552D01*
X149218828Y-90284171D01*
X149123590Y-90331790D01*
X148742638Y-90331790D01*
X149742638Y-90284171D02*
X150075971Y-90284171D01*
X150218828Y-90807980D02*
X149742638Y-90807980D01*
X149742638Y-89807980D01*
X150218828Y-89807980D01*
X150980733Y-90284171D02*
X150647400Y-90284171D01*
X150647400Y-90807980D02*
X150647400Y-89807980D01*
X151123590Y-89807980D01*
X151647400Y-89807980D02*
X151647400Y-90046076D01*
X151409304Y-89950838D02*
X151647400Y-90046076D01*
X151885495Y-89950838D01*
X151504542Y-90236552D02*
X151647400Y-90046076D01*
X151790257Y-90236552D01*
X152409304Y-89807980D02*
X152409304Y-90046076D01*
X152171209Y-89950838D02*
X152409304Y-90046076D01*
X152647400Y-89950838D01*
X152266447Y-90236552D02*
X152409304Y-90046076D01*
X152552161Y-90236552D01*
X149314066Y-109883380D02*
X148980733Y-109407190D01*
X148742638Y-109883380D02*
X148742638Y-108883380D01*
X149123590Y-108883380D01*
X149218828Y-108931000D01*
X149266447Y-108978619D01*
X149314066Y-109073857D01*
X149314066Y-109216714D01*
X149266447Y-109311952D01*
X149218828Y-109359571D01*
X149123590Y-109407190D01*
X148742638Y-109407190D01*
X149742638Y-109359571D02*
X150075971Y-109359571D01*
X150218828Y-109883380D02*
X149742638Y-109883380D01*
X149742638Y-108883380D01*
X150218828Y-108883380D01*
X150980733Y-109359571D02*
X150647400Y-109359571D01*
X150647400Y-109883380D02*
X150647400Y-108883380D01*
X151123590Y-108883380D01*
X151647400Y-108883380D02*
X151647400Y-109121476D01*
X151409304Y-109026238D02*
X151647400Y-109121476D01*
X151885495Y-109026238D01*
X151504542Y-109311952D02*
X151647400Y-109121476D01*
X151790257Y-109311952D01*
X152409304Y-108883380D02*
X152409304Y-109121476D01*
X152171209Y-109026238D02*
X152409304Y-109121476D01*
X152647400Y-109026238D01*
X152266447Y-109311952D02*
X152409304Y-109121476D01*
X152552161Y-109311952D01*
X130289466Y-105108180D02*
X129956133Y-104631990D01*
X129718038Y-105108180D02*
X129718038Y-104108180D01*
X130098990Y-104108180D01*
X130194228Y-104155800D01*
X130241847Y-104203419D01*
X130289466Y-104298657D01*
X130289466Y-104441514D01*
X130241847Y-104536752D01*
X130194228Y-104584371D01*
X130098990Y-104631990D01*
X129718038Y-104631990D01*
X130718038Y-104584371D02*
X131051371Y-104584371D01*
X131194228Y-105108180D02*
X130718038Y-105108180D01*
X130718038Y-104108180D01*
X131194228Y-104108180D01*
X131956133Y-104584371D02*
X131622800Y-104584371D01*
X131622800Y-105108180D02*
X131622800Y-104108180D01*
X132098990Y-104108180D01*
X132622800Y-104108180D02*
X132622800Y-104346276D01*
X132384704Y-104251038D02*
X132622800Y-104346276D01*
X132860895Y-104251038D01*
X132479942Y-104536752D02*
X132622800Y-104346276D01*
X132765657Y-104536752D01*
X133384704Y-104108180D02*
X133384704Y-104346276D01*
X133146609Y-104251038D02*
X133384704Y-104346276D01*
X133622800Y-104251038D01*
X133241847Y-104536752D02*
X133384704Y-104346276D01*
X133527561Y-104536752D01*
X130289466Y-86032780D02*
X129956133Y-85556590D01*
X129718038Y-86032780D02*
X129718038Y-85032780D01*
X130098990Y-85032780D01*
X130194228Y-85080400D01*
X130241847Y-85128019D01*
X130289466Y-85223257D01*
X130289466Y-85366114D01*
X130241847Y-85461352D01*
X130194228Y-85508971D01*
X130098990Y-85556590D01*
X129718038Y-85556590D01*
X130718038Y-85508971D02*
X131051371Y-85508971D01*
X131194228Y-86032780D02*
X130718038Y-86032780D01*
X130718038Y-85032780D01*
X131194228Y-85032780D01*
X131956133Y-85508971D02*
X131622800Y-85508971D01*
X131622800Y-86032780D02*
X131622800Y-85032780D01*
X132098990Y-85032780D01*
X132622800Y-85032780D02*
X132622800Y-85270876D01*
X132384704Y-85175638D02*
X132622800Y-85270876D01*
X132860895Y-85175638D01*
X132479942Y-85461352D02*
X132622800Y-85270876D01*
X132765657Y-85461352D01*
X133384704Y-85032780D02*
X133384704Y-85270876D01*
X133146609Y-85175638D02*
X133384704Y-85270876D01*
X133622800Y-85175638D01*
X133241847Y-85461352D02*
X133384704Y-85270876D01*
X133527561Y-85461352D01*
X130289466Y-66957380D02*
X129956133Y-66481190D01*
X129718038Y-66957380D02*
X129718038Y-65957380D01*
X130098990Y-65957380D01*
X130194228Y-66005000D01*
X130241847Y-66052619D01*
X130289466Y-66147857D01*
X130289466Y-66290714D01*
X130241847Y-66385952D01*
X130194228Y-66433571D01*
X130098990Y-66481190D01*
X129718038Y-66481190D01*
X130718038Y-66433571D02*
X131051371Y-66433571D01*
X131194228Y-66957380D02*
X130718038Y-66957380D01*
X130718038Y-65957380D01*
X131194228Y-65957380D01*
X131956133Y-66433571D02*
X131622800Y-66433571D01*
X131622800Y-66957380D02*
X131622800Y-65957380D01*
X132098990Y-65957380D01*
X132622800Y-65957380D02*
X132622800Y-66195476D01*
X132384704Y-66100238D02*
X132622800Y-66195476D01*
X132860895Y-66100238D01*
X132479942Y-66385952D02*
X132622800Y-66195476D01*
X132765657Y-66385952D01*
X133384704Y-65957380D02*
X133384704Y-66195476D01*
X133146609Y-66100238D02*
X133384704Y-66195476D01*
X133622800Y-66100238D01*
X133241847Y-66385952D02*
X133384704Y-66195476D01*
X133527561Y-66385952D01*
X111214066Y-109908780D02*
X110880733Y-109432590D01*
X110642638Y-109908780D02*
X110642638Y-108908780D01*
X111023590Y-108908780D01*
X111118828Y-108956400D01*
X111166447Y-109004019D01*
X111214066Y-109099257D01*
X111214066Y-109242114D01*
X111166447Y-109337352D01*
X111118828Y-109384971D01*
X111023590Y-109432590D01*
X110642638Y-109432590D01*
X111642638Y-109384971D02*
X111975971Y-109384971D01*
X112118828Y-109908780D02*
X111642638Y-109908780D01*
X111642638Y-108908780D01*
X112118828Y-108908780D01*
X112880733Y-109384971D02*
X112547400Y-109384971D01*
X112547400Y-109908780D02*
X112547400Y-108908780D01*
X113023590Y-108908780D01*
X113547400Y-108908780D02*
X113547400Y-109146876D01*
X113309304Y-109051638D02*
X113547400Y-109146876D01*
X113785495Y-109051638D01*
X113404542Y-109337352D02*
X113547400Y-109146876D01*
X113690257Y-109337352D01*
X114309304Y-108908780D02*
X114309304Y-109146876D01*
X114071209Y-109051638D02*
X114309304Y-109146876D01*
X114547400Y-109051638D01*
X114166447Y-109337352D02*
X114309304Y-109146876D01*
X114452161Y-109337352D01*
X111214066Y-90833380D02*
X110880733Y-90357190D01*
X110642638Y-90833380D02*
X110642638Y-89833380D01*
X111023590Y-89833380D01*
X111118828Y-89881000D01*
X111166447Y-89928619D01*
X111214066Y-90023857D01*
X111214066Y-90166714D01*
X111166447Y-90261952D01*
X111118828Y-90309571D01*
X111023590Y-90357190D01*
X110642638Y-90357190D01*
X111642638Y-90309571D02*
X111975971Y-90309571D01*
X112118828Y-90833380D02*
X111642638Y-90833380D01*
X111642638Y-89833380D01*
X112118828Y-89833380D01*
X112880733Y-90309571D02*
X112547400Y-90309571D01*
X112547400Y-90833380D02*
X112547400Y-89833380D01*
X113023590Y-89833380D01*
X113547400Y-89833380D02*
X113547400Y-90071476D01*
X113309304Y-89976238D02*
X113547400Y-90071476D01*
X113785495Y-89976238D01*
X113404542Y-90261952D02*
X113547400Y-90071476D01*
X113690257Y-90261952D01*
X114309304Y-89833380D02*
X114309304Y-90071476D01*
X114071209Y-89976238D02*
X114309304Y-90071476D01*
X114547400Y-89976238D01*
X114166447Y-90261952D02*
X114309304Y-90071476D01*
X114452161Y-90261952D01*
X111214066Y-71757980D02*
X110880733Y-71281790D01*
X110642638Y-71757980D02*
X110642638Y-70757980D01*
X111023590Y-70757980D01*
X111118828Y-70805600D01*
X111166447Y-70853219D01*
X111214066Y-70948457D01*
X111214066Y-71091314D01*
X111166447Y-71186552D01*
X111118828Y-71234171D01*
X111023590Y-71281790D01*
X110642638Y-71281790D01*
X111642638Y-71234171D02*
X111975971Y-71234171D01*
X112118828Y-71757980D02*
X111642638Y-71757980D01*
X111642638Y-70757980D01*
X112118828Y-70757980D01*
X112880733Y-71234171D02*
X112547400Y-71234171D01*
X112547400Y-71757980D02*
X112547400Y-70757980D01*
X113023590Y-70757980D01*
X113547400Y-70757980D02*
X113547400Y-70996076D01*
X113309304Y-70900838D02*
X113547400Y-70996076D01*
X113785495Y-70900838D01*
X113404542Y-71186552D02*
X113547400Y-70996076D01*
X113690257Y-71186552D01*
X114309304Y-70757980D02*
X114309304Y-70996076D01*
X114071209Y-70900838D02*
X114309304Y-70996076D01*
X114547400Y-70900838D01*
X114166447Y-71186552D02*
X114309304Y-70996076D01*
X114452161Y-71186552D01*
X92164066Y-119433780D02*
X91830733Y-118957590D01*
X91592638Y-119433780D02*
X91592638Y-118433780D01*
X91973590Y-118433780D01*
X92068828Y-118481400D01*
X92116447Y-118529019D01*
X92164066Y-118624257D01*
X92164066Y-118767114D01*
X92116447Y-118862352D01*
X92068828Y-118909971D01*
X91973590Y-118957590D01*
X91592638Y-118957590D01*
X92592638Y-118909971D02*
X92925971Y-118909971D01*
X93068828Y-119433780D02*
X92592638Y-119433780D01*
X92592638Y-118433780D01*
X93068828Y-118433780D01*
X93830733Y-118909971D02*
X93497400Y-118909971D01*
X93497400Y-119433780D02*
X93497400Y-118433780D01*
X93973590Y-118433780D01*
X94497400Y-118433780D02*
X94497400Y-118671876D01*
X94259304Y-118576638D02*
X94497400Y-118671876D01*
X94735495Y-118576638D01*
X94354542Y-118862352D02*
X94497400Y-118671876D01*
X94640257Y-118862352D01*
X95259304Y-118433780D02*
X95259304Y-118671876D01*
X95021209Y-118576638D02*
X95259304Y-118671876D01*
X95497400Y-118576638D01*
X95116447Y-118862352D02*
X95259304Y-118671876D01*
X95402161Y-118862352D01*
X92164066Y-100358380D02*
X91830733Y-99882190D01*
X91592638Y-100358380D02*
X91592638Y-99358380D01*
X91973590Y-99358380D01*
X92068828Y-99406000D01*
X92116447Y-99453619D01*
X92164066Y-99548857D01*
X92164066Y-99691714D01*
X92116447Y-99786952D01*
X92068828Y-99834571D01*
X91973590Y-99882190D01*
X91592638Y-99882190D01*
X92592638Y-99834571D02*
X92925971Y-99834571D01*
X93068828Y-100358380D02*
X92592638Y-100358380D01*
X92592638Y-99358380D01*
X93068828Y-99358380D01*
X93830733Y-99834571D02*
X93497400Y-99834571D01*
X93497400Y-100358380D02*
X93497400Y-99358380D01*
X93973590Y-99358380D01*
X94497400Y-99358380D02*
X94497400Y-99596476D01*
X94259304Y-99501238D02*
X94497400Y-99596476D01*
X94735495Y-99501238D01*
X94354542Y-99786952D02*
X94497400Y-99596476D01*
X94640257Y-99786952D01*
X95259304Y-99358380D02*
X95259304Y-99596476D01*
X95021209Y-99501238D02*
X95259304Y-99596476D01*
X95497400Y-99501238D01*
X95116447Y-99786952D02*
X95259304Y-99596476D01*
X95402161Y-99786952D01*
X92164066Y-81282980D02*
X91830733Y-80806790D01*
X91592638Y-81282980D02*
X91592638Y-80282980D01*
X91973590Y-80282980D01*
X92068828Y-80330600D01*
X92116447Y-80378219D01*
X92164066Y-80473457D01*
X92164066Y-80616314D01*
X92116447Y-80711552D01*
X92068828Y-80759171D01*
X91973590Y-80806790D01*
X91592638Y-80806790D01*
X92592638Y-80759171D02*
X92925971Y-80759171D01*
X93068828Y-81282980D02*
X92592638Y-81282980D01*
X92592638Y-80282980D01*
X93068828Y-80282980D01*
X93830733Y-80759171D02*
X93497400Y-80759171D01*
X93497400Y-81282980D02*
X93497400Y-80282980D01*
X93973590Y-80282980D01*
X94497400Y-80282980D02*
X94497400Y-80521076D01*
X94259304Y-80425838D02*
X94497400Y-80521076D01*
X94735495Y-80425838D01*
X94354542Y-80711552D02*
X94497400Y-80521076D01*
X94640257Y-80711552D01*
X95259304Y-80282980D02*
X95259304Y-80521076D01*
X95021209Y-80425838D02*
X95259304Y-80521076D01*
X95497400Y-80425838D01*
X95116447Y-80711552D02*
X95259304Y-80521076D01*
X95402161Y-80711552D01*
X73114066Y-119408380D02*
X72780733Y-118932190D01*
X72542638Y-119408380D02*
X72542638Y-118408380D01*
X72923590Y-118408380D01*
X73018828Y-118456000D01*
X73066447Y-118503619D01*
X73114066Y-118598857D01*
X73114066Y-118741714D01*
X73066447Y-118836952D01*
X73018828Y-118884571D01*
X72923590Y-118932190D01*
X72542638Y-118932190D01*
X73542638Y-118884571D02*
X73875971Y-118884571D01*
X74018828Y-119408380D02*
X73542638Y-119408380D01*
X73542638Y-118408380D01*
X74018828Y-118408380D01*
X74780733Y-118884571D02*
X74447400Y-118884571D01*
X74447400Y-119408380D02*
X74447400Y-118408380D01*
X74923590Y-118408380D01*
X75447400Y-118408380D02*
X75447400Y-118646476D01*
X75209304Y-118551238D02*
X75447400Y-118646476D01*
X75685495Y-118551238D01*
X75304542Y-118836952D02*
X75447400Y-118646476D01*
X75590257Y-118836952D01*
X76209304Y-118408380D02*
X76209304Y-118646476D01*
X75971209Y-118551238D02*
X76209304Y-118646476D01*
X76447400Y-118551238D01*
X76066447Y-118836952D02*
X76209304Y-118646476D01*
X76352161Y-118836952D01*
X73114066Y-100332980D02*
X72780733Y-99856790D01*
X72542638Y-100332980D02*
X72542638Y-99332980D01*
X72923590Y-99332980D01*
X73018828Y-99380600D01*
X73066447Y-99428219D01*
X73114066Y-99523457D01*
X73114066Y-99666314D01*
X73066447Y-99761552D01*
X73018828Y-99809171D01*
X72923590Y-99856790D01*
X72542638Y-99856790D01*
X73542638Y-99809171D02*
X73875971Y-99809171D01*
X74018828Y-100332980D02*
X73542638Y-100332980D01*
X73542638Y-99332980D01*
X74018828Y-99332980D01*
X74780733Y-99809171D02*
X74447400Y-99809171D01*
X74447400Y-100332980D02*
X74447400Y-99332980D01*
X74923590Y-99332980D01*
X75447400Y-99332980D02*
X75447400Y-99571076D01*
X75209304Y-99475838D02*
X75447400Y-99571076D01*
X75685495Y-99475838D01*
X75304542Y-99761552D02*
X75447400Y-99571076D01*
X75590257Y-99761552D01*
X76209304Y-99332980D02*
X76209304Y-99571076D01*
X75971209Y-99475838D02*
X76209304Y-99571076D01*
X76447400Y-99475838D01*
X76066447Y-99761552D02*
X76209304Y-99571076D01*
X76352161Y-99761552D01*
X73114066Y-81257580D02*
X72780733Y-80781390D01*
X72542638Y-81257580D02*
X72542638Y-80257580D01*
X72923590Y-80257580D01*
X73018828Y-80305200D01*
X73066447Y-80352819D01*
X73114066Y-80448057D01*
X73114066Y-80590914D01*
X73066447Y-80686152D01*
X73018828Y-80733771D01*
X72923590Y-80781390D01*
X72542638Y-80781390D01*
X73542638Y-80733771D02*
X73875971Y-80733771D01*
X74018828Y-81257580D02*
X73542638Y-81257580D01*
X73542638Y-80257580D01*
X74018828Y-80257580D01*
X74780733Y-80733771D02*
X74447400Y-80733771D01*
X74447400Y-81257580D02*
X74447400Y-80257580D01*
X74923590Y-80257580D01*
X75447400Y-80257580D02*
X75447400Y-80495676D01*
X75209304Y-80400438D02*
X75447400Y-80495676D01*
X75685495Y-80400438D01*
X75304542Y-80686152D02*
X75447400Y-80495676D01*
X75590257Y-80686152D01*
X76209304Y-80257580D02*
X76209304Y-80495676D01*
X75971209Y-80400438D02*
X76209304Y-80495676D01*
X76447400Y-80400438D01*
X76066447Y-80686152D02*
X76209304Y-80495676D01*
X76352161Y-80686152D01*
X54064066Y-100332980D02*
X53730733Y-99856790D01*
X53492638Y-100332980D02*
X53492638Y-99332980D01*
X53873590Y-99332980D01*
X53968828Y-99380600D01*
X54016447Y-99428219D01*
X54064066Y-99523457D01*
X54064066Y-99666314D01*
X54016447Y-99761552D01*
X53968828Y-99809171D01*
X53873590Y-99856790D01*
X53492638Y-99856790D01*
X54492638Y-99809171D02*
X54825971Y-99809171D01*
X54968828Y-100332980D02*
X54492638Y-100332980D01*
X54492638Y-99332980D01*
X54968828Y-99332980D01*
X55730733Y-99809171D02*
X55397400Y-99809171D01*
X55397400Y-100332980D02*
X55397400Y-99332980D01*
X55873590Y-99332980D01*
X56397400Y-99332980D02*
X56397400Y-99571076D01*
X56159304Y-99475838D02*
X56397400Y-99571076D01*
X56635495Y-99475838D01*
X56254542Y-99761552D02*
X56397400Y-99571076D01*
X56540257Y-99761552D01*
X57159304Y-99332980D02*
X57159304Y-99571076D01*
X56921209Y-99475838D02*
X57159304Y-99571076D01*
X57397400Y-99475838D01*
X57016447Y-99761552D02*
X57159304Y-99571076D01*
X57302161Y-99761552D01*
%LPC*%
G36*
G01*
X192422212Y-101679237D02*
X192422212Y-101679237D01*
G75*
G02*
X193788237Y-101313212I866025J-500000D01*
G01*
X204873363Y-107713212D01*
G75*
G02*
X205239388Y-109079237I-500000J-866025D01*
G01*
X205239388Y-109079237D01*
G75*
G02*
X203873363Y-109445262I-866025J500000D01*
G01*
X192788237Y-103045262D01*
G75*
G02*
X192422212Y-101679237I500000J866025D01*
G01*
G37*
G36*
G01*
X193788237Y-101313212D02*
X193788237Y-101313212D01*
G75*
G02*
X194154262Y-102679237I-500000J-866025D01*
G01*
X187754262Y-113764363D01*
G75*
G02*
X186388237Y-114130388I-866025J500000D01*
G01*
X186388237Y-114130388D01*
G75*
G02*
X186022212Y-112764363I500000J866025D01*
G01*
X192422212Y-101679237D01*
G75*
G02*
X193788237Y-101313212I866025J-500000D01*
G01*
G37*
G36*
G01*
X186022212Y-112764363D02*
X186022212Y-112764363D01*
G75*
G02*
X187388237Y-112398338I866025J-500000D01*
G01*
X198473363Y-118798338D01*
G75*
G02*
X198839388Y-120164363I-500000J-866025D01*
G01*
X198839388Y-120164363D01*
G75*
G02*
X197473363Y-120530388I-866025J500000D01*
G01*
X186388237Y-114130388D01*
G75*
G02*
X186022212Y-112764363I500000J866025D01*
G01*
G37*
G36*
G01*
X204878363Y-107704552D02*
X204878363Y-107704552D01*
G75*
G02*
X205244388Y-109070577I-500000J-866025D01*
G01*
X198844388Y-120155703D01*
G75*
G02*
X197478363Y-120521728I-866025J500000D01*
G01*
X197478363Y-120521728D01*
G75*
G02*
X197112338Y-119155703I500000J866025D01*
G01*
X203512338Y-108070577D01*
G75*
G02*
X204878363Y-107704552I866025J-500000D01*
G01*
G37*
G36*
G01*
X201121293Y-135072727D02*
X201121293Y-135072727D01*
G75*
G02*
X202535507Y-135072727I707107J-707107D01*
G01*
X211586473Y-144123693D01*
G75*
G02*
X211586473Y-145537907I-707107J-707107D01*
G01*
X211586473Y-145537907D01*
G75*
G02*
X210172259Y-145537907I-707107J707107D01*
G01*
X201121293Y-136486941D01*
G75*
G02*
X201121293Y-135072727I707107J707107D01*
G01*
G37*
G36*
G01*
X202535507Y-135072727D02*
X202535507Y-135072727D01*
G75*
G02*
X202535507Y-136486941I-707107J-707107D01*
G01*
X193484541Y-145537907D01*
G75*
G02*
X192070327Y-145537907I-707107J707107D01*
G01*
X192070327Y-145537907D01*
G75*
G02*
X192070327Y-144123693I707107J707107D01*
G01*
X201121293Y-135072727D01*
G75*
G02*
X202535507Y-135072727I707107J-707107D01*
G01*
G37*
G36*
G01*
X192070327Y-144123693D02*
X192070327Y-144123693D01*
G75*
G02*
X193484541Y-144123693I707107J-707107D01*
G01*
X202535507Y-153174659D01*
G75*
G02*
X202535507Y-154588873I-707107J-707107D01*
G01*
X202535507Y-154588873D01*
G75*
G02*
X201121293Y-154588873I-707107J707107D01*
G01*
X192070327Y-145537907D01*
G75*
G02*
X192070327Y-144123693I707107J707107D01*
G01*
G37*
G36*
G01*
X211593544Y-144116622D02*
X211593544Y-144116622D01*
G75*
G02*
X211593544Y-145530836I-707107J-707107D01*
G01*
X202542578Y-154581802D01*
G75*
G02*
X201128364Y-154581802I-707107J707107D01*
G01*
X201128364Y-154581802D01*
G75*
G02*
X201128364Y-153167588I707107J707107D01*
G01*
X210179330Y-144116622D01*
G75*
G02*
X211593544Y-144116622I707107J-707107D01*
G01*
G37*
G36*
G01*
X178604612Y-125631437D02*
X178604612Y-125631437D01*
G75*
G02*
X179970637Y-125265412I866025J-500000D01*
G01*
X191055763Y-131665412D01*
G75*
G02*
X191421788Y-133031437I-500000J-866025D01*
G01*
X191421788Y-133031437D01*
G75*
G02*
X190055763Y-133397462I-866025J500000D01*
G01*
X178970637Y-126997462D01*
G75*
G02*
X178604612Y-125631437I500000J866025D01*
G01*
G37*
G36*
G01*
X179970637Y-125265412D02*
X179970637Y-125265412D01*
G75*
G02*
X180336662Y-126631437I-500000J-866025D01*
G01*
X173936662Y-137716563D01*
G75*
G02*
X172570637Y-138082588I-866025J500000D01*
G01*
X172570637Y-138082588D01*
G75*
G02*
X172204612Y-136716563I500000J866025D01*
G01*
X178604612Y-125631437D01*
G75*
G02*
X179970637Y-125265412I866025J-500000D01*
G01*
G37*
G36*
G01*
X172204612Y-136716563D02*
X172204612Y-136716563D01*
G75*
G02*
X173570637Y-136350538I866025J-500000D01*
G01*
X184655763Y-142750538D01*
G75*
G02*
X185021788Y-144116563I-500000J-866025D01*
G01*
X185021788Y-144116563D01*
G75*
G02*
X183655763Y-144482588I-866025J500000D01*
G01*
X172570637Y-138082588D01*
G75*
G02*
X172204612Y-136716563I500000J866025D01*
G01*
G37*
G36*
G01*
X191060763Y-131656752D02*
X191060763Y-131656752D01*
G75*
G02*
X191426788Y-133022777I-500000J-866025D01*
G01*
X185026788Y-144107903D01*
G75*
G02*
X183660763Y-144473928I-866025J500000D01*
G01*
X183660763Y-144473928D01*
G75*
G02*
X183294738Y-143107903I500000J866025D01*
G01*
X189694738Y-132022777D01*
G75*
G02*
X191060763Y-131656752I866025J-500000D01*
G01*
G37*
G36*
G01*
X156789191Y-118496414D02*
X156789191Y-118496414D01*
G75*
G02*
X158013936Y-117789307I965926J-258819D01*
G01*
X170377786Y-121102191D01*
G75*
G02*
X171084893Y-122326936I-258819J-965926D01*
G01*
X171084893Y-122326936D01*
G75*
G02*
X169860148Y-123034043I-965926J258819D01*
G01*
X157496298Y-119721159D01*
G75*
G02*
X156789191Y-118496414I258819J965926D01*
G01*
G37*
G36*
G01*
X158013936Y-117789307D02*
X158013936Y-117789307D01*
G75*
G02*
X158721043Y-119014052I-258819J-965926D01*
G01*
X155408159Y-131377902D01*
G75*
G02*
X154183414Y-132085009I-965926J258819D01*
G01*
X154183414Y-132085009D01*
G75*
G02*
X153476307Y-130860264I258819J965926D01*
G01*
X156789191Y-118496414D01*
G75*
G02*
X158013936Y-117789307I965926J-258819D01*
G01*
G37*
G36*
G01*
X153476307Y-130860264D02*
X153476307Y-130860264D01*
G75*
G02*
X154701052Y-130153157I965926J-258819D01*
G01*
X167064902Y-133466041D01*
G75*
G02*
X167772009Y-134690786I-258819J-965926D01*
G01*
X167772009Y-134690786D01*
G75*
G02*
X166547264Y-135397893I-965926J258819D01*
G01*
X154183414Y-132085009D01*
G75*
G02*
X153476307Y-130860264I258819J965926D01*
G01*
G37*
G36*
G01*
X170380374Y-121092532D02*
X170380374Y-121092532D01*
G75*
G02*
X171087481Y-122317277I-258819J-965926D01*
G01*
X167774597Y-134681127D01*
G75*
G02*
X166549852Y-135388234I-965926J258819D01*
G01*
X166549852Y-135388234D01*
G75*
G02*
X165842745Y-134163489I258819J965926D01*
G01*
X169155629Y-121799639D01*
G75*
G02*
X170380374Y-121092532I965926J-258819D01*
G01*
G37*
D11*
X122072400Y-117145600D03*
D12*
X115672400Y-123545600D03*
D11*
X122072400Y-129945600D03*
D12*
X128472400Y-123535600D03*
X147522400Y-123561000D03*
D11*
X141122400Y-129971000D03*
D12*
X134722400Y-123571000D03*
D11*
X141122400Y-117171000D03*
X169672000Y-62357800D03*
D12*
X163272000Y-68757800D03*
D11*
X169672000Y-75157800D03*
D12*
X176072000Y-68747800D03*
X176072000Y-87823200D03*
D11*
X169672000Y-94233200D03*
D12*
X163272000Y-87833200D03*
D11*
X169672000Y-81433200D03*
D12*
X176072000Y-106898600D03*
D11*
X169672000Y-113308600D03*
D12*
X163272000Y-106908600D03*
D11*
X169672000Y-100508600D03*
X150647400Y-59970200D03*
D12*
X144247400Y-66370200D03*
D11*
X150647400Y-72770200D03*
D12*
X157047400Y-66360200D03*
X157047400Y-85435600D03*
D11*
X150647400Y-91845600D03*
D12*
X144247400Y-85445600D03*
D11*
X150647400Y-79045600D03*
D12*
X157047400Y-104511000D03*
D11*
X150647400Y-110921000D03*
D12*
X144247400Y-104521000D03*
D11*
X150647400Y-98121000D03*
X131622800Y-93345800D03*
D12*
X125222800Y-99745800D03*
D11*
X131622800Y-106145800D03*
D12*
X138022800Y-99735800D03*
D11*
X131622800Y-74270400D03*
D12*
X125222800Y-80670400D03*
D11*
X131622800Y-87070400D03*
D12*
X138022800Y-80660400D03*
X138022800Y-61585000D03*
D11*
X131622800Y-67995000D03*
D12*
X125222800Y-61595000D03*
D11*
X131622800Y-55195000D03*
X112547400Y-98146400D03*
D12*
X106147400Y-104546400D03*
D11*
X112547400Y-110946400D03*
D12*
X118947400Y-104536400D03*
D11*
X112547400Y-79071000D03*
D12*
X106147400Y-85471000D03*
D11*
X112547400Y-91871000D03*
D12*
X118947400Y-85461000D03*
X118947400Y-66385600D03*
D11*
X112547400Y-72795600D03*
D12*
X106147400Y-66395600D03*
D11*
X112547400Y-59995600D03*
X93497400Y-107671400D03*
D12*
X87097400Y-114071400D03*
D11*
X93497400Y-120471400D03*
D12*
X99897400Y-114061400D03*
D11*
X93497400Y-88596000D03*
D12*
X87097400Y-94996000D03*
D11*
X93497400Y-101396000D03*
D12*
X99897400Y-94986000D03*
X99897400Y-75910600D03*
D11*
X93497400Y-82320600D03*
D12*
X87097400Y-75920600D03*
D11*
X93497400Y-69520600D03*
D12*
X80847400Y-114036000D03*
D11*
X74447400Y-120446000D03*
D12*
X68047400Y-114046000D03*
D11*
X74447400Y-107646000D03*
D12*
X80847400Y-94960600D03*
D11*
X74447400Y-101370600D03*
D12*
X68047400Y-94970600D03*
D11*
X74447400Y-88570600D03*
X74447400Y-69495200D03*
D12*
X68047400Y-75895200D03*
D11*
X74447400Y-82295200D03*
D12*
X80847400Y-75885200D03*
X61797400Y-94960600D03*
D11*
X55397400Y-101370600D03*
D12*
X48997400Y-94970600D03*
D11*
X55397400Y-88570600D03*
D13*
X108077000Y-117906800D03*
X153085800Y-115951000D03*
X198323200Y-130581400D03*
X182372000Y-96062800D03*
X159943800Y-76225400D03*
X118160800Y-75920600D03*
X83921600Y-85547200D03*
X55295800Y-106984800D03*
M02*
