%FSLAX45Y45*%
G04 Gerber Fmt 4.5, Leading zero omitted, Abs format (unit mm)*
G04 Created by KiCad (PCBNEW (5.1.10)-1) date 2021-10-25 12:42:18*
%MOMM*%
%LPD*%
G01*
G04 APERTURE LIST*
%TA.AperFunction,Profile*%
%ADD10C,0.200000*%
%TD*%
%ADD11C,0.200000*%
%ADD12C,0.300000*%
G04 APERTURE END LIST*
D10*
X6899440Y-12580600D02*
X6899440Y-11551230D01*
X6799440Y-11451230D02*
G75*
G02*
X6899440Y-11551230I0J-100000D01*
G01*
X5094435Y-11451230D02*
G75*
G02*
X4994435Y-11351230I0J100000D01*
G01*
X4994435Y-11351230D02*
X4994435Y-8201230D01*
X6799440Y-11451230D02*
X5094435Y-11451230D01*
X20585541Y-6018200D02*
X20585541Y-9321144D01*
X19190026Y-9521144D02*
G75*
G02*
X19290026Y-9421144I100000J0D01*
G01*
X16489370Y-5918200D02*
X16569370Y-5918200D01*
X22311406Y-14500875D02*
X20363825Y-16448141D01*
X19190026Y-9521144D02*
X19190026Y-10097055D01*
X15281824Y-13645387D02*
G75*
G02*
X20219704Y-16445322I-1219184J-7904233D01*
G01*
X16569370Y-5918200D02*
X18278210Y-5918200D01*
X20363825Y-16448141D02*
G75*
G02*
X20219704Y-16445322I-70705J70716D01*
G01*
X21426967Y-10574187D02*
X21426967Y-11918258D01*
X19290026Y-10197055D02*
X20846922Y-10197055D01*
X19290026Y-10197055D02*
G75*
G02*
X19190026Y-10097055I0J100000D01*
G01*
X20429470Y-5918200D02*
X20485541Y-5918200D01*
X20585541Y-9321144D02*
G75*
G02*
X20485541Y-9421144I-100000J0D01*
G01*
X15129382Y-13633700D02*
X11761940Y-13633700D01*
X15129382Y-13633700D02*
G75*
G02*
X15281824Y-13645387I0J-1000000D01*
G01*
X22311416Y-14359453D02*
G75*
G02*
X22311406Y-14500875I-70714J-70706D01*
G01*
X21376964Y-10487583D02*
G75*
G02*
X21426967Y-10574187I-49997J-86604D01*
G01*
X20921309Y-12969178D02*
X22311416Y-14359453D01*
X20846922Y-10197055D02*
G75*
G02*
X20896919Y-10210451I0J-100000D01*
G01*
X21413572Y-11968255D02*
X20905420Y-12848475D01*
X20896919Y-10210451D02*
X21376964Y-10487583D01*
X20485541Y-5918200D02*
G75*
G02*
X20585541Y-6018200I0J-100000D01*
G01*
X6999440Y-12680600D02*
G75*
G02*
X6899440Y-12580600I0J100000D01*
G01*
X11561940Y-12680600D02*
X6999440Y-12680600D01*
X11561940Y-12680600D02*
G75*
G02*
X11661940Y-12780600I0J-100000D01*
G01*
X11761940Y-13633700D02*
G75*
G02*
X11661940Y-13533700I0J100000D01*
G01*
X20921309Y-12969178D02*
G75*
G02*
X20905420Y-12848475I70715J70706D01*
G01*
X21426967Y-11918258D02*
G75*
G02*
X21413572Y-11968255I-100000J0D01*
G01*
X18278210Y-5918200D02*
X20429470Y-5918200D01*
X20485541Y-9421144D02*
X19290026Y-9421144D01*
X11661940Y-13533700D02*
X11661940Y-12780600D01*
X10709440Y-5968200D02*
G75*
G02*
X10759440Y-5918200I50000J0D01*
G01*
X6899440Y-8001230D02*
X6899440Y-6970670D01*
X5094435Y-8101230D02*
X6799440Y-8101230D01*
X4994435Y-8201230D02*
G75*
G02*
X5094435Y-8101230I100000J0D01*
G01*
X14564370Y-5441900D02*
G75*
G02*
X14614370Y-5491900I0J-50000D01*
G01*
X12614440Y-5491900D02*
G75*
G02*
X12664440Y-5441900I50000J0D01*
G01*
X12614440Y-5868200D02*
X12614440Y-5491900D01*
X6999440Y-6870670D02*
X7528910Y-6870670D01*
X6899440Y-8001230D02*
G75*
G02*
X6799440Y-8101230I-100000J0D01*
G01*
X10709440Y-6820670D02*
G75*
G02*
X10659440Y-6870670I-50000J0D01*
G01*
X14664370Y-5918200D02*
X16489370Y-5918200D01*
X10709440Y-6820670D02*
X10709440Y-5968200D01*
X14664370Y-5918200D02*
G75*
G02*
X14614370Y-5868200I0J50000D01*
G01*
X14614370Y-5491900D02*
X14614370Y-5868200D01*
X12664440Y-5441900D02*
X14564370Y-5441900D01*
X6899440Y-6970670D02*
G75*
G02*
X6999440Y-6870670I100000J0D01*
G01*
X7528910Y-6870670D02*
X10659440Y-6870670D01*
X12614440Y-5868200D02*
G75*
G02*
X12564440Y-5918200I-50000J0D01*
G01*
X10759440Y-5918200D02*
X12564440Y-5918200D01*
D11*
X5874240Y-10865340D02*
X6094240Y-11085340D01*
X6094240Y-10865340D02*
X5874240Y-11085340D01*
X8736820Y-8724120D02*
X8956820Y-8944120D01*
X8956820Y-8724120D02*
X8736820Y-8944120D01*
X11154900Y-11957540D02*
X11374900Y-12177540D01*
X11374900Y-11957540D02*
X11154900Y-12177540D01*
X12160740Y-7758920D02*
X12380740Y-7978920D01*
X12380740Y-7758920D02*
X12160740Y-7978920D01*
X15655780Y-11761960D02*
X15875780Y-11981960D01*
X15875780Y-11761960D02*
X15655780Y-11981960D01*
X16336500Y-7789400D02*
X16556500Y-8009400D01*
X16556500Y-7789400D02*
X16336500Y-8009400D01*
X18581860Y-9773140D02*
X18801860Y-9993140D01*
X18801860Y-9773140D02*
X18581860Y-9993140D01*
X20176980Y-13225000D02*
X20396980Y-13445000D01*
X20396980Y-13225000D02*
X20176980Y-13445000D01*
D12*
X5270863Y-16953139D02*
X5270863Y-16653139D01*
X5342292Y-16653139D01*
X5385149Y-16667424D01*
X5413721Y-16695996D01*
X5428006Y-16724567D01*
X5442292Y-16781710D01*
X5442292Y-16824567D01*
X5428006Y-16881710D01*
X5413721Y-16910282D01*
X5385149Y-16938853D01*
X5342292Y-16953139D01*
X5270863Y-16953139D01*
X5570863Y-16953139D02*
X5570863Y-16753139D01*
X5570863Y-16810282D02*
X5585149Y-16781710D01*
X5599435Y-16767424D01*
X5628006Y-16753139D01*
X5656578Y-16753139D01*
X5756578Y-16953139D02*
X5756578Y-16753139D01*
X5756578Y-16653139D02*
X5742292Y-16667424D01*
X5756578Y-16681710D01*
X5770863Y-16667424D01*
X5756578Y-16653139D01*
X5756578Y-16681710D01*
X5942292Y-16953139D02*
X5913720Y-16938853D01*
X5899435Y-16910282D01*
X5899435Y-16653139D01*
X6099435Y-16953139D02*
X6070863Y-16938853D01*
X6056578Y-16910282D01*
X6056578Y-16653139D01*
X6442292Y-16953139D02*
X6442292Y-16653139D01*
X6542292Y-16867424D01*
X6642292Y-16653139D01*
X6642292Y-16953139D01*
X6913720Y-16953139D02*
X6913720Y-16795996D01*
X6899435Y-16767424D01*
X6870863Y-16753139D01*
X6813720Y-16753139D01*
X6785149Y-16767424D01*
X6913720Y-16938853D02*
X6885149Y-16953139D01*
X6813720Y-16953139D01*
X6785149Y-16938853D01*
X6770863Y-16910282D01*
X6770863Y-16881710D01*
X6785149Y-16853139D01*
X6813720Y-16838853D01*
X6885149Y-16838853D01*
X6913720Y-16824567D01*
X7056578Y-16753139D02*
X7056578Y-17053139D01*
X7056578Y-16767424D02*
X7085149Y-16753139D01*
X7142292Y-16753139D01*
X7170863Y-16767424D01*
X7185149Y-16781710D01*
X7199435Y-16810282D01*
X7199435Y-16895996D01*
X7185149Y-16924567D01*
X7170863Y-16938853D01*
X7142292Y-16953139D01*
X7085149Y-16953139D01*
X7056578Y-16938853D01*
X7328006Y-16924567D02*
X7342292Y-16938853D01*
X7328006Y-16953139D01*
X7313720Y-16938853D01*
X7328006Y-16924567D01*
X7328006Y-16953139D01*
X7328006Y-16767424D02*
X7342292Y-16781710D01*
X7328006Y-16795996D01*
X7313720Y-16781710D01*
X7328006Y-16767424D01*
X7328006Y-16795996D01*
X4764435Y-17337424D02*
X4984435Y-17557424D01*
X4984435Y-17337424D02*
X4764435Y-17557424D01*
X5256578Y-17311710D02*
X5270863Y-17297424D01*
X5299435Y-17283139D01*
X5370863Y-17283139D01*
X5399435Y-17297424D01*
X5413721Y-17311710D01*
X5428006Y-17340282D01*
X5428006Y-17368853D01*
X5413721Y-17411710D01*
X5242292Y-17583139D01*
X5428006Y-17583139D01*
X5556578Y-17554567D02*
X5570863Y-17568853D01*
X5556578Y-17583139D01*
X5542292Y-17568853D01*
X5556578Y-17554567D01*
X5556578Y-17583139D01*
X5685149Y-17311710D02*
X5699435Y-17297424D01*
X5728006Y-17283139D01*
X5799435Y-17283139D01*
X5828006Y-17297424D01*
X5842292Y-17311710D01*
X5856578Y-17340282D01*
X5856578Y-17368853D01*
X5842292Y-17411710D01*
X5670863Y-17583139D01*
X5856578Y-17583139D01*
X6042292Y-17283139D02*
X6070863Y-17283139D01*
X6099435Y-17297424D01*
X6113720Y-17311710D01*
X6128006Y-17340282D01*
X6142292Y-17397424D01*
X6142292Y-17468853D01*
X6128006Y-17525996D01*
X6113720Y-17554567D01*
X6099435Y-17568853D01*
X6070863Y-17583139D01*
X6042292Y-17583139D01*
X6013720Y-17568853D01*
X5999435Y-17554567D01*
X5985149Y-17525996D01*
X5970863Y-17468853D01*
X5970863Y-17397424D01*
X5985149Y-17340282D01*
X5999435Y-17311710D01*
X6013720Y-17297424D01*
X6042292Y-17283139D01*
X6328006Y-17283139D02*
X6356578Y-17283139D01*
X6385149Y-17297424D01*
X6399435Y-17311710D01*
X6413720Y-17340282D01*
X6428006Y-17397424D01*
X6428006Y-17468853D01*
X6413720Y-17525996D01*
X6399435Y-17554567D01*
X6385149Y-17568853D01*
X6356578Y-17583139D01*
X6328006Y-17583139D01*
X6299435Y-17568853D01*
X6285149Y-17554567D01*
X6270863Y-17525996D01*
X6256578Y-17468853D01*
X6256578Y-17397424D01*
X6270863Y-17340282D01*
X6285149Y-17311710D01*
X6299435Y-17297424D01*
X6328006Y-17283139D01*
X6556578Y-17583139D02*
X6556578Y-17383139D01*
X6556578Y-17411710D02*
X6570863Y-17397424D01*
X6599435Y-17383139D01*
X6642292Y-17383139D01*
X6670863Y-17397424D01*
X6685149Y-17425996D01*
X6685149Y-17583139D01*
X6685149Y-17425996D02*
X6699435Y-17397424D01*
X6728006Y-17383139D01*
X6770863Y-17383139D01*
X6799435Y-17397424D01*
X6813720Y-17425996D01*
X6813720Y-17583139D01*
X6956578Y-17583139D02*
X6956578Y-17383139D01*
X6956578Y-17411710D02*
X6970863Y-17397424D01*
X6999435Y-17383139D01*
X7042292Y-17383139D01*
X7070863Y-17397424D01*
X7085149Y-17425996D01*
X7085149Y-17583139D01*
X7085149Y-17425996D02*
X7099435Y-17397424D01*
X7128006Y-17383139D01*
X7170863Y-17383139D01*
X7199435Y-17397424D01*
X7213720Y-17425996D01*
X7213720Y-17583139D01*
X7799435Y-17268853D02*
X7542292Y-17654567D01*
X8185149Y-17283139D02*
X8213720Y-17283139D01*
X8242292Y-17297424D01*
X8256578Y-17311710D01*
X8270863Y-17340282D01*
X8285149Y-17397424D01*
X8285149Y-17468853D01*
X8270863Y-17525996D01*
X8256578Y-17554567D01*
X8242292Y-17568853D01*
X8213720Y-17583139D01*
X8185149Y-17583139D01*
X8156578Y-17568853D01*
X8142292Y-17554567D01*
X8128006Y-17525996D01*
X8113720Y-17468853D01*
X8113720Y-17397424D01*
X8128006Y-17340282D01*
X8142292Y-17311710D01*
X8156578Y-17297424D01*
X8185149Y-17283139D01*
X8413721Y-17554567D02*
X8428006Y-17568853D01*
X8413721Y-17583139D01*
X8399435Y-17568853D01*
X8413721Y-17554567D01*
X8413721Y-17583139D01*
X8613721Y-17283139D02*
X8642292Y-17283139D01*
X8670863Y-17297424D01*
X8685149Y-17311710D01*
X8699435Y-17340282D01*
X8713721Y-17397424D01*
X8713721Y-17468853D01*
X8699435Y-17525996D01*
X8685149Y-17554567D01*
X8670863Y-17568853D01*
X8642292Y-17583139D01*
X8613721Y-17583139D01*
X8585149Y-17568853D01*
X8570863Y-17554567D01*
X8556578Y-17525996D01*
X8542292Y-17468853D01*
X8542292Y-17397424D01*
X8556578Y-17340282D01*
X8570863Y-17311710D01*
X8585149Y-17297424D01*
X8613721Y-17283139D01*
X8885149Y-17411710D02*
X8856578Y-17397424D01*
X8842292Y-17383139D01*
X8828006Y-17354567D01*
X8828006Y-17340282D01*
X8842292Y-17311710D01*
X8856578Y-17297424D01*
X8885149Y-17283139D01*
X8942292Y-17283139D01*
X8970863Y-17297424D01*
X8985149Y-17311710D01*
X8999435Y-17340282D01*
X8999435Y-17354567D01*
X8985149Y-17383139D01*
X8970863Y-17397424D01*
X8942292Y-17411710D01*
X8885149Y-17411710D01*
X8856578Y-17425996D01*
X8842292Y-17440282D01*
X8828006Y-17468853D01*
X8828006Y-17525996D01*
X8842292Y-17554567D01*
X8856578Y-17568853D01*
X8885149Y-17583139D01*
X8942292Y-17583139D01*
X8970863Y-17568853D01*
X8985149Y-17554567D01*
X8999435Y-17525996D01*
X8999435Y-17468853D01*
X8985149Y-17440282D01*
X8970863Y-17425996D01*
X8942292Y-17411710D01*
X9256578Y-17283139D02*
X9199435Y-17283139D01*
X9170863Y-17297424D01*
X9156578Y-17311710D01*
X9128006Y-17354567D01*
X9113721Y-17411710D01*
X9113721Y-17525996D01*
X9128006Y-17554567D01*
X9142292Y-17568853D01*
X9170863Y-17583139D01*
X9228006Y-17583139D01*
X9256578Y-17568853D01*
X9270863Y-17554567D01*
X9285149Y-17525996D01*
X9285149Y-17454567D01*
X9270863Y-17425996D01*
X9256578Y-17411710D01*
X9228006Y-17397424D01*
X9170863Y-17397424D01*
X9142292Y-17411710D01*
X9128006Y-17425996D01*
X9113721Y-17454567D01*
X9542292Y-17283139D02*
X9485149Y-17283139D01*
X9456578Y-17297424D01*
X9442292Y-17311710D01*
X9413721Y-17354567D01*
X9399435Y-17411710D01*
X9399435Y-17525996D01*
X9413721Y-17554567D01*
X9428006Y-17568853D01*
X9456578Y-17583139D01*
X9513721Y-17583139D01*
X9542292Y-17568853D01*
X9556578Y-17554567D01*
X9570863Y-17525996D01*
X9570863Y-17454567D01*
X9556578Y-17425996D01*
X9542292Y-17411710D01*
X9513721Y-17397424D01*
X9456578Y-17397424D01*
X9428006Y-17411710D01*
X9413721Y-17425996D01*
X9399435Y-17454567D01*
X9685149Y-17283139D02*
X9685149Y-17340282D01*
X9799435Y-17283139D02*
X9799435Y-17340282D01*
X10242292Y-17697424D02*
X10228006Y-17683139D01*
X10199435Y-17640282D01*
X10185149Y-17611710D01*
X10170863Y-17568853D01*
X10156578Y-17497424D01*
X10156578Y-17440282D01*
X10170863Y-17368853D01*
X10185149Y-17325996D01*
X10199435Y-17297424D01*
X10228006Y-17254567D01*
X10242292Y-17240282D01*
X10399435Y-17411710D02*
X10370863Y-17397424D01*
X10356578Y-17383139D01*
X10342292Y-17354567D01*
X10342292Y-17340282D01*
X10356578Y-17311710D01*
X10370863Y-17297424D01*
X10399435Y-17283139D01*
X10456578Y-17283139D01*
X10485149Y-17297424D01*
X10499435Y-17311710D01*
X10513721Y-17340282D01*
X10513721Y-17354567D01*
X10499435Y-17383139D01*
X10485149Y-17397424D01*
X10456578Y-17411710D01*
X10399435Y-17411710D01*
X10370863Y-17425996D01*
X10356578Y-17440282D01*
X10342292Y-17468853D01*
X10342292Y-17525996D01*
X10356578Y-17554567D01*
X10370863Y-17568853D01*
X10399435Y-17583139D01*
X10456578Y-17583139D01*
X10485149Y-17568853D01*
X10499435Y-17554567D01*
X10513721Y-17525996D01*
X10513721Y-17468853D01*
X10499435Y-17440282D01*
X10485149Y-17425996D01*
X10456578Y-17411710D01*
X10870863Y-17583139D02*
X10870863Y-17283139D01*
X10999435Y-17583139D02*
X10999435Y-17425996D01*
X10985149Y-17397424D01*
X10956578Y-17383139D01*
X10913721Y-17383139D01*
X10885149Y-17397424D01*
X10870863Y-17411710D01*
X11185149Y-17583139D02*
X11156578Y-17568853D01*
X11142292Y-17554567D01*
X11128006Y-17525996D01*
X11128006Y-17440282D01*
X11142292Y-17411710D01*
X11156578Y-17397424D01*
X11185149Y-17383139D01*
X11228006Y-17383139D01*
X11256578Y-17397424D01*
X11270863Y-17411710D01*
X11285149Y-17440282D01*
X11285149Y-17525996D01*
X11270863Y-17554567D01*
X11256578Y-17568853D01*
X11228006Y-17583139D01*
X11185149Y-17583139D01*
X11456578Y-17583139D02*
X11428006Y-17568853D01*
X11413720Y-17540282D01*
X11413720Y-17283139D01*
X11685149Y-17568853D02*
X11656578Y-17583139D01*
X11599435Y-17583139D01*
X11570863Y-17568853D01*
X11556578Y-17540282D01*
X11556578Y-17425996D01*
X11570863Y-17397424D01*
X11599435Y-17383139D01*
X11656578Y-17383139D01*
X11685149Y-17397424D01*
X11699435Y-17425996D01*
X11699435Y-17454567D01*
X11556578Y-17483139D01*
X11813720Y-17568853D02*
X11842292Y-17583139D01*
X11899435Y-17583139D01*
X11928006Y-17568853D01*
X11942292Y-17540282D01*
X11942292Y-17525996D01*
X11928006Y-17497424D01*
X11899435Y-17483139D01*
X11856578Y-17483139D01*
X11828006Y-17468853D01*
X11813720Y-17440282D01*
X11813720Y-17425996D01*
X11828006Y-17397424D01*
X11856578Y-17383139D01*
X11899435Y-17383139D01*
X11928006Y-17397424D01*
X12042292Y-17697424D02*
X12056578Y-17683139D01*
X12085149Y-17640282D01*
X12099435Y-17611710D01*
X12113720Y-17568853D01*
X12128006Y-17497424D01*
X12128006Y-17440282D01*
X12113720Y-17368853D01*
X12099435Y-17325996D01*
X12085149Y-17297424D01*
X12056578Y-17254567D01*
X12042292Y-17240282D01*
M02*
