G04 #@! TF.GenerationSoftware,KiCad,Pcbnew,(5.1.10)-1*
G04 #@! TF.CreationDate,2021-10-25T12:42:06+03:00*
G04 #@! TF.ProjectId,bottom_plate,626f7474-6f6d-45f7-906c-6174652e6b69,rev?*
G04 #@! TF.SameCoordinates,Original*
G04 #@! TF.FileFunction,Profile,NP*
%FSLAX46Y46*%
G04 Gerber Fmt 4.6, Leading zero omitted, Abs format (unit mm)*
G04 Created by KiCad (PCBNEW (5.1.10)-1) date 2021-10-25 12:42:06*
%MOMM*%
%LPD*%
G01*
G04 APERTURE LIST*
G04 #@! TA.AperFunction,Profile*
%ADD10C,0.200000*%
G04 #@! TD*
G04 APERTURE END LIST*
D10*
X68994400Y-125806000D02*
X68994400Y-115512300D01*
X67994400Y-114512300D02*
G75*
G02*
X68994400Y-115512300I0J-1000000D01*
G01*
X50944350Y-114512299D02*
G75*
G02*
X49944351Y-113512300I0J999999D01*
G01*
X49944351Y-113512300D02*
X49944350Y-82012300D01*
X67994400Y-114512300D02*
X50944350Y-114512300D01*
X205855406Y-60182000D02*
X205855406Y-93211439D01*
X191900264Y-95211439D02*
G75*
G02*
X192900264Y-94211439I1000000J0D01*
G01*
X164893700Y-59182000D02*
X165693700Y-59182000D01*
X223114057Y-145008749D02*
X203638251Y-164481407D01*
X191900264Y-95211439D02*
X191900264Y-100970547D01*
X152818236Y-136453875D02*
G75*
G02*
X202197044Y-164453222I-12191839J-79042325D01*
G01*
X165693700Y-59182000D02*
X182782100Y-59182000D01*
X203638249Y-164481408D02*
G75*
G02*
X202197044Y-164453222I-707048J707164D01*
G01*
X214269672Y-105741874D02*
X214269672Y-119182582D01*
X192900264Y-101970547D02*
X208469220Y-101970547D01*
X192900264Y-101970547D02*
G75*
G02*
X191900264Y-100970547I0J1000000D01*
G01*
X204294700Y-59182000D02*
X204855406Y-59182000D01*
X205855406Y-93211439D02*
G75*
G02*
X204855406Y-94211439I-1000000J0D01*
G01*
X151293819Y-136337000D02*
X117619400Y-136337000D01*
X151293819Y-136337000D02*
G75*
G02*
X152818236Y-136453875I0J-10000000D01*
G01*
X223114157Y-143594533D02*
G75*
G02*
X223114057Y-145008749I-707144J-707058D01*
G01*
X213769643Y-104875832D02*
G75*
G02*
X214269672Y-105741874I-499971J-866042D01*
G01*
X209213094Y-129691784D02*
X223114157Y-143594533D01*
X208469220Y-101970547D02*
G75*
G02*
X208969191Y-102104505I0J-1000000D01*
G01*
X214135716Y-119682549D02*
X209054199Y-128484752D01*
X208969191Y-102104505D02*
X213769643Y-104875832D01*
X204855406Y-59182000D02*
G75*
G02*
X205855406Y-60182000I0J-1000000D01*
G01*
X69994400Y-126806000D02*
G75*
G02*
X68994400Y-125806000I0J1000000D01*
G01*
X115619400Y-126806000D02*
X69994400Y-126806000D01*
X115619400Y-126806000D02*
G75*
G02*
X116619400Y-127806000I0J-1000000D01*
G01*
X117619400Y-136337000D02*
G75*
G02*
X116619400Y-135337000I0J1000000D01*
G01*
X209213093Y-129691784D02*
G75*
G02*
X209054199Y-128484752I707150J707064D01*
G01*
X214269672Y-119182581D02*
G75*
G02*
X214135716Y-119682549I-1000000J-1D01*
G01*
X182782100Y-59182000D02*
X204294700Y-59182000D01*
X204855406Y-94211439D02*
X192900264Y-94211439D01*
X116619400Y-135337000D02*
X116619400Y-127806000D01*
X107094399Y-59682001D02*
G75*
G02*
X107594400Y-59182000I500001J0D01*
G01*
X68994400Y-80012300D02*
X68994400Y-69706700D01*
X50944349Y-81012300D02*
X67994400Y-81012300D01*
X49944349Y-82012300D02*
G75*
G02*
X50944349Y-81012300I1000000J0D01*
G01*
X145643700Y-54419001D02*
G75*
G02*
X146143700Y-54919001I0J-500000D01*
G01*
X126144400Y-54919000D02*
G75*
G02*
X126644400Y-54419000I500000J0D01*
G01*
X126144400Y-58682000D02*
X126144400Y-54919000D01*
X69994399Y-68706700D02*
X75289099Y-68706700D01*
X68994400Y-80012300D02*
G75*
G02*
X67994400Y-81012300I-1000000J0D01*
G01*
X107094400Y-68206700D02*
G75*
G02*
X106594400Y-68706700I-500000J0D01*
G01*
X146643699Y-59182000D02*
X164893700Y-59182000D01*
X107094400Y-68206700D02*
X107094400Y-59682001D01*
X146643699Y-59182000D02*
G75*
G02*
X146143700Y-58682001I0J499999D01*
G01*
X146143700Y-54919001D02*
X146143700Y-58682001D01*
X126644400Y-54419000D02*
X145643699Y-54419000D01*
X68994399Y-69706700D02*
G75*
G02*
X69994399Y-68706700I1000000J0D01*
G01*
X75289099Y-68706700D02*
X106594400Y-68706700D01*
X126144399Y-58682000D02*
G75*
G02*
X125644399Y-59182000I-500000J0D01*
G01*
X107594400Y-59182000D02*
X125644399Y-59182000D01*
M02*
