G04 #@! TF.GenerationSoftware,KiCad,Pcbnew,(5.1.10)-1*
G04 #@! TF.CreationDate,2021-10-25T12:29:25+03:00*
G04 #@! TF.ProjectId,main_pcb,6d61696e-5f70-4636-922e-6b696361645f,rev?*
G04 #@! TF.SameCoordinates,Original*
G04 #@! TF.FileFunction,Profile,NP*
%FSLAX46Y46*%
G04 Gerber Fmt 4.6, Leading zero omitted, Abs format (unit mm)*
G04 Created by KiCad (PCBNEW (5.1.10)-1) date 2021-10-25 12:29:25*
%MOMM*%
%LPD*%
G01*
G04 APERTURE LIST*
G04 #@! TA.AperFunction,Profile*
%ADD10C,0.200000*%
G04 #@! TD*
G04 APERTURE END LIST*
D10*
X181869806Y-47165500D02*
G75*
G02*
X182869806Y-48165500I0J-1000000D01*
G01*
X186068599Y-116468252D02*
X191150116Y-107666049D01*
X182869806Y-87713028D02*
X182869806Y-48165500D01*
X191284072Y-107166081D02*
G75*
G02*
X191150116Y-107666049I-1000000J-1D01*
G01*
X191284072Y-107166082D02*
X191284072Y-93725374D01*
X92633800Y-114789500D02*
G75*
G02*
X93633800Y-115789500I0J-1000000D01*
G01*
X183369835Y-88579070D02*
G75*
G02*
X182869806Y-87713028I499971J866042D01*
G01*
X190784043Y-92859332D02*
X183369835Y-88579070D01*
X190784043Y-92859332D02*
G75*
G02*
X191284072Y-93725374I-499971J-866042D01*
G01*
X180652651Y-152464907D02*
X200128457Y-132992249D01*
X186227493Y-117675284D02*
G75*
G02*
X186068599Y-116468252I707150J707064D01*
G01*
X200128557Y-131578033D02*
X186227494Y-117675284D01*
X180652649Y-152464908D02*
G75*
G02*
X179211444Y-152436722I-707048J707164D01*
G01*
X128308219Y-124320500D02*
G75*
G02*
X129832636Y-124437375I0J-10000000D01*
G01*
X46008800Y-103495800D02*
X46008800Y-113789500D01*
X94633800Y-124320500D02*
X128308219Y-124320500D01*
X129832636Y-124437375D02*
G75*
G02*
X179211444Y-152436722I-12191839J-79042325D01*
G01*
X94633800Y-124320500D02*
G75*
G02*
X93633800Y-123320500I0J1000000D01*
G01*
X47008800Y-114789500D02*
G75*
G02*
X46008800Y-113789500I0J1000000D01*
G01*
X45008800Y-102495800D02*
G75*
G02*
X46008800Y-103495800I0J-1000000D01*
G01*
X93633800Y-115789500D02*
X93633800Y-123320500D01*
X47008800Y-114789500D02*
X92633800Y-114789501D01*
X200128557Y-131578033D02*
G75*
G02*
X200128457Y-132992249I-707144J-707058D01*
G01*
X122658099Y-42402500D02*
G75*
G02*
X123158100Y-42902501I0J-500001D01*
G01*
X102658799Y-47165500D02*
X84608800Y-47165500D01*
X103158799Y-46665500D02*
G75*
G02*
X102658799Y-47165500I-500000J0D01*
G01*
X103158800Y-42902500D02*
G75*
G02*
X103658800Y-42402500I500000J0D01*
G01*
X142708100Y-47165500D02*
X141908100Y-47165500D01*
X103158800Y-42902500D02*
X103158800Y-46665500D01*
X122658099Y-42402500D02*
X103658800Y-42402500D01*
X123158100Y-46665501D02*
X123158100Y-42902501D01*
X123658099Y-47165500D02*
G75*
G02*
X123158100Y-46665501I0J499999D01*
G01*
X141908100Y-47165500D02*
X123658099Y-47165500D01*
X159796500Y-47165500D02*
X142708100Y-47165500D01*
X181309100Y-47165500D02*
X159796500Y-47165500D01*
X181869806Y-47165500D02*
X181309100Y-47165500D01*
X83608800Y-56690200D02*
X52303499Y-56690200D01*
X84108800Y-56190200D02*
G75*
G02*
X83608800Y-56690200I-500000J0D01*
G01*
X84108800Y-47665501D02*
X84108800Y-56190200D01*
X84108799Y-47665501D02*
G75*
G02*
X84608800Y-47165500I500001J0D01*
G01*
X46008799Y-57690200D02*
G75*
G02*
X47008799Y-56690200I1000000J0D01*
G01*
X26958750Y-69995800D02*
X26958751Y-101495800D01*
X26958749Y-69995800D02*
G75*
G02*
X27958749Y-68995800I1000000J0D01*
G01*
X46008800Y-57690200D02*
X46008800Y-67995800D01*
X52303499Y-56690200D02*
X47008799Y-56690200D01*
X45008800Y-68995800D02*
X27958749Y-68995800D01*
X27958750Y-102495799D02*
G75*
G02*
X26958751Y-101495800I0J999999D01*
G01*
X27958750Y-102495800D02*
X45008800Y-102495800D01*
X46008800Y-67995800D02*
G75*
G02*
X45008800Y-68995800I-1000000J0D01*
G01*
M02*
