M48
; DRILL file {KiCad (5.1.10)-1} date 10/25/21 12:31:03
; FORMAT={-:-/ absolute / metric / decimal}
; #@! TF.CreationDate,2021-10-25T12:31:03+03:00
; #@! TF.GenerationSoftware,Kicad,Pcbnew,(5.1.10)-1
; #@! TF.FileFunction,Plated,1,2,PTH
FMAT,2
METRIC
T1C0.400
T2C0.813
T3C0.900
T4C1.000
T5C1.300
T6C1.499
T7C1.500
T8C2.200
%
G90
G05
T1
X44.62Y-91.799
X46.99Y-95.656
X52.476Y-58.242
X53.035Y-94.844
X65.679Y-72.581
X68.301Y-91.656
X68.986Y-95.529
X84.089Y-110.555
X84.531Y-98.069
X85.38Y-70.481
X85.515Y-87.625
X86.106Y-48.895
X88.417Y-85.827
X94.746Y-82.46
X100.686Y-79.121
X103.226Y-85.75
X103.505Y-100.94
X105.001Y-62.126
X105.103Y-98.217
X105.816Y-78.435
X111.717Y-79.811
X123.546Y-68.859
X124.457Y-63.206
X124.841Y-104.851
X125.959Y-80.391
X128.168Y-86.36
X130.611Y-120.079
X135.764Y-67.565
X138.22Y-121.601
X139.781Y-83.524
X141.914Y-64.455
X143.739Y-88.595
X144.056Y-103.32
X145.542Y-64.999
X145.72Y-67.767
X149.098Y-88.595
X149.25Y-108.001
X151.028Y-68.097
X152.012Y-51.485
X153.619Y-121.387
X154.522Y-88.07
X155.453Y-115.944
X156.718Y-84.023
X157.383Y-90.282
X157.72Y-88.259
X158.598Y-68.478
X160.579Y-72.542
X161.544Y-105.105
X161.768Y-76.827
X161.965Y-88.782
X162.092Y-53.732
X162.272Y-80.723
X163.017Y-96.372
X163.093Y-93.066
X163.373Y-89.941
X164.105Y-109.934
X167.177Y-66.587
X167.198Y-78.387
X167.269Y-94.935
X167.287Y-72.312
X167.321Y-68.221
X167.414Y-54.282
X167.629Y-79.882
X167.796Y-65.362
X171.171Y-94.92
X171.526Y-59.157
X171.552Y-61.798
X171.552Y-86.182
X172.466Y-49.479
X172.923Y-91.491
X174.349Y-91.3
X174.828Y-112.878
X175.184Y-126.009
X176.41Y-63.882
X177.763Y-74.639
X179.502Y-109.652
X180.164Y-94.623
X182.761Y-114.445
X187.554Y-104.673
T2
X164.338Y-52.832
X164.338Y-55.372
X164.338Y-57.912
X164.338Y-60.452
X164.338Y-62.992
X164.338Y-65.532
X164.338Y-68.072
X164.338Y-70.612
X164.338Y-73.152
X164.338Y-75.692
X164.338Y-78.232
X164.338Y-80.772
X165.664Y-51.562
X165.664Y-54.102
X165.664Y-56.642
X165.664Y-59.182
X165.664Y-61.722
X165.664Y-64.262
X165.664Y-66.802
X165.664Y-69.342
X165.664Y-71.882
X165.664Y-74.422
X165.664Y-76.962
X165.664Y-79.502
X179.578Y-52.832
X179.578Y-55.372
X179.578Y-57.912
X179.578Y-60.452
X179.578Y-62.992
X179.578Y-65.532
X179.578Y-68.072
X179.578Y-70.612
X179.578Y-73.152
X179.578Y-75.692
X179.578Y-78.232
X179.578Y-80.772
X180.884Y-51.562
X180.884Y-54.102
X180.884Y-56.642
X180.884Y-59.182
X180.884Y-61.722
X180.884Y-64.262
X180.884Y-66.802
X180.884Y-69.342
X180.884Y-71.882
X180.884Y-74.422
X180.884Y-76.962
X180.884Y-79.502
T4
X167.869Y-85.014
X167.869Y-87.554
X171.29Y-106.911
X173.455Y-108.161
X175.62Y-109.411
X178.54Y-94.354
X182.87Y-96.854
T5
X141.327Y-49.581
X147.827Y-49.581
T6
X39.56Y-81.915
X39.56Y-89.535
X42.1Y-83.185
X42.1Y-88.265
X52.197Y-69.215
X52.197Y-88.265
X52.197Y-107.315
X53.467Y-71.755
X53.467Y-90.805
X53.467Y-109.855
X58.547Y-71.755
X58.547Y-90.805
X58.547Y-109.855
X59.817Y-69.215
X59.817Y-88.265
X59.817Y-107.315
X71.12Y-69.215
X71.247Y-107.315
X71.31Y-88.328
X72.39Y-71.755
X72.517Y-109.855
X72.581Y-90.868
X77.47Y-71.755
X77.597Y-109.855
X77.66Y-90.868
X78.74Y-69.215
X78.867Y-107.315
X78.93Y-88.328
X90.297Y-59.69
X90.297Y-78.74
X90.297Y-97.727
X91.567Y-62.23
X91.567Y-81.28
X91.567Y-100.266
X96.647Y-62.23
X96.647Y-81.28
X96.647Y-100.266
X97.917Y-59.69
X97.917Y-78.74
X97.917Y-97.727
X99.898Y-116.815
X101.168Y-119.355
X106.248Y-119.355
X107.518Y-116.815
X109.347Y-54.864
X109.347Y-73.977
X109.377Y-93.02
X110.617Y-57.404
X110.617Y-76.517
X110.647Y-95.56
X115.697Y-57.404
X115.697Y-76.517
X115.727Y-95.56
X116.967Y-54.864
X116.967Y-73.977
X116.997Y-93.02
X118.872Y-116.815
X120.142Y-119.355
X125.222Y-119.355
X126.492Y-116.815
X128.334Y-78.74
X128.397Y-59.69
X128.402Y-97.82
X129.604Y-81.28
X129.667Y-62.23
X129.672Y-100.361
X134.684Y-81.28
X134.747Y-62.23
X134.752Y-100.361
X135.954Y-78.74
X136.017Y-59.69
X136.022Y-97.82
X139.502Y-118.815
X140.072Y-121.598
X144.979Y-122.912
X146.863Y-120.788
X147.447Y-62.103
X147.447Y-81.153
X147.447Y-100.203
X148.717Y-64.643
X148.717Y-83.693
X148.717Y-102.743
X153.797Y-64.643
X153.797Y-83.693
X153.797Y-102.743
X155.067Y-62.103
X155.067Y-81.153
X155.067Y-100.203
X158.607Y-128.783
X158.777Y-125.949
X163.007Y-131.323
X165.377Y-129.759
X178.0Y-133.764
X178.898Y-136.458
X181.592Y-130.172
X184.286Y-131.07
T8
X36.881Y-97.739
X65.481Y-76.302
X89.662Y-108.661
X99.746Y-66.675
X134.671Y-106.68
X141.503Y-66.98
X163.932Y-86.817
X179.908Y-121.31
T3
X172.223Y-83.883G85X170.423Y-83.883
G05
X172.223Y-88.487G85X170.423Y-88.487
G05
X176.141Y-83.883G85X175.54Y-83.883
G05
X176.141Y-88.487G85X175.54Y-88.487
G05
X179.141Y-83.883G85X178.54Y-83.883
G05
X179.141Y-88.487G85X178.54Y-88.487
G05
T7
X172.03Y-99.429G85X172.68Y-98.303
G05
X181.73Y-105.029G85X182.38Y-103.903
G05
T0
M30
