M48
; DRILL file {KiCad (5.1.10)-1} date 10/25/21 12:31:03
; FORMAT={-:-/ absolute / metric / decimal}
; #@! TF.CreationDate,2021-10-25T12:31:03+03:00
; #@! TF.GenerationSoftware,Kicad,Pcbnew,(5.1.10)-1
; #@! TF.FileFunction,NonPlated,1,2,NPTH
FMAT,2
METRIC
T1C0.900
T2C1.500
T3C1.702
T4C3.000
T5C3.988
%
G90
G05
T1
X154.558Y-49.047
X156.005Y-49.073
X157.558Y-49.047
X159.005Y-49.073
T2
X173.44Y-86.183
X180.44Y-86.183
T3
X37.02Y-80.645
X37.02Y-90.805
X50.927Y-66.675
X50.927Y-85.725
X50.927Y-104.775
X61.087Y-66.675
X61.087Y-85.725
X61.087Y-104.775
X69.85Y-66.675
X69.977Y-104.775
X70.04Y-85.788
X80.01Y-66.675
X80.137Y-104.775
X80.2Y-85.788
X89.027Y-57.15
X89.027Y-76.2
X89.027Y-95.186
X98.628Y-114.275
X99.187Y-57.15
X99.187Y-76.2
X99.187Y-95.186
X108.077Y-52.324
X108.077Y-71.438
X108.107Y-90.48
X108.788Y-114.275
X117.602Y-114.275
X118.237Y-52.324
X118.237Y-71.438
X118.267Y-90.48
X127.064Y-76.2
X127.127Y-57.15
X127.132Y-95.28
X127.762Y-114.275
X137.224Y-76.2
X137.287Y-57.15
X137.292Y-95.28
X138.933Y-116.033
X146.177Y-59.563
X146.177Y-78.613
X146.177Y-97.663
X148.747Y-118.663
X156.337Y-59.563
X156.337Y-78.613
X156.337Y-97.663
X158.948Y-123.114
X167.746Y-128.194
X179.796Y-139.152
X186.98Y-131.968
T4
X31.941Y-83.185
X31.941Y-88.265
X34.48Y-81.915
X34.48Y-89.535
X52.197Y-64.135
X52.197Y-83.185
X52.197Y-102.235
X53.467Y-61.595
X53.467Y-80.645
X53.467Y-99.695
X58.547Y-61.595
X58.547Y-80.645
X58.547Y-99.695
X59.817Y-64.135
X59.817Y-83.185
X59.817Y-102.235
X71.12Y-64.135
X71.247Y-102.235
X71.31Y-83.248
X72.39Y-61.595
X72.517Y-99.695
X72.581Y-80.709
X77.47Y-61.595
X77.597Y-99.695
X77.66Y-80.709
X78.74Y-64.135
X78.867Y-102.235
X78.93Y-83.248
X90.297Y-54.61
X90.297Y-73.66
X90.297Y-92.646
X91.567Y-52.07
X91.567Y-71.12
X91.567Y-90.106
X96.647Y-52.07
X96.647Y-71.12
X96.647Y-90.106
X97.917Y-54.61
X97.917Y-73.66
X97.917Y-92.646
X99.898Y-111.735
X101.168Y-109.195
X106.248Y-109.195
X107.518Y-111.735
X109.347Y-49.784
X109.347Y-68.897
X109.377Y-87.94
X110.617Y-47.244
X110.617Y-66.358
X110.647Y-85.4
X115.697Y-47.244
X115.697Y-66.358
X115.727Y-85.4
X116.967Y-49.784
X116.967Y-68.897
X116.997Y-87.94
X118.872Y-111.735
X120.142Y-109.195
X125.222Y-109.195
X126.492Y-111.735
X128.334Y-73.66
X128.397Y-54.61
X128.402Y-92.74
X129.604Y-71.12
X129.667Y-52.07
X129.672Y-90.2
X134.684Y-71.12
X134.747Y-52.07
X134.752Y-90.2
X135.954Y-73.66
X136.017Y-54.61
X136.022Y-92.74
X140.817Y-113.908
X142.701Y-111.784
X147.447Y-57.023
X147.447Y-76.073
X147.447Y-95.123
X147.608Y-113.098
X148.178Y-115.881
X148.717Y-54.483
X148.717Y-73.533
X148.717Y-92.583
X153.797Y-54.483
X153.797Y-73.533
X153.797Y-92.583
X155.067Y-57.023
X155.067Y-76.073
X155.067Y-95.123
X161.317Y-121.549
X163.687Y-119.985
X167.917Y-125.359
X168.087Y-122.525
X182.49Y-140.05
X185.184Y-140.948
X187.878Y-134.662
X188.776Y-137.356
T5
X37.02Y-85.725
X56.007Y-66.675
X56.007Y-85.725
X56.007Y-104.775
X74.93Y-66.675
X75.057Y-104.775
X75.12Y-85.788
X94.107Y-57.15
X94.107Y-76.2
X94.107Y-95.186
X103.708Y-114.275
X113.157Y-52.324
X113.157Y-71.438
X113.187Y-90.48
X122.682Y-114.275
X132.144Y-76.2
X132.207Y-57.15
X132.212Y-95.28
X143.84Y-117.348
X151.257Y-59.563
X151.257Y-78.613
X151.257Y-97.663
X163.347Y-125.654
X183.388Y-135.56
T0
M30
